<?xml version="1.0" standalone="no"?>
<!DOCTYPE svg PUBLIC "-//W3C//DTD SVG 1.1//EN" "http://www.w3.org/Graphics/SVG/1.1/DTD/svg11.dtd" >
<svg xmlns="http://www.w3.org/2000/svg" xmlns:xlink="http://www.w3.org/1999/xlink" version="1.1">
<metadata>
Created by FontForge 20190801 at Fri Sep  7 15:58:00 2018
 By Jimmy Wärting
Copyright 2018 The Kodchasan Project Authors (https://github.com/cadsondemak/Kodchasan)
</metadata>
<defs>
<font id="Kodchasan-SemiBold" horiz-adv-x="0" >
  <font-face 
    font-family="Kodchasan SemiBold"
    font-weight="600"
    font-stretch="normal"
    units-per-em="1000"
    panose-1="0 0 7 0 0 0 0 0 0 0"
    ascent="800"
    descent="-200"
    x-height="490"
    cap-height="710"
    bbox="-723 -529 1238 1230"
    underline-thickness="50"
    underline-position="-100"
    unicode-range="U+000D-FB02"
  />
<missing-glyph horiz-adv-x="729" 
d="M96 848h536v-848h-536v848zM583 50v748h-439v-748h439z" />
    <glyph glyph-name="fi" unicode="fi" horiz-adv-x="650" 
d="M576.5 478q15.5 -14 15.5 -39v-396q0 -24 -15.5 -38.5t-41.5 -14.5t-40.5 14t-14.5 39v362h-251v-362q0 -25 -15 -39t-41 -14t-41 14t-15 39v362h-28q-28 0 -44 11.5t-16 31.5q0 21 16 32.5t44 11.5h28v44q0 94 61 148.5t165 54.5q63 0 120.5 -22.5t92.5 -59.5
q10 -11 10 -28q0 -22 -16 -37q-13 -12 -31 -12q-21 0 -40 17q-29 24 -65 38t-71 14q-56 0 -85 -28t-29 -81v-48h306q26 0 41.5 -14z" />
    <glyph glyph-name="fl" unicode="fl" horiz-adv-x="666" 
d="M132.5 4.5q-15.5 14.5 -15.5 38.5v362h-28q-26 0 -43 11t-17 32q0 22 16.5 33t43.5 11h28v44q0 94 61 148.5t165 54.5q126 0 211 -71q20 -17 29 -33.5t9 -36.5v-555q0 -25 -15.5 -39t-41.5 -14q-25 0 -40 14t-15 39v362h-251v-362q0 -25 -15 -39t-41 -14
q-25 0 -40.5 14.5zM480 492v114q-55 43 -137 43q-56 0 -85 -28t-29 -81v-48h251z" />
    <glyph glyph-name="uni0E240E45" unicode="&#xe24;&#xe45;" horiz-adv-x="1046" 
d="M929.5 531q58.5 -53 58.5 -150l-1 -598q0 -24 -15 -38.5t-41 -14.5t-41 14.5t-15 38.5l1 598q0 56 -29.5 85t-86.5 29q-73 0 -144 -56q19 -47 19 -111v-545q0 -25 -15 -39t-41 -14t-41.5 14t-15.5 39v547q0 81 -42 123t-123 42q-73 0 -130.5 -31t-83.5 -84l56 -41
q9 9 24.5 18t29.5 14q16 4 20 4q16 0 25 -22q5 -12 5 -24q0 -16 -18 -24q-32 -11 -51 -35.5t-19 -52.5v-30q10 5 26.5 9.5t28.5 4.5q49 0 77 -27.5t28 -76.5t-35.5 -78t-95.5 -29q-61 0 -98 33t-37 89v68q0 64 32 100l-73 55q-24 18 -24 34q0 7 5 19q36 92 118 144t190 52
q137 0 209 -69q41 33 92.5 51t106.5 18q106 0 164.5 -53zM202.5 130.5q-14.5 -12.5 -14.5 -35.5q0 -22 14.5 -33.5t41.5 -11.5q28 0 42.5 11.5t14.5 33.5q0 23 -15 35.5t-42 12.5t-41.5 -12.5z" />
    <glyph glyph-name="uni0E260E45" unicode="&#xe26;&#xe45;" horiz-adv-x="1058" 
d="M942 531q59 -53 59 -150l-1 -598q0 -24 -15 -38.5t-42 -14.5q-26 0 -41 14t-15 39l1 598q0 114 -116 114q-71 0 -141 -53q23 -54 23 -122v-538q0 -24 -15 -38.5t-41 -14.5t-41.5 14.5t-15.5 38.5v540q0 83 -43 128t-122 45q-73 0 -127.5 -30.5t-81.5 -86.5l82 -44
q8 9 26 19.5t31 14.5q11 3 18 3q21 0 30 -22q6 -13 6 -22q0 -17 -21 -28q-24 -11 -34.5 -28.5t-10.5 -42.5v-112q0 -58 -36.5 -92t-98.5 -34q-60 0 -96 28.5t-36 76.5q0 46 31 76t78 30q33 0 51 -10v33q0 32 11 53l-106 55q-25 13 -25 31q0 10 6 23q37 92 117.5 145
t185.5 53q130 0 204 -68q40 33 91.5 50.5t105.5 17.5q106 0 165 -53zM200 130.5q-15 12.5 -42 12.5t-42 -12.5t-15 -35.5q0 -22 15 -33.5t42 -11.5t42 11.5t15 33.5q0 23 -15 35.5z" />
    <glyph glyph-name=".notdef" horiz-adv-x="729" 
d="M96 848h536v-848h-536v848zM583 50v748h-439v-748h439z" />
    <glyph glyph-name="NULL" 
 />
    <glyph glyph-name="NULL" 
 />
    <glyph glyph-name="nonmarkingreturn" unicode="&#xd;" horiz-adv-x="268" 
 />
    <glyph glyph-name="space" unicode=" " horiz-adv-x="268" 
 />
    <glyph glyph-name="A" unicode="A" horiz-adv-x="729" 
d="M74 5q-15 14 -15 39v364q0 142 81 222t225 80q94 0 163 -36.5t105.5 -104.5t36.5 -161v-364q0 -25 -15 -39t-41 -14t-42 14.5t-16 38.5v184h-383v-184q0 -24 -16 -38.5t-42 -14.5t-41 14zM556 317v94q0 102 -48.5 155t-142.5 53q-95 0 -143.5 -52.5t-48.5 -155.5v-94h383
z" />
    <glyph glyph-name="Aacute" unicode="&#xc1;" horiz-adv-x="729" 
d="M74 5q-15 14 -15 39v364q0 142 81 222t225 80q94 0 163 -36.5t105.5 -104.5t36.5 -161v-364q0 -25 -15 -39t-41 -14t-42 14.5t-16 38.5v184h-383v-184q0 -24 -16 -38.5t-42 -14.5t-41 14zM556 317v94q0 102 -48.5 155t-142.5 53q-95 0 -143.5 -52.5t-48.5 -155.5v-94h383
zM338.5 792q-5.5 9 -5.5 19q0 8 3 15l59 145q15 36 44 36q14 0 28 -7q32 -17 32 -41q0 -11 -8 -25l-80 -139q-6 -10 -16.5 -16t-21.5 -6q-9 0 -19 5t-15.5 14z" />
    <glyph glyph-name="Abreve" unicode="&#x102;" horiz-adv-x="729" 
d="M74 5q-15 14 -15 39v364q0 142 81 222t225 80q94 0 163 -36.5t105.5 -104.5t36.5 -161v-364q0 -25 -15 -39t-41 -14t-42 14.5t-16 38.5v184h-383v-184q0 -24 -16 -38.5t-42 -14.5t-41 14zM556 317v94q0 102 -48.5 155t-142.5 53q-95 0 -143.5 -52.5t-48.5 -155.5v-94h383
zM233.5 817q-48.5 45 -48.5 118q0 25 13.5 38t38.5 13t38.5 -13t13.5 -38q0 -39 19.5 -60.5t56.5 -21.5t56.5 21.5t19.5 60.5q0 24 13.5 37.5t38.5 13.5t38.5 -13t13.5 -38q0 -73 -48.5 -118t-131.5 -45t-131.5 45z" />
    <glyph glyph-name="uni1EAE" unicode="&#x1eae;" horiz-adv-x="729" 
d="M74 5q-15 14 -15 39v364q0 142 81 222t225 80q94 0 163 -36.5t105.5 -104.5t36.5 -161v-364q0 -25 -15 -39t-41 -14t-42 14.5t-16 38.5v184h-383v-184q0 -24 -16 -38.5t-42 -14.5t-41 14zM556 317v94q0 102 -48.5 155t-142.5 53q-95 0 -143.5 -52.5t-48.5 -155.5v-94h383
zM325 974q0 13 5 20l63 107q7 12 18 18.5t23 6.5q15 0 29 -9q21 -13 21 -37q0 -16 -10 -27l-82 -97q-14 -16 -32 -16q-12 0 -22 7q-13 10 -13 27zM233.5 810q-50.5 41 -50.5 108q0 25 13.5 38t38.5 13q51 0 51 -51q0 -68 78 -68q77 0 77 68q0 25 13.5 38t38.5 13t38 -13
t13 -38q0 -68 -50 -108.5t-130 -40.5t-130.5 41z" />
    <glyph glyph-name="uni1EB6" unicode="&#x1eb6;" horiz-adv-x="729" 
d="M74 5q-15 14 -15 39v364q0 142 81 222t225 80q94 0 163 -36.5t105.5 -104.5t36.5 -161v-364q0 -25 -15 -39t-41 -14t-42 14.5t-16 38.5v184h-383v-184q0 -24 -16 -38.5t-42 -14.5t-41 14zM556 317v94q0 102 -48.5 155t-142.5 53q-95 0 -143.5 -52.5t-48.5 -155.5v-94h383
zM312.5 -182.5q-19.5 18.5 -19.5 47.5q0 31 19.5 49t52.5 18q32 0 51.5 -18t19.5 -49q0 -29 -19.5 -47.5t-51.5 -18.5q-33 0 -52.5 18.5zM233.5 817q-48.5 45 -48.5 118q0 25 13.5 38t38.5 13t38.5 -13t13.5 -38q0 -39 19.5 -60.5t56.5 -21.5t56.5 21.5t19.5 60.5
q0 24 13.5 37.5t38.5 13.5t38.5 -13t13.5 -38q0 -73 -48.5 -118t-131.5 -45t-131.5 45z" />
    <glyph glyph-name="uni1EB0" unicode="&#x1eb0;" horiz-adv-x="729" 
d="M74 5q-15 14 -15 39v364q0 142 81 222t225 80q94 0 163 -36.5t105.5 -104.5t36.5 -161v-364q0 -25 -15 -39t-41 -14t-42 14.5t-16 38.5v184h-383v-184q0 -24 -16 -38.5t-42 -14.5t-41 14zM556 317v94q0 102 -48.5 155t-142.5 53q-95 0 -143.5 -52.5t-48.5 -155.5v-94h383
zM368 940q-18 0 -32 16l-81 97q-11 14 -11 28q0 22 20 36q13 9 29 9q27 0 42 -25l63 -107q6 -10 6 -21q0 -15 -14 -26q-10 -7 -22 -7zM234.5 810q-50.5 41 -50.5 108q0 25 13.5 38t38.5 13q51 0 51 -51q0 -68 78 -68q77 0 77 68q0 25 13.5 38t38.5 13t38 -13t13 -38
q0 -68 -50 -108.5t-130 -40.5t-130.5 41z" />
    <glyph glyph-name="uni1EB2" unicode="&#x1eb2;" horiz-adv-x="729" 
d="M74 5q-15 14 -15 39v364q0 142 81 222t225 80q94 0 163 -36.5t105.5 -104.5t36.5 -161v-364q0 -25 -15 -39t-41 -14t-42 14.5t-16 38.5v184h-383v-184q0 -24 -16 -38.5t-42 -14.5t-41 14zM556 317v94q0 102 -48.5 155t-142.5 53q-95 0 -143.5 -52.5t-48.5 -155.5v-94h383
zM334 935q-11 8 -11 22v5q0 15 9 26.5t26 25.5q14 13 19.5 19.5t5.5 14.5q0 10 -7 16t-19 6q-20 0 -41 -21q-11 -12 -25 -12q-10 0 -20 7q-13 9 -13 23q0 10 6 17q14 20 42.5 34t64.5 14q50 0 75 -20t25 -53q0 -19 -9.5 -31.5t-28.5 -29.5q-14 -12 -20 -19.5t-6 -16.5v-5
q0 -14 -11 -22t-31 -8t-31 8zM234.5 810q-50.5 41 -50.5 108q0 25 13.5 38t38.5 13q51 0 51 -51q0 -68 78 -68q77 0 77 68q0 25 13.5 38t38.5 13t38 -13t13 -38q0 -68 -50 -108.5t-130 -40.5t-130.5 41z" />
    <glyph glyph-name="uni1EB4" unicode="&#x1eb4;" horiz-adv-x="729" 
d="M74 5q-15 14 -15 39v364q0 142 81 222t225 80q94 0 163 -36.5t105.5 -104.5t36.5 -161v-364q0 -25 -15 -39t-41 -14t-42 14.5t-16 38.5v184h-383v-184q0 -24 -16 -38.5t-42 -14.5t-41 14zM556 317v94q0 102 -48.5 155t-142.5 53q-95 0 -143.5 -52.5t-48.5 -155.5v-94h383
zM196 1007.5q-10 8.5 -10 22.5q0 11 4 20q27 77 102 77q24 0 44.5 -8.5t45.5 -24.5q17 -11 27 -16t20 -5q14 0 23 8t16 25q13 27 34 27q17 0 27 -9t10 -23q0 -9 -4 -18q-29 -78 -102 -78q-23 0 -41 8t-40 23q-17 12 -29.5 17.5t-25.5 5.5q-14 0 -23 -7.5t-17 -25.5
q-11 -27 -34 -27q-17 0 -27 8.5zM234.5 810q-50.5 41 -50.5 108q0 25 13.5 38t38.5 13q51 0 51 -51q0 -68 78 -68q77 0 77 68q0 25 13.5 38t38.5 13t38 -13t13 -38q0 -68 -50 -108.5t-130 -40.5t-130.5 41z" />
    <glyph glyph-name="uni01CD" unicode="&#x1cd;" horiz-adv-x="729" 
d="M74 5q-15 14 -15 39v364q0 142 81 222t225 80q94 0 163 -36.5t105.5 -104.5t36.5 -161v-364q0 -25 -15 -39t-41 -14t-42 14.5t-16 38.5v184h-383v-184q0 -24 -16 -38.5t-42 -14.5t-41 14zM556 317v94q0 102 -48.5 155t-142.5 53q-95 0 -143.5 -52.5t-48.5 -155.5v-94h383
zM320 791l-105 127q-13 16 -13 32q0 19 19 34q14 11 28 11q21 0 40 -25l76 -104l76 104q19 25 41 25q14 0 27 -10q20 -15 20 -35q0 -16 -14 -33l-105 -126q-19 -21 -45 -21t-45 21z" />
    <glyph glyph-name="Acircumflex" unicode="&#xc2;" horiz-adv-x="729" 
d="M74 5q-15 14 -15 39v364q0 142 81 222t225 80q94 0 163 -36.5t105.5 -104.5t36.5 -161v-364q0 -25 -15 -39t-41 -14t-42 14.5t-16 38.5v184h-383v-184q0 -24 -16 -38.5t-42 -14.5t-41 14zM556 317v94q0 102 -48.5 155t-142.5 53q-95 0 -143.5 -52.5t-48.5 -155.5v-94h383
zM202 814q0 17 13 33l105 126q19 22 45 22t45 -22l105 -126q13 -16 13 -33q0 -19 -18 -34q-14 -10 -28 -10q-21 0 -41 24l-76 104l-76 -104q-20 -24 -41 -24q-14 0 -27 10q-19 15 -19 34z" />
    <glyph glyph-name="uni1EA4" unicode="&#x1ea4;" horiz-adv-x="729" 
d="M74 5q-15 14 -15 39v364q0 142 81 222t225 80q94 0 163 -36.5t105.5 -104.5t36.5 -161v-364q0 -25 -15 -39t-41 -14t-42 14.5t-16 38.5v184h-383v-184q0 -24 -16 -38.5t-42 -14.5t-41 14zM556 317v94q0 102 -48.5 155t-142.5 53q-95 0 -143.5 -52.5t-48.5 -155.5v-94h383
zM453 969q0 11 6 21l63 106q14 26 41 26q14 0 29 -10q20 -13 20 -36q0 -15 -10 -28l-82 -97q-14 -16 -31 -16q-12 0 -22 7q-14 11 -14 27zM201 814q0 16 14 32l105 115q19 21 45 21t45 -21l105 -115q14 -16 14 -32q0 -20 -20 -35q-11 -10 -26 -10q-21 0 -42 25l-76 92
l-76 -93q-20 -24 -42 -24q-13 0 -26 10q-20 15 -20 35z" />
    <glyph glyph-name="uni1EAC" unicode="&#x1eac;" horiz-adv-x="729" 
d="M74 5q-15 14 -15 39v364q0 142 81 222t225 80q94 0 163 -36.5t105.5 -104.5t36.5 -161v-364q0 -25 -15 -39t-41 -14t-42 14.5t-16 38.5v184h-383v-184q0 -24 -16 -38.5t-42 -14.5t-41 14zM556 317v94q0 102 -48.5 155t-142.5 53q-95 0 -143.5 -52.5t-48.5 -155.5v-94h383
zM312.5 -182.5q-19.5 18.5 -19.5 47.5q0 31 19.5 49t52.5 18q32 0 51.5 -18t19.5 -49q0 -29 -19.5 -47.5t-51.5 -18.5q-33 0 -52.5 18.5zM202 814q0 17 13 33l105 126q19 22 45 22t45 -22l105 -126q13 -16 13 -33q0 -19 -18 -34q-14 -10 -28 -10q-21 0 -41 24l-76 104
l-76 -104q-20 -24 -41 -24q-14 0 -27 10q-19 15 -19 34z" />
    <glyph glyph-name="uni1EA6" unicode="&#x1ea6;" horiz-adv-x="729" 
d="M74 5q-15 14 -15 39v364q0 142 81 222t225 80q94 0 163 -36.5t105.5 -104.5t36.5 -161v-364q0 -25 -15 -39t-41 -14t-42 14.5t-16 38.5v184h-383v-184q0 -24 -16 -38.5t-42 -14.5t-41 14zM556 317v94q0 102 -48.5 155t-142.5 53q-95 0 -143.5 -52.5t-48.5 -155.5v-94h383
zM514 935q-17 0 -31 16l-82 97q-10 13 -10 28q0 24 20 37q13 9 28 9q28 0 42 -26l63 -106q6 -10 6 -22q0 -16 -14 -26q-10 -7 -22 -7zM201 814q0 16 14 32l105 115q19 21 45 21t45 -21l105 -115q14 -16 14 -32q0 -20 -20 -35q-11 -10 -26 -10q-21 0 -42 25l-76 92l-76 -93
q-20 -24 -42 -24q-13 0 -26 10q-20 15 -20 35z" />
    <glyph glyph-name="uni1EA8" unicode="&#x1ea8;" horiz-adv-x="729" 
d="M74 5q-15 14 -15 39v364q0 142 81 222t225 80q94 0 163 -36.5t105.5 -104.5t36.5 -161v-364q0 -25 -15 -39t-41 -14t-42 14.5t-16 38.5v184h-383v-184q0 -24 -16 -38.5t-42 -14.5t-41 14zM556 317v94q0 102 -48.5 155t-142.5 53q-95 0 -143.5 -52.5t-48.5 -155.5v-94h383
zM463 932.5q-11 7.5 -11 22.5v5q0 15 9 26.5t26 25.5q14 13 19.5 19.5t5.5 14.5q0 10 -7 16t-19 6q-22 0 -41 -21q-10 -12 -25 -12q-10 0 -20 7q-13 10 -13 23q0 10 6 17q15 21 42.5 34.5t64.5 13.5q50 0 75 -20t25 -53q0 -19 -10 -32.5t-28 -28.5q-13 -10 -19.5 -18
t-6.5 -17v-6q0 -15 -11.5 -22.5t-30.5 -7.5q-20 0 -31 7.5zM201 814q0 16 14 32l105 115q19 21 45 21t45 -21l105 -115q14 -16 14 -32q0 -20 -20 -35q-11 -10 -26 -10q-21 0 -42 25l-76 92l-76 -93q-20 -24 -42 -24q-13 0 -26 10q-20 15 -20 35z" />
    <glyph glyph-name="uni1EAA" unicode="&#x1eaa;" horiz-adv-x="729" 
d="M74 5q-15 14 -15 39v364q0 142 81 222t225 80q94 0 163 -36.5t105.5 -104.5t36.5 -161v-364q0 -25 -15 -39t-41 -14t-42 14.5t-16 38.5v184h-383v-184q0 -24 -16 -38.5t-42 -14.5t-41 14zM556 317v94q0 102 -48.5 155t-142.5 53q-95 0 -143.5 -52.5t-48.5 -155.5v-94h383
zM194 1025q0 8 3 18q13 36 38.5 56.5t63.5 20.5q25 0 45.5 -8.5t45.5 -24.5q17 -11 27 -16t20 -5q14 0 23 8t16 25q11 27 33 27q18 0 28 -8.5t10 -22.5q0 -10 -4 -19q-29 -78 -102 -78q-23 0 -41 8t-40 23q-19 12 -31 17.5t-25 5.5t-22 -7.5t-17 -24.5q-12 -28 -33 -28
q-6 0 -15 3q-23 6 -23 30zM201 814q0 16 14 32l105 115q19 22 45 22q27 0 44 -22l106 -115q13 -14 13 -31q0 -22 -19 -35q-14 -11 -27 -11q-21 0 -41 25l-76 92l-76 -92q-20 -25 -41 -25q-14 0 -28 11q-19 14 -19 34z" />
    <glyph glyph-name="Adieresis" unicode="&#xc4;" horiz-adv-x="729" 
d="M74 5q-15 14 -15 39v364q0 142 81 222t225 80q94 0 163 -36.5t105.5 -104.5t36.5 -161v-364q0 -25 -15 -39t-41 -14t-42 14.5t-16 38.5v184h-383v-184q0 -24 -16 -38.5t-42 -14.5t-41 14zM556 317v94q0 102 -48.5 155t-142.5 53q-95 0 -143.5 -52.5t-48.5 -155.5v-94h383
zM207 810q-18 18 -18 44t18 44.5t46 18.5q27 0 45 -18t18 -45q0 -25 -18 -43.5t-45 -18.5q-28 0 -46 18zM433.5 810q-18.5 18 -18.5 44t18 44.5t46 18.5t46 -18t18 -45q0 -25 -18.5 -43.5t-45.5 -18.5t-45.5 18z" />
    <glyph glyph-name="uni1EA0" unicode="&#x1ea0;" horiz-adv-x="729" 
d="M74 5q-15 14 -15 39v364q0 142 81 222t225 80q94 0 163 -36.5t105.5 -104.5t36.5 -161v-364q0 -25 -15 -39t-41 -14t-42 14.5t-16 38.5v184h-383v-184q0 -24 -16 -38.5t-42 -14.5t-41 14zM556 317v94q0 102 -48.5 155t-142.5 53q-95 0 -143.5 -52.5t-48.5 -155.5v-94h383
zM312.5 -182.5q-19.5 18.5 -19.5 47.5q0 31 19.5 49t52.5 18q32 0 51.5 -18t19.5 -49q0 -29 -19.5 -47.5t-51.5 -18.5q-33 0 -52.5 18.5z" />
    <glyph glyph-name="Agrave" unicode="&#xc0;" horiz-adv-x="729" 
d="M74 5q-15 14 -15 39v364q0 142 81 222t225 80q94 0 163 -36.5t105.5 -104.5t36.5 -161v-364q0 -25 -15 -39t-41 -14t-42 14.5t-16 38.5v184h-383v-184q0 -24 -16 -38.5t-42 -14.5t-41 14zM556 317v94q0 102 -48.5 155t-142.5 53q-95 0 -143.5 -52.5t-48.5 -155.5v-94h383
zM342.5 779q-10.5 6 -16.5 16l-80 139q-8 13 -8 25q0 24 32 41q14 7 28 7q30 0 45 -36l58 -145q3 -7 3 -15q0 -15 -10.5 -26.5t-29.5 -11.5q-11 0 -21.5 6z" />
    <glyph glyph-name="uni1EA2" unicode="&#x1ea2;" horiz-adv-x="729" 
d="M74 5q-15 14 -15 39v364q0 142 81 222t225 80q94 0 163 -36.5t105.5 -104.5t36.5 -161v-364q0 -25 -15 -39t-41 -14t-42 14.5t-16 38.5v184h-383v-184q0 -24 -16 -38.5t-42 -14.5t-41 14zM556 317v94q0 102 -48.5 155t-142.5 53q-95 0 -143.5 -52.5t-48.5 -155.5v-94h383
zM329 763q-13 9 -13 25v6q0 17 10.5 30.5t29.5 28.5q15 13 21.5 20.5t6.5 16.5q0 12 -7.5 18.5t-21.5 6.5q-27 0 -47 -25q-11 -12 -26 -12q-13 0 -24 8q-16 10 -16 25q0 9 7 19q17 24 49 39.5t74 15.5q56 0 85 -23t29 -60q0 -21 -11.5 -36t-32.5 -32q-15 -13 -22 -21.5
t-7 -17.5v-7q0 -16 -13 -25t-36 -9q-22 0 -35 9z" />
    <glyph glyph-name="Amacron" unicode="&#x100;" horiz-adv-x="729" 
d="M74 5q-15 14 -15 39v364q0 142 81 222t225 80q94 0 163 -36.5t105.5 -104.5t36.5 -161v-364q0 -25 -15 -39t-41 -14t-42 14.5t-16 38.5v184h-383v-184q0 -24 -16 -38.5t-42 -14.5t-41 14zM556 317v94q0 102 -48.5 155t-142.5 53q-95 0 -143.5 -52.5t-48.5 -155.5v-94h383
zM192 809q0 20 11.5 28t35.5 8h252q24 0 35.5 -8t11.5 -28q0 -35 -47 -35h-252q-47 0 -47 35z" />
    <glyph glyph-name="Aogonek" unicode="&#x104;" horiz-adv-x="729" 
d="M712 -144q0 -12 -13 -25q-39 -39 -99 -39q-54 0 -88.5 24t-34.5 71q0 37 20 70t62 68q-3 9 -3 19v184h-383v-184q0 -24 -16 -38.5t-42 -14.5t-41 14t-15 39v364q0 142 81 222t225 80q94 0 163 -36.5t105.5 -104.5t36.5 -161v-364q0 -32 -26 -47l-2 -1q-7 -6 -31.5 -26.5
t-33.5 -36.5t-9 -35q0 -17 12 -26t29 -9q28 0 46 16q13 11 24 11t21 -10q12 -12 12 -24zM556 411q0 102 -48.5 155t-142.5 53q-95 0 -143.5 -52.5t-48.5 -155.5v-94h383v94z" />
    <glyph glyph-name="Aring" unicode="&#xc5;" horiz-adv-x="729" 
d="M74 5q-15 14 -15 39v364q0 142 81 222t225 80q94 0 163 -36.5t105.5 -104.5t36.5 -161v-364q0 -25 -15 -39t-41 -14t-42 14.5t-16 38.5v184h-383v-184q0 -24 -16 -38.5t-42 -14.5t-41 14zM556 317v94q0 102 -48.5 155t-142.5 53q-95 0 -143.5 -52.5t-48.5 -155.5v-94h383
zM276.5 784q-33.5 30 -33.5 78t33.5 77.5t88.5 29.5t87.5 -30t32.5 -77q0 -48 -32.5 -78t-87.5 -30t-88.5 30zM401.5 827q13.5 13 13.5 35q0 23 -13.5 36t-36.5 13t-36.5 -13t-13.5 -36q0 -22 13.5 -35t36.5 -13t36.5 13z" />
    <glyph glyph-name="Aringacute" unicode="&#x1fa;" horiz-adv-x="729" 
d="M74 5q-15 14 -15 39v364q0 142 81 222t225 80q94 0 163 -36.5t105.5 -104.5t36.5 -161v-364q0 -25 -15 -39t-41 -14t-42 14.5t-16 38.5v184h-383v-184q0 -24 -16 -38.5t-42 -14.5t-41 14zM556 317v94q0 102 -48.5 155t-142.5 53q-95 0 -143.5 -52.5t-48.5 -155.5v-94h383
zM276.5 784q-33.5 30 -33.5 78t33.5 77.5t88.5 29.5t87.5 -30t32.5 -77q0 -48 -32.5 -78t-87.5 -30t-88.5 30zM401.5 827q13.5 13 13.5 35q0 23 -13.5 36t-36.5 13t-36.5 -13t-13.5 -36q0 -22 13.5 -35t36.5 -13t36.5 13zM338.5 1015q-5.5 9 -5.5 19q0 8 3 15l59 145
q15 36 44 36q14 0 28 -7q32 -17 32 -41q0 -11 -8 -25l-80 -139q-6 -10 -16.5 -16t-21.5 -6q-9 0 -19 5t-15.5 14z" />
    <glyph glyph-name="Atilde" unicode="&#xc3;" horiz-adv-x="729" 
d="M74 5q-15 14 -15 39v364q0 142 81 222t225 80q94 0 163 -36.5t105.5 -104.5t36.5 -161v-364q0 -25 -15 -39t-41 -14t-42 14.5t-16 38.5v184h-383v-184q0 -24 -16 -38.5t-42 -14.5t-41 14zM556 317v94q0 102 -48.5 155t-142.5 53q-95 0 -143.5 -52.5t-48.5 -155.5v-94h383
zM190 807.5q-11 9.5 -11 24.5q0 10 4 19q32 82 108 82q26 0 47 -9t47 -26q17 -11 28 -16.5t22 -5.5q15 0 24 8.5t17 27.5q13 28 37 28q17 0 28 -9.5t11 -24.5q0 -10 -4 -19q-32 -82 -108 -82q-25 0 -43.5 8t-42.5 24q-18 13 -31 19t-27 6q-15 0 -24 -8t-17 -27
q-13 -29 -36 -29q-18 0 -29 9.5z" />
    <glyph glyph-name="AE" unicode="&#xc6;" horiz-adv-x="1114" 
d="M74 5q-15 14 -15 39v364q0 142 81 222t225 80q135 0 213 -87q13 37 43.5 57t72.5 20h295q54 0 54 -45q0 -21 -14 -32.5t-40 -11.5h-280q-21 0 -33.5 -14t-12.5 -38v-157h250q54 0 54 -45q0 -21 -14 -32.5t-40 -11.5h-250v-172q0 -24 12.5 -38t33.5 -14h302q26 0 40 -11.5
t14 -33.5q0 -20 -14.5 -32t-39.5 -12h-312q-69 0 -106 36.5t-37 105.5v86h-383v-184q0 -24 -16 -38.5t-42 -14.5t-41 14zM556 317v94q0 102 -48.5 155t-142.5 53q-95 0 -143.5 -52.5t-48.5 -155.5v-94h383z" />
    <glyph glyph-name="AEacute" unicode="&#x1fc;" horiz-adv-x="1114" 
d="M74 5q-15 14 -15 39v364q0 142 81 222t225 80q135 0 213 -87q13 37 43.5 57t72.5 20h295q54 0 54 -45q0 -21 -14 -32.5t-40 -11.5h-280q-21 0 -33.5 -14t-12.5 -38v-157h250q54 0 54 -45q0 -21 -14 -32.5t-40 -11.5h-250v-172q0 -24 12.5 -38t33.5 -14h302q26 0 40 -11.5
t14 -33.5q0 -20 -14.5 -32t-39.5 -12h-312q-69 0 -106 36.5t-37 105.5v86h-383v-184q0 -24 -16 -38.5t-42 -14.5t-41 14zM556 317v94q0 102 -48.5 155t-142.5 53q-95 0 -143.5 -52.5t-48.5 -155.5v-94h383zM527.5 792q-5.5 9 -5.5 19q0 8 3 15l59 145q15 36 44 36
q14 0 28 -7q32 -17 32 -41q0 -11 -8 -25l-80 -139q-6 -10 -16.5 -16t-21.5 -6q-9 0 -19 5t-15.5 14z" />
    <glyph glyph-name="B" unicode="B" horiz-adv-x="735" 
d="M103.5 37.5q-39.5 37.5 -39.5 104.5v419q0 65 38 102t106 37h233q111 0 172 -49.5t61 -141.5q0 -48 -27 -87t-72 -59v-2q50 -19 80.5 -60t30.5 -91q0 -98 -62 -154t-171 -56h-239q-71 0 -110.5 37.5zM444 403q53 0 84 28t31 77q0 103 -118 103h-218q-22 0 -34.5 -14
t-12.5 -38v-156h268zM444 89q127 0 127 119q0 51 -34 79.5t-93 28.5h-268v-175q0 -24 12.5 -38t34.5 -14h221z" />
    <glyph glyph-name="C" unicode="C" horiz-adv-x="764" 
d="M217.5 33.5q-81.5 43.5 -125 124.5t-43.5 191t43.5 191.5t124.5 125.5t191 44q90 0 167 -31t116 -84q11 -16 11 -29q0 -22 -23 -39q-13 -8 -27 -8q-13 0 -25.5 6t-21.5 16q-33 40 -81.5 59t-115.5 19q-115 0 -179.5 -71.5t-64.5 -198.5q0 -125 65 -196.5t180 -71.5
q136 0 209 78q24 24 49 24q16 0 29 -10q20 -17 20 -37q0 -17 -12 -32q-43 -53 -121 -83.5t-174 -30.5q-110 0 -191.5 43.5z" />
    <glyph glyph-name="Cacute" unicode="&#x106;" horiz-adv-x="764" 
d="M217.5 33.5q-81.5 43.5 -125 124.5t-43.5 191t43.5 191.5t124.5 125.5t191 44q90 0 167 -31t116 -84q11 -16 11 -29q0 -22 -23 -39q-13 -8 -27 -8q-13 0 -25.5 6t-21.5 16q-33 40 -81.5 59t-115.5 19q-115 0 -179.5 -71.5t-64.5 -198.5q0 -125 65 -196.5t180 -71.5
q136 0 209 78q24 24 49 24q16 0 29 -10q20 -17 20 -37q0 -17 -12 -32q-43 -53 -121 -83.5t-174 -30.5q-110 0 -191.5 43.5zM393.5 792q-5.5 9 -5.5 19q0 8 3 15l59 145q15 36 44 36q14 0 28 -7q32 -17 32 -41q0 -11 -8 -25l-80 -139q-6 -10 -16.5 -16t-21.5 -6q-9 0 -19 5
t-15.5 14z" />
    <glyph glyph-name="Ccaron" unicode="&#x10c;" horiz-adv-x="764" 
d="M217.5 33.5q-81.5 43.5 -125 124.5t-43.5 191t43.5 191.5t124.5 125.5t191 44q90 0 167 -31t116 -84q11 -16 11 -29q0 -22 -23 -39q-13 -8 -27 -8q-13 0 -25.5 6t-21.5 16q-33 40 -81.5 59t-115.5 19q-115 0 -179.5 -71.5t-64.5 -198.5q0 -125 65 -196.5t180 -71.5
q136 0 209 78q24 24 49 24q16 0 29 -10q20 -17 20 -37q0 -17 -12 -32q-43 -53 -121 -83.5t-174 -30.5q-110 0 -191.5 43.5zM376 791l-105 127q-13 16 -13 32q0 19 19 34q14 11 28 11q21 0 40 -25l76 -104l76 104q19 25 41 25q14 0 27 -10q20 -15 20 -35q0 -16 -14 -33
l-105 -126q-19 -21 -45 -21t-45 21z" />
    <glyph glyph-name="Ccedilla" unicode="&#xc7;" horiz-adv-x="764" 
d="M716 136q0 -17 -12 -32q-38 -48 -105.5 -77.5t-150.5 -35.5l-2 -4l-20 -37q42 -2 65 -23t23 -53q0 -38 -28 -64t-81 -26q-41 0 -72 15t-49 39q-7 10 -7 19q0 12 15 26q11 9 21 9q13 0 24 -14t27 -21.5t33 -7.5q19 0 29 7.5t10 21.5q0 35 -44 31q-19 -2 -33 7.5t-14 25.5
q0 7 3 15l17 35q-97 8 -168.5 54t-109.5 123.5t-38 179.5q0 110 43.5 191.5t124.5 125.5t191 44q90 0 167 -31t116 -84q11 -16 11 -29q0 -22 -23 -39q-13 -8 -27 -8q-13 0 -25.5 6t-21.5 16q-33 40 -81.5 59t-115.5 19q-115 0 -179.5 -71.5t-64.5 -198.5q0 -125 65 -196.5
t180 -71.5q136 0 209 78q24 24 49 24q16 0 29 -10q20 -17 20 -37z" />
    <glyph glyph-name="Ccircumflex" unicode="&#x108;" horiz-adv-x="764" 
d="M217.5 33.5q-81.5 43.5 -125 124.5t-43.5 191t43.5 191.5t124.5 125.5t191 44q90 0 167 -31t116 -84q11 -16 11 -29q0 -22 -23 -39q-13 -8 -27 -8q-13 0 -25.5 6t-21.5 16q-33 40 -81.5 59t-115.5 19q-115 0 -179.5 -71.5t-64.5 -198.5q0 -125 65 -196.5t180 -71.5
q136 0 209 78q24 24 49 24q16 0 29 -10q20 -17 20 -37q0 -17 -12 -32q-43 -53 -121 -83.5t-174 -30.5q-110 0 -191.5 43.5zM257 814q0 17 13 33l105 126q19 22 45 22t45 -22l105 -126q13 -16 13 -33q0 -19 -18 -34q-14 -10 -28 -10q-21 0 -41 24l-76 104l-76 -104
q-20 -24 -41 -24q-14 0 -27 10q-19 15 -19 34z" />
    <glyph glyph-name="Cdotaccent" unicode="&#x10a;" horiz-adv-x="764" 
d="M217.5 33.5q-81.5 43.5 -125 124.5t-43.5 191t43.5 191.5t124.5 125.5t191 44q90 0 167 -31t116 -84q11 -16 11 -29q0 -22 -23 -39q-13 -8 -27 -8q-13 0 -25.5 6t-21.5 16q-33 40 -81.5 59t-115.5 19q-115 0 -179.5 -71.5t-64.5 -198.5q0 -125 65 -196.5t180 -71.5
q136 0 209 78q24 24 49 24q16 0 29 -10q20 -17 20 -37q0 -17 -12 -32q-43 -53 -121 -83.5t-174 -30.5q-110 0 -191.5 43.5zM368.5 804.5q-20.5 19.5 -20.5 47.5t20.5 47.5t51.5 19.5q30 0 50.5 -19.5t20.5 -47.5t-20.5 -47.5t-50.5 -19.5q-31 0 -51.5 19.5z" />
    <glyph glyph-name="D" unicode="D" horiz-adv-x="760" 
d="M103.5 37.5q-39.5 37.5 -39.5 104.5v419q0 65 38 102t106 37h140q112 0 193.5 -42.5t125.5 -121.5t44 -187t-43.5 -186.5t-125.5 -120.5t-194 -42h-134q-71 0 -110.5 37.5zM338 89q128 0 192.5 65.5t64.5 194.5t-65 195.5t-192 66.5h-114q-22 0 -34 -14t-12 -38v-418
q0 -24 12 -38t34 -14h114z" />
    <glyph glyph-name="Eth" unicode="&#xd0;" horiz-adv-x="819" 
d="M167.5 37.5q-39.5 37.5 -39.5 104.5v164h-45q-26 0 -41.5 11.5t-15.5 31.5q0 22 15 34t42 12h45v166q0 65 38.5 102t106.5 37h140q111 0 192.5 -42.5t125.5 -121.5t44 -187t-43.5 -186.5t-125 -120.5t-193.5 -42h-135q-71 0 -110.5 37.5zM403 89q128 0 192.5 65.5
t64.5 194.5t-65 195.5t-192 66.5h-114q-22 0 -34.5 -14t-12.5 -38v-164h158q27 0 42 -12t15 -34q0 -20 -15.5 -31.5t-41.5 -11.5h-158v-165q0 -24 12.5 -38t34.5 -14h114z" />
    <glyph glyph-name="Dcaron" unicode="&#x10e;" horiz-adv-x="760" 
d="M103.5 37.5q-39.5 37.5 -39.5 104.5v419q0 65 38 102t106 37h140q112 0 193.5 -42.5t125.5 -121.5t44 -187t-43.5 -186.5t-125.5 -120.5t-194 -42h-134q-71 0 -110.5 37.5zM338 89q128 0 192.5 65.5t64.5 194.5t-65 195.5t-192 66.5h-114q-22 0 -34 -14t-12 -38v-418
q0 -24 12 -38t34 -14h114zM313 791l-105 127q-13 16 -13 32q0 19 19 34q14 11 28 11q21 0 40 -25l76 -104l76 104q19 25 41 25q14 0 27 -10q20 -15 20 -35q0 -16 -14 -33l-105 -126q-19 -21 -45 -21t-45 21z" />
    <glyph glyph-name="Dcroat" unicode="&#x110;" horiz-adv-x="819" 
d="M167.5 37.5q-39.5 37.5 -39.5 104.5v164h-45q-26 0 -41.5 11.5t-15.5 31.5q0 22 15 34t42 12h45v166q0 65 38.5 102t106.5 37h140q111 0 192.5 -42.5t125.5 -121.5t44 -187t-43.5 -186.5t-125 -120.5t-193.5 -42h-135q-71 0 -110.5 37.5zM403 89q128 0 192.5 65.5
t64.5 194.5t-65 195.5t-192 66.5h-114q-22 0 -34.5 -14t-12.5 -38v-164h158q27 0 42 -12t15 -34q0 -20 -15.5 -31.5t-41.5 -11.5h-158v-165q0 -24 12.5 -38t34.5 -14h114z" />
    <glyph glyph-name="uni1E0C" unicode="&#x1e0c;" horiz-adv-x="760" 
d="M103.5 37.5q-39.5 37.5 -39.5 104.5v419q0 65 38 102t106 37h140q112 0 193.5 -42.5t125.5 -121.5t44 -187t-43.5 -186.5t-125.5 -120.5t-194 -42h-134q-71 0 -110.5 37.5zM338 89q128 0 192.5 65.5t64.5 194.5t-65 195.5t-192 66.5h-114q-22 0 -34 -14t-12 -38v-418
q0 -24 12 -38t34 -14h114zM328.5 -182.5q-19.5 18.5 -19.5 47.5q0 31 19.5 49t52.5 18q32 0 51.5 -18t19.5 -49q0 -29 -19.5 -47.5t-51.5 -18.5q-33 0 -52.5 18.5z" />
    <glyph glyph-name="uni1E0E" unicode="&#x1e0e;" horiz-adv-x="760" 
d="M103.5 37.5q-39.5 37.5 -39.5 104.5v419q0 65 38 102t106 37h140q112 0 193.5 -42.5t125.5 -121.5t44 -187t-43.5 -186.5t-125.5 -120.5t-194 -42h-134q-71 0 -110.5 37.5zM338 89q128 0 192.5 65.5t64.5 194.5t-65 195.5t-192 66.5h-114q-22 0 -34 -14t-12 -38v-418
q0 -24 12 -38t34 -14h114zM208 -121q0 20 11.5 28.5t35.5 8.5h252q24 0 35.5 -8.5t11.5 -28.5q0 -35 -47 -35h-252q-47 0 -47 35z" />
    <glyph glyph-name="E" unicode="E" horiz-adv-x="644" 
d="M103.5 37.5q-39.5 37.5 -39.5 104.5v419q0 65 38 102t106 37h311q26 0 40 -11.5t14 -33.5q0 -21 -14 -32.5t-40 -11.5h-295q-22 0 -34 -14t-12 -38v-157h265q26 0 40 -11.5t14 -33.5q0 -21 -14 -32.5t-40 -11.5h-265v-172q0 -24 12 -38t34 -14h317q26 0 40 -11.5
t14 -33.5q0 -21 -14 -32.5t-40 -11.5h-327q-71 0 -110.5 37.5z" />
    <glyph glyph-name="Eacute" unicode="&#xc9;" horiz-adv-x="644" 
d="M103.5 37.5q-39.5 37.5 -39.5 104.5v419q0 65 38 102t106 37h311q26 0 40 -11.5t14 -33.5q0 -21 -14 -32.5t-40 -11.5h-295q-22 0 -34 -14t-12 -38v-157h265q26 0 40 -11.5t14 -33.5q0 -21 -14 -32.5t-40 -11.5h-265v-172q0 -24 12 -38t34 -14h317q26 0 40 -11.5
t14 -33.5q0 -21 -14 -32.5t-40 -11.5h-327q-71 0 -110.5 37.5zM314.5 792q-5.5 9 -5.5 19q0 8 3 15l59 145q15 36 44 36q14 0 28 -7q32 -17 32 -41q0 -11 -8 -25l-80 -139q-6 -10 -16.5 -16t-21.5 -6q-9 0 -19 5t-15.5 14z" />
    <glyph glyph-name="Ebreve" unicode="&#x114;" horiz-adv-x="644" 
d="M103.5 37.5q-39.5 37.5 -39.5 104.5v419q0 65 38 102t106 37h311q26 0 40 -11.5t14 -33.5q0 -21 -14 -32.5t-40 -11.5h-295q-22 0 -34 -14t-12 -38v-157h265q26 0 40 -11.5t14 -33.5q0 -21 -14 -32.5t-40 -11.5h-265v-172q0 -24 12 -38t34 -14h317q26 0 40 -11.5
t14 -33.5q0 -21 -14 -32.5t-40 -11.5h-327q-71 0 -110.5 37.5zM208.5 817q-48.5 45 -48.5 118q0 25 13.5 38t38.5 13t38.5 -13t13.5 -38q0 -39 19.5 -60.5t56.5 -21.5t56.5 21.5t19.5 60.5q0 24 13.5 37.5t38.5 13.5t38.5 -13t13.5 -38q0 -73 -48.5 -118t-131.5 -45
t-131.5 45z" />
    <glyph glyph-name="Ecaron" unicode="&#x11a;" horiz-adv-x="644" 
d="M103.5 37.5q-39.5 37.5 -39.5 104.5v419q0 65 38 102t106 37h311q26 0 40 -11.5t14 -33.5q0 -21 -14 -32.5t-40 -11.5h-295q-22 0 -34 -14t-12 -38v-157h265q26 0 40 -11.5t14 -33.5q0 -21 -14 -32.5t-40 -11.5h-265v-172q0 -24 12 -38t34 -14h317q26 0 40 -11.5
t14 -33.5q0 -21 -14 -32.5t-40 -11.5h-327q-71 0 -110.5 37.5zM296 791l-105 127q-13 16 -13 32q0 19 19 34q14 11 28 11q21 0 40 -25l76 -104l76 104q19 25 41 25q14 0 27 -10q20 -15 20 -35q0 -16 -14 -33l-105 -126q-19 -21 -45 -21t-45 21z" />
    <glyph glyph-name="Ecircumflex" unicode="&#xca;" horiz-adv-x="644" 
d="M103.5 37.5q-39.5 37.5 -39.5 104.5v419q0 65 38 102t106 37h311q26 0 40 -11.5t14 -33.5q0 -21 -14 -32.5t-40 -11.5h-295q-22 0 -34 -14t-12 -38v-157h265q26 0 40 -11.5t14 -33.5q0 -21 -14 -32.5t-40 -11.5h-265v-172q0 -24 12 -38t34 -14h317q26 0 40 -11.5
t14 -33.5q0 -21 -14 -32.5t-40 -11.5h-327q-71 0 -110.5 37.5zM178 814q0 17 13 33l105 126q19 22 45 22t45 -22l105 -126q13 -16 13 -33q0 -19 -18 -34q-14 -10 -28 -10q-22 0 -41 24l-76 104l-76 -104q-18 -24 -41 -24q-14 0 -27 10q-19 15 -19 34z" />
    <glyph glyph-name="uni1EBE" unicode="&#x1ebe;" horiz-adv-x="644" 
d="M103.5 37.5q-39.5 37.5 -39.5 104.5v419q0 65 38 102t106 37h311q26 0 40 -11.5t14 -33.5q0 -21 -14 -32.5t-40 -11.5h-295q-22 0 -34 -14t-12 -38v-157h265q26 0 40 -11.5t14 -33.5q0 -21 -14 -32.5t-40 -11.5h-265v-172q0 -24 12 -38t34 -14h317q26 0 40 -11.5
t14 -33.5q0 -21 -14 -32.5t-40 -11.5h-327q-71 0 -110.5 37.5zM429 969q0 11 6 21l63 106q14 26 41 26q14 0 29 -10q20 -13 20 -36q0 -15 -10 -28l-82 -97q-14 -16 -31 -16q-12 0 -22 7q-14 11 -14 27zM177 814q0 16 14 32l105 115q19 21 45 21t45 -21l105 -115
q14 -16 14 -32q0 -20 -20 -35q-11 -10 -26 -10q-21 0 -42 25l-76 92l-76 -93q-20 -24 -42 -24q-13 0 -26 10q-20 15 -20 35z" />
    <glyph glyph-name="uni1EC6" unicode="&#x1ec6;" horiz-adv-x="644" 
d="M103.5 37.5q-39.5 37.5 -39.5 104.5v419q0 65 38 102t106 37h311q26 0 40 -11.5t14 -33.5q0 -21 -14 -32.5t-40 -11.5h-295q-22 0 -34 -14t-12 -38v-157h265q26 0 40 -11.5t14 -33.5q0 -21 -14 -32.5t-40 -11.5h-265v-172q0 -24 12 -38t34 -14h317q26 0 40 -11.5
t14 -33.5q0 -21 -14 -32.5t-40 -11.5h-327q-71 0 -110.5 37.5zM299.5 -182.5q-19.5 18.5 -19.5 47.5q0 31 19.5 49t52.5 18q32 0 51.5 -18t19.5 -49q0 -29 -19.5 -47.5t-51.5 -18.5q-33 0 -52.5 18.5zM178 814q0 17 13 33l105 126q19 22 45 22t45 -22l105 -126
q13 -16 13 -33q0 -19 -18 -34q-14 -10 -28 -10q-22 0 -41 24l-76 104l-76 -104q-18 -24 -41 -24q-14 0 -27 10q-19 15 -19 34z" />
    <glyph glyph-name="uni1EC0" unicode="&#x1ec0;" horiz-adv-x="644" 
d="M103.5 37.5q-39.5 37.5 -39.5 104.5v419q0 65 38 102t106 37h311q26 0 40 -11.5t14 -33.5q0 -21 -14 -32.5t-40 -11.5h-295q-22 0 -34 -14t-12 -38v-157h265q26 0 40 -11.5t14 -33.5q0 -21 -14 -32.5t-40 -11.5h-265v-172q0 -24 12 -38t34 -14h317q26 0 40 -11.5
t14 -33.5q0 -21 -14 -32.5t-40 -11.5h-327q-71 0 -110.5 37.5zM490 935q-17 0 -31 16l-82 97q-10 13 -10 28q0 24 20 37q13 9 28 9q28 0 42 -26l63 -106q6 -10 6 -22q0 -16 -14 -26q-10 -7 -22 -7zM177 814q0 16 14 32l105 115q19 21 45 21t45 -21l105 -115q14 -16 14 -32
q0 -20 -20 -35q-11 -10 -26 -10q-21 0 -42 25l-76 92l-76 -93q-20 -24 -42 -24q-13 0 -26 10q-20 15 -20 35z" />
    <glyph glyph-name="uni1EC2" unicode="&#x1ec2;" horiz-adv-x="644" 
d="M103.5 37.5q-39.5 37.5 -39.5 104.5v419q0 65 38 102t106 37h311q26 0 40 -11.5t14 -33.5q0 -21 -14 -32.5t-40 -11.5h-295q-22 0 -34 -14t-12 -38v-157h265q26 0 40 -11.5t14 -33.5q0 -21 -14 -32.5t-40 -11.5h-265v-172q0 -24 12 -38t34 -14h317q26 0 40 -11.5
t14 -33.5q0 -21 -14 -32.5t-40 -11.5h-327q-71 0 -110.5 37.5zM439 932.5q-11 7.5 -11 22.5v5q0 15 9 26.5t26 25.5q14 13 19.5 19.5t5.5 14.5q0 10 -7 16t-19 6q-22 0 -41 -21q-10 -12 -25 -12q-10 0 -20 7q-13 10 -13 23q0 10 6 17q15 21 42.5 34.5t64.5 13.5q50 0 75 -20
t25 -53q0 -19 -10 -32.5t-28 -28.5q-13 -10 -19.5 -18t-6.5 -17v-6q0 -15 -11.5 -22.5t-30.5 -7.5q-20 0 -31 7.5zM177 814q0 16 14 32l105 115q19 21 45 21t45 -21l105 -115q14 -16 14 -32q0 -20 -20 -35q-11 -10 -26 -10q-21 0 -42 25l-76 92l-76 -93q-20 -24 -42 -24
q-13 0 -26 10q-20 15 -20 35z" />
    <glyph glyph-name="uni1EC4" unicode="&#x1ec4;" horiz-adv-x="644" 
d="M103.5 37.5q-39.5 37.5 -39.5 104.5v419q0 65 38 102t106 37h311q26 0 40 -11.5t14 -33.5q0 -21 -14 -32.5t-40 -11.5h-295q-22 0 -34 -14t-12 -38v-157h265q26 0 40 -11.5t14 -33.5q0 -21 -14 -32.5t-40 -11.5h-265v-172q0 -24 12 -38t34 -14h317q26 0 40 -11.5
t14 -33.5q0 -21 -14 -32.5t-40 -11.5h-327q-71 0 -110.5 37.5zM171 1025q0 8 3 18q13 36 38.5 56.5t63.5 20.5q25 0 45.5 -8.5t45.5 -24.5q17 -11 27 -16t20 -5q14 0 23 8t16 25q11 27 33 27q18 0 28 -8.5t10 -22.5q0 -10 -4 -19q-29 -78 -102 -78q-23 0 -41 8t-40 23
q-19 12 -31 17.5t-25 5.5t-22 -7.5t-17 -24.5q-12 -28 -33 -28q-6 0 -15 3q-23 6 -23 30zM178 814q0 16 14 32l105 115q19 22 45 22q27 0 44 -22l106 -115q13 -14 13 -31q0 -22 -19 -35q-14 -11 -27 -11q-21 0 -41 25l-76 92l-76 -92q-20 -25 -41 -25q-14 0 -28 11
q-19 14 -19 34z" />
    <glyph glyph-name="Edieresis" unicode="&#xcb;" horiz-adv-x="644" 
d="M103.5 37.5q-39.5 37.5 -39.5 104.5v419q0 65 38 102t106 37h311q26 0 40 -11.5t14 -33.5q0 -21 -14 -32.5t-40 -11.5h-295q-22 0 -34 -14t-12 -38v-157h265q26 0 40 -11.5t14 -33.5q0 -21 -14 -32.5t-40 -11.5h-265v-172q0 -24 12 -38t34 -14h317q26 0 40 -11.5
t14 -33.5q0 -21 -14 -32.5t-40 -11.5h-327q-71 0 -110.5 37.5zM183.5 810q-18.5 18 -18.5 44t18 44.5t46 18.5q27 0 45 -18t18 -45q0 -25 -18 -43.5t-45 -18.5t-45.5 18zM409.5 810q-18.5 18 -18.5 44t18 44.5t46 18.5t46 -18t18 -45q0 -25 -18.5 -43.5t-45.5 -18.5
t-45.5 18z" />
    <glyph glyph-name="Edotaccent" unicode="&#x116;" horiz-adv-x="644" 
d="M103.5 37.5q-39.5 37.5 -39.5 104.5v419q0 65 38 102t106 37h311q26 0 40 -11.5t14 -33.5q0 -21 -14 -32.5t-40 -11.5h-295q-22 0 -34 -14t-12 -38v-157h265q26 0 40 -11.5t14 -33.5q0 -21 -14 -32.5t-40 -11.5h-265v-172q0 -24 12 -38t34 -14h317q26 0 40 -11.5
t14 -33.5q0 -21 -14 -32.5t-40 -11.5h-327q-71 0 -110.5 37.5zM289.5 804.5q-20.5 19.5 -20.5 47.5t20.5 47.5t51.5 19.5q30 0 50.5 -19.5t20.5 -47.5t-20.5 -47.5t-50.5 -19.5q-31 0 -51.5 19.5z" />
    <glyph glyph-name="uni1EB8" unicode="&#x1eb8;" horiz-adv-x="644" 
d="M103.5 37.5q-39.5 37.5 -39.5 104.5v419q0 65 38 102t106 37h311q26 0 40 -11.5t14 -33.5q0 -21 -14 -32.5t-40 -11.5h-295q-22 0 -34 -14t-12 -38v-157h265q26 0 40 -11.5t14 -33.5q0 -21 -14 -32.5t-40 -11.5h-265v-172q0 -24 12 -38t34 -14h317q26 0 40 -11.5
t14 -33.5q0 -21 -14 -32.5t-40 -11.5h-327q-71 0 -110.5 37.5zM299.5 -182.5q-19.5 18.5 -19.5 47.5q0 31 19.5 49t52.5 18q32 0 51.5 -18t19.5 -49q0 -29 -19.5 -47.5t-51.5 -18.5q-33 0 -52.5 18.5z" />
    <glyph glyph-name="Egrave" unicode="&#xc8;" horiz-adv-x="644" 
d="M103.5 37.5q-39.5 37.5 -39.5 104.5v419q0 65 38 102t106 37h311q26 0 40 -11.5t14 -33.5q0 -21 -14 -32.5t-40 -11.5h-295q-22 0 -34 -14t-12 -38v-157h265q26 0 40 -11.5t14 -33.5q0 -21 -14 -32.5t-40 -11.5h-265v-172q0 -24 12 -38t34 -14h317q26 0 40 -11.5
t14 -33.5q0 -21 -14 -32.5t-40 -11.5h-327q-71 0 -110.5 37.5zM331.5 779q-10.5 6 -16.5 16l-80 139q-8 13 -8 25q0 24 32 41q14 7 28 7q30 0 45 -36l58 -145q3 -7 3 -15q0 -15 -10.5 -26.5t-29.5 -11.5q-11 0 -21.5 6z" />
    <glyph glyph-name="uni1EBA" unicode="&#x1eba;" horiz-adv-x="644" 
d="M103.5 37.5q-39.5 37.5 -39.5 104.5v419q0 65 38 102t106 37h311q26 0 40 -11.5t14 -33.5q0 -21 -14 -32.5t-40 -11.5h-295q-22 0 -34 -14t-12 -38v-157h265q26 0 40 -11.5t14 -33.5q0 -21 -14 -32.5t-40 -11.5h-265v-172q0 -24 12 -38t34 -14h317q26 0 40 -11.5
t14 -33.5q0 -21 -14 -32.5t-40 -11.5h-327q-71 0 -110.5 37.5zM306 763q-13 9 -13 25v6q0 17 10.5 30.5t29.5 28.5q15 13 21.5 20.5t6.5 16.5q0 12 -7.5 18.5t-21.5 6.5q-27 0 -47 -25q-11 -12 -26 -12q-13 0 -24 8q-16 10 -16 25q0 9 7 19q17 24 49 39.5t74 15.5
q56 0 85 -23t29 -60q0 -21 -11.5 -36t-32.5 -32q-15 -13 -22 -21.5t-7 -17.5v-7q0 -16 -13 -25t-36 -9q-22 0 -35 9z" />
    <glyph glyph-name="Emacron" unicode="&#x112;" horiz-adv-x="644" 
d="M103.5 37.5q-39.5 37.5 -39.5 104.5v419q0 65 38 102t106 37h311q26 0 40 -11.5t14 -33.5q0 -21 -14 -32.5t-40 -11.5h-295q-22 0 -34 -14t-12 -38v-157h265q26 0 40 -11.5t14 -33.5q0 -21 -14 -32.5t-40 -11.5h-265v-172q0 -24 12 -38t34 -14h317q26 0 40 -11.5
t14 -33.5q0 -21 -14 -32.5t-40 -11.5h-327q-71 0 -110.5 37.5zM166 814q0 20 11.5 28t35.5 8h252q24 0 35.5 -8t11.5 -28q0 -35 -47 -35h-252q-47 0 -47 35z" />
    <glyph glyph-name="Eogonek" unicode="&#x118;" horiz-adv-x="644" 
d="M602 -144q0 -12 -13 -25q-39 -39 -99 -39q-54 0 -88.5 24t-34.5 71q0 31 13.5 57.5t41.5 55.5h-208q-71 0 -110.5 37.5t-39.5 104.5v419q0 65 38 102t106 37h311q26 0 40 -11.5t14 -33.5q0 -21 -14 -32.5t-40 -11.5h-295q-22 0 -34 -14t-12 -38v-157h265q26 0 40 -11.5
t14 -33.5q0 -21 -14 -32.5t-40 -11.5h-265v-172q0 -24 12 -38t34 -14h317q26 0 40 -11.5t14 -33.5q0 -21 -14 -32.5t-40 -11.5h-5l-4 -4q-7 -6 -31.5 -26.5t-33.5 -36.5t-9 -35q0 -17 12 -26t29 -9q28 0 47 16q13 11 23 11q11 0 21 -10q12 -12 12 -24z" />
    <glyph glyph-name="uni1EBC" unicode="&#x1ebc;" horiz-adv-x="644" 
d="M103.5 37.5q-39.5 37.5 -39.5 104.5v419q0 65 38 102t106 37h311q26 0 40 -11.5t14 -33.5q0 -21 -14 -32.5t-40 -11.5h-295q-22 0 -34 -14t-12 -38v-157h265q26 0 40 -11.5t14 -33.5q0 -21 -14 -32.5t-40 -11.5h-265v-172q0 -24 12 -38t34 -14h317q26 0 40 -11.5
t14 -33.5q0 -21 -14 -32.5t-40 -11.5h-327q-71 0 -110.5 37.5zM165 806.5q-11 9.5 -11 24.5q0 10 4 19q32 82 108 82q26 0 47 -9t47 -26q17 -11 28 -16.5t22 -5.5q15 0 24 8.5t17 27.5q13 28 37 28q17 0 28 -9.5t11 -24.5q0 -10 -4 -19q-32 -82 -108 -82q-25 0 -43.5 8
t-42.5 24q-18 13 -31 19t-27 6q-15 0 -24 -8t-17 -27q-13 -29 -36 -29q-18 0 -29 9.5z" />
    <glyph glyph-name="F" unicode="F" horiz-adv-x="616" 
d="M79 4q-15 14 -15 39v518q0 65 38 102t106 37h311q26 0 40 -11.5t14 -33.5q0 -21 -14 -32.5t-40 -11.5h-295q-22 0 -34 -14t-12 -38v-167h265q26 0 40 -11.5t14 -33.5q0 -21 -14 -32.5t-40 -11.5h-265v-260q0 -24 -16 -38.5t-42 -14.5t-41 14z" />
    <glyph glyph-name="G" unicode="G" horiz-adv-x="779" 
d="M217.5 33.5q-81.5 43.5 -125 124.5t-43.5 191t43.5 191.5t125 125.5t191.5 44q90 0 167 -31t116 -83q10 -14 10 -30q0 -23 -22 -39q-13 -8 -27 -8q-13 0 -25.5 6t-21.5 16q-33 39 -81.5 58.5t-115.5 19.5q-115 0 -180.5 -71.5t-65.5 -198.5q0 -126 65.5 -197t181.5 -71
q95 0 150.5 39t55.5 106v26q0 23 -9.5 32t-35.5 9h-138q-25 0 -38.5 11.5t-13.5 32.5q0 22 13.5 34t38.5 12h185q57 0 84.5 -25t27.5 -77v-39q0 -73 -41 -130t-114 -89.5t-165 -32.5q-111 0 -192.5 43.5z" />
    <glyph glyph-name="Gbreve" unicode="&#x11e;" horiz-adv-x="779" 
d="M217.5 33.5q-81.5 43.5 -125 124.5t-43.5 191t43.5 191.5t125 125.5t191.5 44q90 0 167 -31t116 -83q10 -14 10 -30q0 -23 -22 -39q-13 -8 -27 -8q-13 0 -25.5 6t-21.5 16q-33 39 -81.5 58.5t-115.5 19.5q-115 0 -180.5 -71.5t-65.5 -198.5q0 -126 65.5 -197t181.5 -71
q95 0 150.5 39t55.5 106v26q0 23 -9.5 32t-35.5 9h-138q-25 0 -38.5 11.5t-13.5 32.5q0 22 13.5 34t38.5 12h185q57 0 84.5 -25t27.5 -77v-39q0 -73 -41 -130t-114 -89.5t-165 -32.5q-111 0 -192.5 43.5zM271.5 817q-48.5 45 -48.5 118q0 25 13.5 38t38.5 13t38.5 -13
t13.5 -38q0 -39 19.5 -60.5t56.5 -21.5t56.5 21.5t19.5 60.5q0 24 13.5 37.5t38.5 13.5t38.5 -13t13.5 -38q0 -73 -48.5 -118t-131.5 -45t-131.5 45z" />
    <glyph glyph-name="Gcaron" unicode="&#x1e6;" horiz-adv-x="779" 
d="M217.5 33.5q-81.5 43.5 -125 124.5t-43.5 191t43.5 191.5t125 125.5t191.5 44q90 0 167 -31t116 -83q10 -14 10 -30q0 -23 -22 -39q-13 -8 -27 -8q-13 0 -25.5 6t-21.5 16q-33 39 -81.5 58.5t-115.5 19.5q-115 0 -180.5 -71.5t-65.5 -198.5q0 -126 65.5 -197t181.5 -71
q95 0 150.5 39t55.5 106v26q0 23 -9.5 32t-35.5 9h-138q-25 0 -38.5 11.5t-13.5 32.5q0 22 13.5 34t38.5 12h185q57 0 84.5 -25t27.5 -77v-39q0 -73 -41 -130t-114 -89.5t-165 -32.5q-111 0 -192.5 43.5zM359 791l-105 127q-13 16 -13 32q0 19 19 34q14 11 28 11
q21 0 40 -25l76 -104l76 104q19 25 41 25q14 0 27 -10q20 -15 20 -35q0 -16 -14 -33l-105 -126q-19 -21 -45 -21t-45 21z" />
    <glyph glyph-name="Gcircumflex" unicode="&#x11c;" horiz-adv-x="779" 
d="M217.5 33.5q-81.5 43.5 -125 124.5t-43.5 191t43.5 191.5t125 125.5t191.5 44q90 0 167 -31t116 -83q10 -14 10 -30q0 -23 -22 -39q-13 -8 -27 -8q-13 0 -25.5 6t-21.5 16q-33 39 -81.5 58.5t-115.5 19.5q-115 0 -180.5 -71.5t-65.5 -198.5q0 -126 65.5 -197t181.5 -71
q95 0 150.5 39t55.5 106v26q0 23 -9.5 32t-35.5 9h-138q-25 0 -38.5 11.5t-13.5 32.5q0 22 13.5 34t38.5 12h185q57 0 84.5 -25t27.5 -77v-39q0 -73 -41 -130t-114 -89.5t-165 -32.5q-111 0 -192.5 43.5zM241 814q0 17 13 33l105 126q19 22 45 22t45 -22l105 -126
q13 -16 13 -33q0 -19 -18 -34q-14 -10 -28 -10q-22 0 -41 24l-76 104l-76 -104q-18 -24 -41 -24q-14 0 -27 10q-19 15 -19 34z" />
    <glyph glyph-name="uni0122" unicode="&#x122;" horiz-adv-x="779" 
d="M217.5 33.5q-81.5 43.5 -125 124.5t-43.5 191t43.5 191.5t125 125.5t191.5 44q90 0 167 -31t116 -83q10 -14 10 -30q0 -23 -22 -39q-13 -8 -27 -8q-13 0 -25.5 6t-21.5 16q-33 39 -81.5 58.5t-115.5 19.5q-115 0 -180.5 -71.5t-65.5 -198.5q0 -126 65.5 -197t181.5 -71
q95 0 150.5 39t55.5 106v26q0 23 -9.5 32t-35.5 9h-138q-25 0 -38.5 11.5t-13.5 32.5q0 22 13.5 34t38.5 12h185q57 0 84.5 -25t27.5 -77v-39q0 -73 -41 -130t-114 -89.5t-165 -32.5q-111 0 -192.5 43.5zM327 -293q0 15 19 32q35 34 43 67q-27 -2 -45.5 14.5t-18.5 43.5
q0 32 21.5 50t55.5 18q37 0 58 -22.5t21 -62.5q0 -35 -23.5 -75t-61.5 -70q-23 -19 -41 -19q-11 0 -21 9q-7 7 -7 15z" />
    <glyph glyph-name="Gdotaccent" unicode="&#x120;" horiz-adv-x="779" 
d="M217.5 33.5q-81.5 43.5 -125 124.5t-43.5 191t43.5 191.5t125 125.5t191.5 44q90 0 167 -31t116 -83q10 -14 10 -30q0 -23 -22 -39q-13 -8 -27 -8q-13 0 -25.5 6t-21.5 16q-33 39 -81.5 58.5t-115.5 19.5q-115 0 -180.5 -71.5t-65.5 -198.5q0 -126 65.5 -197t181.5 -71
q95 0 150.5 39t55.5 106v26q0 23 -9.5 32t-35.5 9h-138q-25 0 -38.5 11.5t-13.5 32.5q0 22 13.5 34t38.5 12h185q57 0 84.5 -25t27.5 -77v-39q0 -73 -41 -130t-114 -89.5t-165 -32.5q-111 0 -192.5 43.5zM352.5 804.5q-20.5 19.5 -20.5 47.5t20.5 47.5t51.5 19.5
q30 0 50.5 -19.5t20.5 -47.5t-20.5 -47.5t-50.5 -19.5q-31 0 -51.5 19.5z" />
    <glyph glyph-name="uni1E20" unicode="&#x1e20;" horiz-adv-x="779" 
d="M217.5 33.5q-81.5 43.5 -125 124.5t-43.5 191t43.5 191.5t125 125.5t191.5 44q90 0 167 -31t116 -83q10 -14 10 -30q0 -23 -22 -39q-13 -8 -27 -8q-13 0 -25.5 6t-21.5 16q-33 39 -81.5 58.5t-115.5 19.5q-115 0 -180.5 -71.5t-65.5 -198.5q0 -126 65.5 -197t181.5 -71
q95 0 150.5 39t55.5 106v26q0 23 -9.5 32t-35.5 9h-138q-25 0 -38.5 11.5t-13.5 32.5q0 22 13.5 34t38.5 12h185q57 0 84.5 -25t27.5 -77v-39q0 -73 -41 -130t-114 -89.5t-165 -32.5q-111 0 -192.5 43.5zM229 814q0 20 11.5 28t35.5 8h252q24 0 35.5 -8t11.5 -28
q0 -35 -47 -35h-252q-47 0 -47 35z" />
    <glyph glyph-name="H" unicode="H" horiz-adv-x="740" 
d="M79 4q-15 14 -15 39v614q0 25 15 39t41 14t41.5 -14.5t15.5 -38.5v-253h386v253q0 24 15.5 38.5t41.5 14.5t41.5 -14t15.5 -39v-614q0 -25 -15.5 -39t-41.5 -14t-41.5 14.5t-15.5 38.5v272h-386v-272q0 -24 -15.5 -38.5t-41.5 -14.5t-41 14z" />
    <glyph glyph-name="Hbar" unicode="&#x126;" horiz-adv-x="829" 
d="M808 539q0 -22 -14 -33t-39 -11h-34v-452q0 -25 -15 -39t-41 -14t-42 14.5t-16 38.5v272h-385v-272q0 -24 -16 -38.5t-42 -14.5t-41 14t-15 39v452h-34q-25 0 -39 11t-14 33q0 44 53 44h34v74q0 25 15 39t41 14t42 -14.5t16 -38.5v-74h385v74q0 24 16 38.5t42 14.5
t41 -14t15 -39v-74h34q53 0 53 -44zM607 495h-385v-91h385v91z" />
    <glyph glyph-name="uni1E2A" unicode="&#x1e2a;" horiz-adv-x="740" 
d="M79 4q-15 14 -15 39v614q0 25 15 39t41 14t41.5 -14.5t15.5 -38.5v-253h386v253q0 24 15.5 38.5t41.5 14.5t41.5 -14t15.5 -39v-614q0 -25 -15.5 -39t-41.5 -14t-41.5 14.5t-15.5 38.5v272h-386v-272q0 -24 -15.5 -38.5t-41.5 -14.5t-41 14zM255 -233.5
q-46 40.5 -46 108.5q0 24 13 37.5t36 13.5q25 0 35.5 -12.5t10.5 -38.5q0 -33 21 -53t58 -20t57.5 19.5t20.5 53.5q0 26 11 38.5t36 12.5q23 0 35.5 -13.5t12.5 -37.5q0 -68 -45.5 -108.5t-127.5 -40.5t-128 40.5z" />
    <glyph glyph-name="Hcircumflex" unicode="&#x124;" horiz-adv-x="740" 
d="M79 4q-15 14 -15 39v614q0 25 15 39t41 14t41.5 -14.5t15.5 -38.5v-253h386v253q0 24 15.5 38.5t41.5 14.5t41.5 -14t15.5 -39v-614q0 -25 -15.5 -39t-41.5 -14t-41.5 14.5t-15.5 38.5v272h-386v-272q0 -24 -15.5 -38.5t-41.5 -14.5t-41 14zM207 814q0 17 13 33l105 126
q19 22 45 22t45 -22l105 -126q13 -16 13 -33q0 -19 -18 -34q-14 -10 -28 -10q-22 0 -41 24l-76 104l-76 -104q-18 -24 -41 -24q-14 0 -27 10q-19 15 -19 34z" />
    <glyph glyph-name="uni1E24" unicode="&#x1e24;" horiz-adv-x="740" 
d="M79 4q-15 14 -15 39v614q0 25 15 39t41 14t41.5 -14.5t15.5 -38.5v-253h386v253q0 24 15.5 38.5t41.5 14.5t41.5 -14t15.5 -39v-614q0 -25 -15.5 -39t-41.5 -14t-41.5 14.5t-15.5 38.5v272h-386v-272q0 -24 -15.5 -38.5t-41.5 -14.5t-41 14zM329.5 -182.5
q-19.5 18.5 -19.5 47.5q0 31 19.5 49t52.5 18q32 0 51.5 -18t19.5 -49q0 -29 -19.5 -47.5t-51.5 -18.5q-33 0 -52.5 18.5z" />
    <glyph glyph-name="I" unicode="I" horiz-adv-x="302" 
d="M109.5 4q-15.5 14 -15.5 39v614q0 25 15.5 39t41.5 14q25 0 41 -14.5t16 -38.5v-614q0 -24 -16 -38.5t-41 -14.5q-26 0 -41.5 14z" />
    <glyph glyph-name="IJ" unicode="&#x132;" horiz-adv-x="829" 
d="M109.5 4q-15.5 14 -15.5 39v614q0 25 15.5 39t41.5 14t41.5 -14.5t15.5 -38.5v-614q0 -24 -15.5 -38.5t-41.5 -14.5t-41.5 14zM380 20q-66 30 -109 85q-12 15 -12 32q0 20 20 37q15 12 33 12q27 0 45 -26q28 -38 71 -58t98 -20q130 0 130 146v429q0 24 15.5 38.5
t41.5 14.5t41.5 -14.5t15.5 -38.5v-425q0 -72 -30 -127t-85.5 -85t-128.5 -30q-80 0 -146 30z" />
    <glyph glyph-name="Iacute" unicode="&#xcd;" horiz-adv-x="302" 
d="M109.5 4q-15.5 14 -15.5 39v614q0 25 15.5 39t41.5 14q25 0 41 -14.5t16 -38.5v-614q0 -24 -16 -38.5t-41 -14.5q-26 0 -41.5 14zM121.5 792q-5.5 9 -5.5 19q0 8 3 15l59 145q15 36 44 36q14 0 28 -7q32 -17 32 -41q0 -11 -8 -25l-80 -139q-6 -10 -16.5 -16t-21.5 -6
q-9 0 -19 5t-15.5 14z" />
    <glyph glyph-name="Ibreve" unicode="&#x12c;" horiz-adv-x="302" 
d="M109.5 4q-15.5 14 -15.5 39v614q0 25 15.5 39t41.5 14q25 0 41 -14.5t16 -38.5v-614q0 -24 -16 -38.5t-41 -14.5q-26 0 -41.5 14zM15.5 817q-48.5 45 -48.5 118q0 25 13.5 38t38.5 13t38.5 -13t13.5 -38q0 -39 19.5 -60.5t56.5 -21.5t56.5 21.5t19.5 60.5q0 24 13.5 37.5
t38.5 13.5t38.5 -13t13.5 -38q0 -73 -48.5 -118t-131.5 -45t-131.5 45z" />
    <glyph glyph-name="uni01CF" unicode="&#x1cf;" horiz-adv-x="302" 
d="M109.5 4q-15.5 14 -15.5 39v614q0 25 15.5 39t41.5 14q25 0 41 -14.5t16 -38.5v-614q0 -24 -16 -38.5t-41 -14.5q-26 0 -41.5 14zM103 791l-105 127q-13 16 -13 32q0 19 19 34q14 11 28 11q21 0 40 -25l76 -104l76 104q19 25 41 25q14 0 27 -10q20 -15 20 -35
q0 -16 -14 -33l-105 -126q-19 -21 -45 -21t-45 21z" />
    <glyph glyph-name="Icircumflex" unicode="&#xce;" horiz-adv-x="302" 
d="M109.5 4q-15.5 14 -15.5 39v614q0 25 15.5 39t41.5 14q25 0 41 -14.5t16 -38.5v-614q0 -24 -16 -38.5t-41 -14.5q-26 0 -41.5 14zM-15 814q0 17 13 33l105 126q19 22 45 22t45 -22l105 -126q13 -16 13 -33q0 -19 -18 -34q-14 -10 -28 -10q-22 0 -41 24l-76 104l-76 -104
q-18 -24 -41 -24q-14 0 -27 10q-19 15 -19 34z" />
    <glyph glyph-name="Idieresis" unicode="&#xcf;" horiz-adv-x="302" 
d="M109.5 4q-15.5 14 -15.5 39v614q0 25 15.5 39t41.5 14q25 0 41 -14.5t16 -38.5v-614q0 -24 -16 -38.5t-41 -14.5q-26 0 -41.5 14zM-9.5 810q-18.5 18 -18.5 44t18 44.5t46 18.5q27 0 45 -18t18 -45q0 -25 -18 -43.5t-45 -18.5t-45.5 18zM216.5 810q-18.5 18 -18.5 44
t18 44.5t46 18.5t46 -18t18 -45q0 -25 -18.5 -43.5t-45.5 -18.5t-45.5 18z" />
    <glyph glyph-name="Idotaccent" unicode="&#x130;" horiz-adv-x="302" 
d="M109.5 4q-15.5 14 -15.5 39v614q0 25 15.5 39t41.5 14q25 0 41 -14.5t16 -38.5v-614q0 -24 -16 -38.5t-41 -14.5q-26 0 -41.5 14zM96.5 804.5q-20.5 19.5 -20.5 47.5t20.5 47.5t51.5 19.5q30 0 50.5 -19.5t20.5 -47.5t-20.5 -47.5t-50.5 -19.5q-31 0 -51.5 19.5z" />
    <glyph glyph-name="uni1ECA" unicode="&#x1eca;" horiz-adv-x="302" 
d="M109.5 4q-15.5 14 -15.5 39v614q0 25 15.5 39t41.5 14q25 0 41 -14.5t16 -38.5v-614q0 -24 -16 -38.5t-41 -14.5q-26 0 -41.5 14zM95.5 -182.5q-19.5 18.5 -19.5 47.5q0 31 19.5 49t52.5 18q32 0 51.5 -18t19.5 -49q0 -29 -19.5 -47.5t-51.5 -18.5q-33 0 -52.5 18.5z" />
    <glyph glyph-name="Igrave" unicode="&#xcc;" horiz-adv-x="302" 
d="M109.5 4q-15.5 14 -15.5 39v614q0 25 15.5 39t41.5 14q25 0 41 -14.5t16 -38.5v-614q0 -24 -16 -38.5t-41 -14.5q-26 0 -41.5 14zM138.5 779q-10.5 6 -16.5 16l-80 139q-8 13 -8 25q0 24 32 41q14 7 28 7q30 0 45 -36l58 -145q3 -7 3 -15q0 -15 -10.5 -26.5t-29.5 -11.5
q-11 0 -21.5 6z" />
    <glyph glyph-name="uni1EC8" unicode="&#x1ec8;" horiz-adv-x="302" 
d="M109.5 4q-15.5 14 -15.5 39v614q0 25 15.5 39t41.5 14q25 0 41 -14.5t16 -38.5v-614q0 -24 -16 -38.5t-41 -14.5q-26 0 -41.5 14zM112 763q-13 9 -13 25v6q0 17 10.5 30.5t29.5 28.5q15 13 21.5 20.5t6.5 16.5q0 12 -7.5 18.5t-21.5 6.5q-27 0 -47 -25q-11 -12 -26 -12
q-13 0 -24 8q-16 10 -16 25q0 9 7 19q17 24 49 39.5t74 15.5q56 0 85 -23t29 -60q0 -21 -11.5 -36t-32.5 -32q-15 -13 -22 -21.5t-7 -17.5v-7q0 -16 -13 -25t-36 -9q-22 0 -35 9z" />
    <glyph glyph-name="Imacron" unicode="&#x12a;" horiz-adv-x="302" 
d="M109.5 4q-15.5 14 -15.5 39v614q0 25 15.5 39t41.5 14q25 0 41 -14.5t16 -38.5v-614q0 -24 -16 -38.5t-41 -14.5q-26 0 -41.5 14zM-27 814q0 20 11.5 28t35.5 8h252q24 0 35.5 -8t11.5 -28q0 -35 -47 -35h-252q-47 0 -47 35z" />
    <glyph glyph-name="Iogonek" unicode="&#x12e;" horiz-adv-x="302" 
d="M253 -144q0 -12 -13 -25q-39 -39 -99 -39q-54 0 -88.5 24t-34.5 71q0 36 19 68t60 68q-3 9 -3 20v614q0 25 15.5 39t41.5 14q25 0 41 -14.5t16 -38.5v-614q0 -25 -17 -40l-8 -7q-7 -6 -31.5 -26.5t-33.5 -36.5t-9 -35q0 -17 12 -26t29 -9q28 0 47 16q13 11 23 11
q11 0 21 -10q12 -12 12 -24z" />
    <glyph glyph-name="Itilde" unicode="&#x128;" horiz-adv-x="302" 
d="M109.5 4q-15.5 14 -15.5 39v614q0 25 15.5 39t41.5 14q25 0 41 -14.5t16 -38.5v-614q0 -24 -16 -38.5t-41 -14.5q-26 0 -41.5 14zM-28 806.5q-11 9.5 -11 24.5q0 10 4 19q32 82 108 82q26 0 47 -9t47 -26q17 -11 28 -16.5t22 -5.5q15 0 24 8.5t17 27.5q13 28 37 28
q17 0 28 -9.5t11 -24.5q0 -10 -4 -19q-32 -82 -108 -82q-25 0 -43.5 8t-42.5 24q-18 13 -31 19t-27 6q-15 0 -24 -8t-17 -27q-13 -29 -36 -29q-18 0 -29 9.5z" />
    <glyph glyph-name="J" unicode="J" horiz-adv-x="601" 
d="M153 20q-66 30 -109 85q-12 15 -12 31q0 21 20 38q15 12 32 12q26 0 46 -26q28 -38 71 -58t98 -20q129 0 129 146v429q0 25 15.5 39t41.5 14t41.5 -14.5t15.5 -38.5v-425q0 -72 -30 -127t-85 -85t-128 -30q-80 0 -146 30z" />
    <glyph glyph-name="Jcircumflex" unicode="&#x134;" horiz-adv-x="601" 
d="M153 20q-66 30 -109 85q-12 15 -12 31q0 21 20 38q15 12 32 12q26 0 46 -26q28 -38 71 -58t98 -20q129 0 129 146v429q0 25 15.5 39t41.5 14t41.5 -14.5t15.5 -38.5v-425q0 -72 -30 -127t-85 -85t-128 -30q-80 0 -146 30zM322 814q0 17 13 33l105 126q19 22 45 22t45 -22
l105 -126q13 -16 13 -33q0 -19 -18 -34q-14 -10 -28 -10q-22 0 -41 24l-76 104l-76 -104q-18 -24 -41 -24q-14 0 -27 10q-19 15 -19 34z" />
    <glyph glyph-name="K" unicode="K" horiz-adv-x="691" 
d="M536 30q-24 111 -82.5 185.5t-167.5 133.5l-108 -89v-217q0 -24 -15.5 -38.5t-41.5 -14.5t-41.5 14t-15.5 39v614q0 25 15.5 39t41.5 14t41.5 -14.5t15.5 -38.5v-272l356 309q15 14 35 14q22 0 36 -16q16 -16 16 -34q0 -20 -20 -36l-242 -211q123 -61 195 -155t88 -209
q3 -22 -10.5 -39t-34.5 -18q-54 0 -61 40z" />
    <glyph glyph-name="uni0136" unicode="&#x136;" horiz-adv-x="691" 
d="M536 30q-24 111 -82.5 185.5t-167.5 133.5l-108 -89v-217q0 -24 -15.5 -38.5t-41.5 -14.5t-41.5 14t-15.5 39v614q0 25 15.5 39t41.5 14t41.5 -14.5t15.5 -38.5v-272l356 309q15 14 35 14q22 0 36 -16q16 -16 16 -34q0 -20 -20 -36l-242 -211q123 -61 195 -155t88 -209
q3 -22 -10.5 -39t-34.5 -18q-54 0 -61 40zM269 -293q0 15 19 32q35 34 43 67q-27 -2 -45.5 14.5t-18.5 43.5q0 32 21.5 50t55.5 18q37 0 58 -22.5t21 -62.5q0 -35 -23.5 -75t-61.5 -70q-23 -19 -41 -19q-11 0 -21 9q-7 7 -7 15z" />
    <glyph glyph-name="L" unicode="L" horiz-adv-x="636" 
d="M104.5 37.5q-39.5 37.5 -39.5 104.5v515q0 25 15 39t41 14t41.5 -14.5t15.5 -38.5v-516q0 -24 12.5 -38t34.5 -14h324q54 0 54 -45q0 -21 -14 -32.5t-40 -11.5h-335q-70 0 -109.5 37.5z" />
    <glyph glyph-name="Lacute" unicode="&#x139;" horiz-adv-x="624" 
d="M104.5 37.5q-39.5 37.5 -39.5 104.5v515q0 25 15 39t41 14t41.5 -14.5t15.5 -38.5v-516q0 -24 12.5 -38t34.5 -14h324q54 0 54 -45q0 -21 -14 -32.5t-40 -11.5h-335q-70 0 -109.5 37.5zM99.5 792q-5.5 9 -5.5 19q0 8 3 15l59 145q15 36 44 36q14 0 28 -7q32 -17 32 -41
q0 -11 -8 -25l-80 -139q-6 -10 -16.5 -16t-21.5 -6q-9 0 -19 5t-15.5 14z" />
    <glyph glyph-name="Lcaron" unicode="&#x13d;" horiz-adv-x="624" 
d="M104.5 37.5q-39.5 37.5 -39.5 104.5v515q0 25 15 39t41 14t41.5 -14.5t15.5 -38.5v-516q0 -24 12.5 -38t34.5 -14h324q54 0 54 -45q0 -21 -14 -32.5t-40 -11.5h-335q-70 0 -109.5 37.5zM334 480q0 15 21 33q19 15 31 32t14 32q-25 -4 -43.5 13.5t-18.5 44.5q0 32 21 49.5
t56 17.5t56 -23.5t21 -60.5q0 -36 -22 -72.5t-62 -69.5q-24 -21 -45 -21q-14 0 -23 11q-6 8 -6 14z" />
    <glyph glyph-name="uni013B" unicode="&#x13b;" horiz-adv-x="636" 
d="M104.5 37.5q-39.5 37.5 -39.5 104.5v515q0 25 15 39t41 14t41.5 -14.5t15.5 -38.5v-516q0 -24 12.5 -38t34.5 -14h324q54 0 54 -45q0 -21 -14 -32.5t-40 -11.5h-335q-70 0 -109.5 37.5zM233 -293q0 15 19 32q35 34 43 67q-27 -2 -45.5 14.5t-18.5 43.5q0 32 21.5 50
t55.5 18q37 0 58 -22.5t21 -62.5q0 -35 -23.5 -75t-61.5 -70q-23 -19 -41 -19q-11 0 -21 9q-7 7 -7 15z" />
    <glyph glyph-name="Ldot" unicode="&#x13f;" horiz-adv-x="636" 
d="M104.5 37.5q-39.5 37.5 -39.5 104.5v515q0 25 15 39t41 14t41.5 -14.5t15.5 -38.5v-516q0 -24 12.5 -38t34.5 -14h324q54 0 54 -45q0 -21 -14 -32.5t-40 -11.5h-335q-70 0 -109.5 37.5zM314.5 292.5q-21.5 20.5 -21.5 47.5q0 30 21 50.5t53 20.5q30 0 51 -21t21 -50
q0 -27 -21 -47.5t-51 -20.5q-31 0 -52.5 20.5z" />
    <glyph glyph-name="uni1E36" unicode="&#x1e36;" horiz-adv-x="636" 
d="M104.5 37.5q-39.5 37.5 -39.5 104.5v515q0 25 15 39t41 14t41.5 -14.5t15.5 -38.5v-516q0 -24 12.5 -38t34.5 -14h324q54 0 54 -45q0 -21 -14 -32.5t-40 -11.5h-335q-70 0 -109.5 37.5zM257.5 -182.5q-19.5 18.5 -19.5 47.5q0 31 19.5 49t52.5 18q32 0 51.5 -18t19.5 -49
q0 -29 -19.5 -47.5t-51.5 -18.5q-33 0 -52.5 18.5z" />
    <glyph glyph-name="uni1E38" unicode="&#x1e38;" horiz-adv-x="624" 
d="M104.5 37.5q-39.5 37.5 -39.5 104.5v515q0 25 15 39t41 14t41.5 -14.5t15.5 -38.5v-516q0 -24 12.5 -38t34.5 -14h324q54 0 54 -45q0 -21 -14 -32.5t-40 -11.5h-335q-70 0 -109.5 37.5zM257.5 -182.5q-19.5 18.5 -19.5 47.5q0 31 19.5 49t52.5 18q32 0 51.5 -18t19.5 -49
q0 -29 -19.5 -47.5t-51.5 -18.5q-33 0 -52.5 18.5zM-48 814q0 20 11.5 28t35.5 8h252q24 0 35.5 -8t11.5 -28q0 -35 -47 -35h-252q-47 0 -47 35z" />
    <glyph glyph-name="uni1E3A" unicode="&#x1e3a;" horiz-adv-x="636" 
d="M104.5 37.5q-39.5 37.5 -39.5 104.5v515q0 25 15 39t41 14t41.5 -14.5t15.5 -38.5v-516q0 -24 12.5 -38t34.5 -14h324q54 0 54 -45q0 -21 -14 -32.5t-40 -11.5h-335q-70 0 -109.5 37.5zM137 -121q0 20 11.5 28.5t35.5 8.5h252q24 0 35.5 -8.5t11.5 -28.5q0 -35 -47 -35
h-252q-47 0 -47 35z" />
    <glyph glyph-name="Lslash" unicode="&#x141;" horiz-adv-x="711" 
d="M665 77.5q14 -11.5 14 -33.5q0 -21 -14.5 -32.5t-40.5 -11.5h-334q-71 0 -110.5 37.5t-39.5 104.5v158l-36 -26q-15 -10 -29 -10q-11 0 -21.5 5t-17.5 15q-11 14 -11 30q0 22 20 37l95 67v239q0 25 15 39t41 14t42 -14.5t16 -38.5v-158l40 28q15 10 29 10q11 0 21.5 -5
t17.5 -15q11 -16 11 -30q0 -10 -5 -19.5t-15 -16.5l-99 -70v-240q0 -24 12 -38t34 -14h324q27 0 41 -11.5z" />
    <glyph glyph-name="M" unicode="M" horiz-adv-x="987" 
d="M77.5 4q-15.5 14 -15.5 39v426q0 113 64.5 177t176.5 64q57 0 107.5 -29t82.5 -80q32 52 82 80.5t110 28.5q113 0 176.5 -64t63.5 -177v-426q0 -24 -15.5 -38.5t-41.5 -14.5t-41.5 14t-15.5 39v426q0 77 -30.5 113t-99.5 36q-63 0 -97 -39t-34 -110v-426q0 -25 -15.5 -39
t-41.5 -14t-40.5 14t-14.5 39v426q0 70 -35 109.5t-96 39.5q-70 0 -100.5 -36t-30.5 -113v-426q0 -24 -15.5 -38.5t-41.5 -14.5t-41.5 14z" />
    <glyph glyph-name="uni1E42" unicode="&#x1e42;" horiz-adv-x="987" 
d="M77.5 4q-15.5 14 -15.5 39v426q0 113 64.5 177t176.5 64q57 0 107.5 -29t82.5 -80q32 52 82 80.5t110 28.5q113 0 176.5 -64t63.5 -177v-426q0 -24 -15.5 -38.5t-41.5 -14.5t-41.5 14t-15.5 39v426q0 77 -30.5 113t-99.5 36q-63 0 -97 -39t-34 -110v-426q0 -25 -15.5 -39
t-41.5 -14t-40.5 14t-14.5 39v426q0 70 -35 109.5t-96 39.5q-70 0 -100.5 -36t-30.5 -113v-426q0 -24 -15.5 -38.5t-41.5 -14.5t-41.5 14zM446.5 -182.5q-19.5 18.5 -19.5 47.5q0 31 19.5 49t52.5 18q32 0 51.5 -18t19.5 -49q0 -29 -19.5 -47.5t-51.5 -18.5
q-33 0 -52.5 18.5z" />
    <glyph glyph-name="N" unicode="N" horiz-adv-x="729" 
d="M74 4q-15 14 -15 39v388q0 131 81.5 205t224.5 74q94 0 163 -33.5t105.5 -96.5t36.5 -149v-388q0 -25 -15 -39t-41 -14t-41.5 14.5t-15.5 38.5v391q0 89 -50 137t-142 48t-142.5 -48.5t-50.5 -136.5v-391q0 -24 -15.5 -38.5t-41.5 -14.5t-41 14z" />
    <glyph glyph-name="Nacute" unicode="&#x143;" horiz-adv-x="729" 
d="M74 4q-15 14 -15 39v388q0 131 81.5 205t224.5 74q94 0 163 -33.5t105.5 -96.5t36.5 -149v-388q0 -25 -15 -39t-41 -14t-41.5 14.5t-15.5 38.5v391q0 89 -50 137t-142 48t-142.5 -48.5t-50.5 -136.5v-391q0 -24 -15.5 -38.5t-41.5 -14.5t-41 14zM340.5 792
q-5.5 9 -5.5 19q0 8 3 15l59 145q15 36 44 36q14 0 28 -7q32 -17 32 -41q0 -11 -8 -25l-80 -139q-6 -10 -16.5 -16t-21.5 -6q-9 0 -19 5t-15.5 14z" />
    <glyph glyph-name="Ncaron" unicode="&#x147;" horiz-adv-x="729" 
d="M74 4q-15 14 -15 39v388q0 131 81.5 205t224.5 74q94 0 163 -33.5t105.5 -96.5t36.5 -149v-388q0 -25 -15 -39t-41 -14t-41.5 14.5t-15.5 38.5v391q0 89 -50 137t-142 48t-142.5 -48.5t-50.5 -136.5v-391q0 -24 -15.5 -38.5t-41.5 -14.5t-41 14zM322 791l-105 127
q-13 16 -13 32q0 19 19 34q14 11 28 11q21 0 40 -25l76 -104l76 104q19 25 41 25q14 0 27 -10q20 -15 20 -35q0 -16 -14 -33l-105 -126q-19 -21 -45 -21t-45 21z" />
    <glyph glyph-name="uni0145" unicode="&#x145;" horiz-adv-x="729" 
d="M74 4q-15 14 -15 39v388q0 131 81.5 205t224.5 74q94 0 163 -33.5t105.5 -96.5t36.5 -149v-388q0 -25 -15 -39t-41 -14t-41.5 14.5t-15.5 38.5v391q0 89 -50 137t-142 48t-142.5 -48.5t-50.5 -136.5v-391q0 -24 -15.5 -38.5t-41.5 -14.5t-41 14zM290 -293q0 15 19 32
q35 34 43 67q-27 -2 -45.5 14.5t-18.5 43.5q0 32 21.5 50t55.5 18q37 0 58 -22.5t21 -62.5q0 -35 -23.5 -75t-61.5 -70q-23 -19 -41 -19q-11 0 -21 9q-7 7 -7 15z" />
    <glyph glyph-name="uni1E44" unicode="&#x1e44;" horiz-adv-x="729" 
d="M74 4q-15 14 -15 39v388q0 131 81.5 205t224.5 74q94 0 163 -33.5t105.5 -96.5t36.5 -149v-388q0 -25 -15 -39t-41 -14t-41.5 14.5t-15.5 38.5v391q0 89 -50 137t-142 48t-142.5 -48.5t-50.5 -136.5v-391q0 -24 -15.5 -38.5t-41.5 -14.5t-41 14zM315.5 804.5
q-20.5 19.5 -20.5 47.5t20.5 47.5t51.5 19.5q30 0 50.5 -19.5t20.5 -47.5t-20.5 -47.5t-50.5 -19.5q-31 0 -51.5 19.5z" />
    <glyph glyph-name="uni1E46" unicode="&#x1e46;" horiz-adv-x="729" 
d="M74 4q-15 14 -15 39v388q0 131 81.5 205t224.5 74q94 0 163 -33.5t105.5 -96.5t36.5 -149v-388q0 -25 -15 -39t-41 -14t-41.5 14.5t-15.5 38.5v391q0 89 -50 137t-142 48t-142.5 -48.5t-50.5 -136.5v-391q0 -24 -15.5 -38.5t-41.5 -14.5t-41 14zM314.5 -182.5
q-19.5 18.5 -19.5 47.5q0 31 19.5 49t52.5 18q32 0 51.5 -18t19.5 -49q0 -29 -19.5 -47.5t-51.5 -18.5q-33 0 -52.5 18.5z" />
    <glyph glyph-name="Eng" unicode="&#x14a;" horiz-adv-x="717" 
d="M173 -159q-12 15 -12 32q0 20 20 37q15 12 33 12q27 0 45 -26q27 -37 65.5 -53.5t95.5 -16.5q130 0 130 146v462q0 89 -49.5 137t-142.5 48q-92 0 -142 -48.5t-50 -136.5v-391q0 -24 -15.5 -38.5t-41.5 -14.5t-41.5 14t-15.5 39v388q0 86 37 149t106 96.5t163 33.5
q143 0 224.5 -74t81.5 -205v-455q0 -72 -30 -127t-85.5 -85t-128.5 -30q-164 0 -247 107z" />
    <glyph glyph-name="uni1E48" unicode="&#x1e48;" horiz-adv-x="729" 
d="M74 4q-15 14 -15 39v388q0 131 81.5 205t224.5 74q94 0 163 -33.5t105.5 -96.5t36.5 -149v-388q0 -25 -15 -39t-41 -14t-41.5 14.5t-15.5 38.5v391q0 89 -50 137t-142 48t-142.5 -48.5t-50.5 -136.5v-391q0 -24 -15.5 -38.5t-41.5 -14.5t-41 14zM194 -121q0 20 11.5 28.5
t35.5 8.5h252q24 0 35.5 -8.5t11.5 -28.5q0 -35 -47 -35h-252q-47 0 -47 35z" />
    <glyph glyph-name="Ntilde" unicode="&#xd1;" horiz-adv-x="729" 
d="M74 4q-15 14 -15 39v388q0 131 81.5 205t224.5 74q94 0 163 -33.5t105.5 -96.5t36.5 -149v-388q0 -25 -15 -39t-41 -14t-41.5 14.5t-15.5 38.5v391q0 89 -50 137t-142 48t-142.5 -48.5t-50.5 -136.5v-391q0 -24 -15.5 -38.5t-41.5 -14.5t-41 14zM191 806.5
q-11 9.5 -11 24.5q0 10 4 19q32 82 108 82q26 0 47 -9t47 -26q17 -11 28 -16.5t22 -5.5q15 0 24 8.5t17 27.5q13 28 37 28q17 0 28 -9.5t11 -24.5q0 -10 -4 -19q-32 -82 -108 -82q-25 0 -43.5 8t-42.5 24q-18 13 -31 19t-27 6q-15 0 -24 -8t-17 -27q-13 -29 -36 -29
q-18 0 -29 9.5z" />
    <glyph glyph-name="O" unicode="O" horiz-adv-x="833" 
d="M222.5 35q-83.5 45 -128.5 127t-45 188t45 188t128.5 127t194.5 45t194.5 -45t128.5 -127t45 -188t-45 -188t-128.5 -127t-194.5 -45t-194.5 45zM602 153q68 72 68 197q0 126 -69.5 197.5t-189.5 71.5q-76 0 -132 -33t-86 -94t-30 -142q0 -83 31 -143.5t88 -93t135 -32.5
q117 0 185 72z" />
    <glyph glyph-name="Oacute" unicode="&#xd3;" horiz-adv-x="833" 
d="M222.5 35q-83.5 45 -128.5 127t-45 188t45 188t128.5 127t194.5 45t194.5 -45t128.5 -127t45 -188t-45 -188t-128.5 -127t-194.5 -45t-194.5 45zM602 153q68 72 68 197q0 126 -69.5 197.5t-189.5 71.5q-76 0 -132 -33t-86 -94t-30 -142q0 -83 31 -143.5t88 -93t135 -32.5
q117 0 185 72zM389.5 792q-5.5 9 -5.5 19q0 8 3 15l59 145q15 36 44 36q14 0 28 -7q32 -17 32 -41q0 -11 -8 -25l-80 -139q-6 -10 -16.5 -16t-21.5 -6q-9 0 -19 5t-15.5 14z" />
    <glyph glyph-name="Obreve" unicode="&#x14e;" horiz-adv-x="833" 
d="M222.5 35q-83.5 45 -128.5 127t-45 188t45 188t128.5 127t194.5 45t194.5 -45t128.5 -127t45 -188t-45 -188t-128.5 -127t-194.5 -45t-194.5 45zM602 153q68 72 68 197q0 126 -69.5 197.5t-189.5 71.5q-76 0 -132 -33t-86 -94t-30 -142q0 -83 31 -143.5t88 -93t135 -32.5
q117 0 185 72zM284.5 817q-48.5 45 -48.5 118q0 25 13.5 38t38.5 13t38.5 -13t13.5 -38q0 -39 19.5 -60.5t56.5 -21.5t56.5 21.5t19.5 60.5q0 24 13.5 37.5t38.5 13.5t38.5 -13t13.5 -38q0 -73 -48.5 -118t-131.5 -45t-131.5 45z" />
    <glyph glyph-name="uni01D1" unicode="&#x1d1;" horiz-adv-x="833" 
d="M222.5 35q-83.5 45 -128.5 127t-45 188t45 188t128.5 127t194.5 45t194.5 -45t128.5 -127t45 -188t-45 -188t-128.5 -127t-194.5 -45t-194.5 45zM602 153q68 72 68 197q0 126 -69.5 197.5t-189.5 71.5q-76 0 -132 -33t-86 -94t-30 -142q0 -83 31 -143.5t88 -93t135 -32.5
q117 0 185 72zM372 791l-105 127q-13 16 -13 32q0 19 19 34q14 11 28 11q21 0 40 -25l76 -104l76 104q19 25 41 25q14 0 27 -10q20 -15 20 -35q0 -16 -14 -33l-105 -126q-19 -21 -45 -21t-45 21z" />
    <glyph glyph-name="Ocircumflex" unicode="&#xd4;" horiz-adv-x="833" 
d="M222.5 35q-83.5 45 -128.5 127t-45 188t45 188t128.5 127t194.5 45t194.5 -45t128.5 -127t45 -188t-45 -188t-128.5 -127t-194.5 -45t-194.5 45zM602 153q68 72 68 197q0 126 -69.5 197.5t-189.5 71.5q-76 0 -132 -33t-86 -94t-30 -142q0 -83 31 -143.5t88 -93t135 -32.5
q117 0 185 72zM254 814q0 17 13 33l105 126q19 22 45 22t45 -22l105 -126q13 -16 13 -33q0 -19 -18 -34q-14 -10 -28 -10q-22 0 -41 24l-76 104l-76 -104q-18 -24 -41 -24q-14 0 -27 10q-19 15 -19 34z" />
    <glyph glyph-name="uni1ED0" unicode="&#x1ed0;" horiz-adv-x="833" 
d="M222.5 35q-83.5 45 -128.5 127t-45 188t45 188t128.5 127t194.5 45t194.5 -45t128.5 -127t45 -188t-45 -188t-128.5 -127t-194.5 -45t-194.5 45zM602 153q68 72 68 197q0 126 -69.5 197.5t-189.5 71.5q-76 0 -132 -33t-86 -94t-30 -142q0 -83 31 -143.5t88 -93t135 -32.5
q117 0 185 72zM505 969q0 11 6 21l63 106q14 26 41 26q14 0 29 -10q20 -13 20 -36q0 -15 -10 -28l-82 -97q-14 -16 -31 -16q-12 0 -22 7q-14 11 -14 27zM253 814q0 16 14 32l105 115q19 21 45 21t45 -21l105 -115q14 -16 14 -32q0 -20 -20 -35q-11 -10 -26 -10q-21 0 -42 25
l-76 92l-76 -93q-20 -24 -42 -24q-13 0 -26 10q-20 15 -20 35z" />
    <glyph glyph-name="uni1ED8" unicode="&#x1ed8;" horiz-adv-x="833" 
d="M222.5 35q-83.5 45 -128.5 127t-45 188t45 188t128.5 127t194.5 45t194.5 -45t128.5 -127t45 -188t-45 -188t-128.5 -127t-194.5 -45t-194.5 45zM602 153q68 72 68 197q0 126 -69.5 197.5t-189.5 71.5q-76 0 -132 -33t-86 -94t-30 -142q0 -83 31 -143.5t88 -93t135 -32.5
q117 0 185 72zM364.5 -182.5q-19.5 18.5 -19.5 47.5q0 31 19.5 49t52.5 18q32 0 51.5 -18t19.5 -49q0 -29 -19.5 -47.5t-51.5 -18.5q-33 0 -52.5 18.5zM254 814q0 17 13 33l105 126q19 22 45 22t45 -22l105 -126q13 -16 13 -33q0 -19 -18 -34q-14 -10 -28 -10q-22 0 -41 24
l-76 104l-76 -104q-18 -24 -41 -24q-14 0 -27 10q-19 15 -19 34z" />
    <glyph glyph-name="uni1ED2" unicode="&#x1ed2;" horiz-adv-x="833" 
d="M222.5 35q-83.5 45 -128.5 127t-45 188t45 188t128.5 127t194.5 45t194.5 -45t128.5 -127t45 -188t-45 -188t-128.5 -127t-194.5 -45t-194.5 45zM602 153q68 72 68 197q0 126 -69.5 197.5t-189.5 71.5q-76 0 -132 -33t-86 -94t-30 -142q0 -83 31 -143.5t88 -93t135 -32.5
q117 0 185 72zM566 935q-17 0 -31 16l-82 97q-10 13 -10 28q0 24 20 37q13 9 28 9q28 0 42 -26l63 -106q6 -10 6 -22q0 -16 -14 -26q-10 -7 -22 -7zM253 814q0 16 14 32l105 115q19 21 45 21t45 -21l105 -115q14 -16 14 -32q0 -20 -20 -35q-11 -10 -26 -10q-21 0 -42 25
l-76 92l-76 -93q-20 -24 -42 -24q-13 0 -26 10q-20 15 -20 35z" />
    <glyph glyph-name="uni1ED4" unicode="&#x1ed4;" horiz-adv-x="833" 
d="M222.5 35q-83.5 45 -128.5 127t-45 188t45 188t128.5 127t194.5 45t194.5 -45t128.5 -127t45 -188t-45 -188t-128.5 -127t-194.5 -45t-194.5 45zM602 153q68 72 68 197q0 126 -69.5 197.5t-189.5 71.5q-76 0 -132 -33t-86 -94t-30 -142q0 -83 31 -143.5t88 -93t135 -32.5
q117 0 185 72zM515 932.5q-11 7.5 -11 22.5v5q0 15 9 26.5t26 25.5q14 13 19.5 19.5t5.5 14.5q0 10 -7 16t-19 6q-22 0 -41 -21q-10 -12 -25 -12q-10 0 -20 7q-13 10 -13 23q0 10 6 17q15 21 42.5 34.5t64.5 13.5q50 0 75 -20t25 -53q0 -19 -10 -32.5t-28 -28.5
q-13 -10 -19.5 -18t-6.5 -17v-6q0 -15 -11.5 -22.5t-30.5 -7.5q-20 0 -31 7.5zM253 814q0 16 14 32l105 115q19 21 45 21t45 -21l105 -115q14 -16 14 -32q0 -20 -20 -35q-11 -10 -26 -10q-21 0 -42 25l-76 92l-76 -93q-20 -24 -42 -24q-13 0 -26 10q-20 15 -20 35z" />
    <glyph glyph-name="uni1ED6" unicode="&#x1ed6;" horiz-adv-x="833" 
d="M222.5 35q-83.5 45 -128.5 127t-45 188t45 188t128.5 127t194.5 45t194.5 -45t128.5 -127t45 -188t-45 -188t-128.5 -127t-194.5 -45t-194.5 45zM602 153q68 72 68 197q0 126 -69.5 197.5t-189.5 71.5q-76 0 -132 -33t-86 -94t-30 -142q0 -83 31 -143.5t88 -93t135 -32.5
q117 0 185 72zM246 1025q0 8 3 18q13 36 38.5 56.5t63.5 20.5q25 0 45.5 -8.5t45.5 -24.5q17 -11 27 -16t20 -5q14 0 23 8t16 25q11 27 33 27q18 0 28 -8.5t10 -22.5q0 -10 -4 -19q-29 -78 -102 -78q-23 0 -41 8t-40 23q-19 12 -31 17.5t-25 5.5t-22 -7.5t-17 -24.5
q-12 -28 -33 -28q-6 0 -15 3q-23 6 -23 30zM253 814q0 16 14 32l105 115q19 22 45 22q27 0 44 -22l106 -115q13 -14 13 -31q0 -22 -19 -35q-14 -11 -27 -11q-21 0 -41 25l-76 92l-76 -92q-20 -25 -41 -25q-14 0 -28 11q-19 14 -19 34z" />
    <glyph glyph-name="Odieresis" unicode="&#xd6;" horiz-adv-x="833" 
d="M222.5 35q-83.5 45 -128.5 127t-45 188t45 188t128.5 127t194.5 45t194.5 -45t128.5 -127t45 -188t-45 -188t-128.5 -127t-194.5 -45t-194.5 45zM602 153q68 72 68 197q0 126 -69.5 197.5t-189.5 71.5q-76 0 -132 -33t-86 -94t-30 -142q0 -83 31 -143.5t88 -93t135 -32.5
q117 0 185 72zM258.5 810q-18.5 18 -18.5 44t18 44.5t46 18.5q27 0 45 -18t18 -45q0 -25 -18 -43.5t-45 -18.5t-45.5 18zM484.5 810q-18.5 18 -18.5 44t18 44.5t46 18.5t46 -18t18 -45q0 -25 -18.5 -43.5t-45.5 -18.5t-45.5 18z" />
    <glyph glyph-name="uni1ECC" unicode="&#x1ecc;" horiz-adv-x="833" 
d="M222.5 35q-83.5 45 -128.5 127t-45 188t45 188t128.5 127t194.5 45t194.5 -45t128.5 -127t45 -188t-45 -188t-128.5 -127t-194.5 -45t-194.5 45zM602 153q68 72 68 197q0 126 -69.5 197.5t-189.5 71.5q-76 0 -132 -33t-86 -94t-30 -142q0 -83 31 -143.5t88 -93t135 -32.5
q117 0 185 72zM364.5 -182.5q-19.5 18.5 -19.5 47.5q0 31 19.5 49t52.5 18q32 0 51.5 -18t19.5 -49q0 -29 -19.5 -47.5t-51.5 -18.5q-33 0 -52.5 18.5z" />
    <glyph glyph-name="Ograve" unicode="&#xd2;" horiz-adv-x="833" 
d="M222.5 35q-83.5 45 -128.5 127t-45 188t45 188t128.5 127t194.5 45t194.5 -45t128.5 -127t45 -188t-45 -188t-128.5 -127t-194.5 -45t-194.5 45zM602 153q68 72 68 197q0 126 -69.5 197.5t-189.5 71.5q-76 0 -132 -33t-86 -94t-30 -142q0 -83 31 -143.5t88 -93t135 -32.5
q117 0 185 72zM406.5 779q-10.5 6 -16.5 16l-80 139q-8 13 -8 25q0 24 32 41q14 7 28 7q30 0 45 -36l58 -145q3 -7 3 -15q0 -15 -10.5 -26.5t-29.5 -11.5q-11 0 -21.5 6z" />
    <glyph glyph-name="uni1ECE" unicode="&#x1ece;" horiz-adv-x="833" 
d="M222.5 35q-83.5 45 -128.5 127t-45 188t45 188t128.5 127t194.5 45t194.5 -45t128.5 -127t45 -188t-45 -188t-128.5 -127t-194.5 -45t-194.5 45zM602 153q68 72 68 197q0 126 -69.5 197.5t-189.5 71.5q-76 0 -132 -33t-86 -94t-30 -142q0 -83 31 -143.5t88 -93t135 -32.5
q117 0 185 72zM381 763q-13 9 -13 25v6q0 17 10.5 30.5t29.5 28.5q15 13 21.5 20.5t6.5 16.5q0 12 -7.5 18.5t-21.5 6.5q-27 0 -47 -25q-11 -12 -26 -12q-13 0 -24 8q-16 10 -16 25q0 9 7 19q17 24 49 39.5t74 15.5q56 0 85 -23t29 -60q0 -21 -11.5 -36t-32.5 -32
q-15 -13 -22 -21.5t-7 -17.5v-7q0 -16 -13 -25t-36 -9q-22 0 -35 9z" />
    <glyph glyph-name="Ohorn" unicode="&#x1a0;" horiz-adv-x="833" 
d="M818.5 620q-36.5 -41 -97.5 -51q64 -92 64 -219q0 -106 -45 -188t-128.5 -127t-194.5 -45t-194.5 45t-128.5 127t-45 188t45 188t128.5 127t194.5 45q143 0 238 -73h1l44 5q65 10 65 79q0 47 43 47q23 0 35 -12t12 -35q0 -60 -36.5 -101zM602 153q68 72 68 197
q0 126 -69.5 197.5t-189.5 71.5q-76 0 -132 -33t-86 -94t-30 -142q0 -83 31 -143.5t88 -93t135 -32.5q117 0 185 72z" />
    <glyph glyph-name="uni1EDA" unicode="&#x1eda;" horiz-adv-x="833" 
d="M818.5 620q-36.5 -41 -97.5 -51q64 -92 64 -219q0 -106 -45 -188t-128.5 -127t-194.5 -45t-194.5 45t-128.5 127t-45 188t45 188t128.5 127t194.5 45q143 0 238 -73h1l44 5q65 10 65 79q0 47 43 47q23 0 35 -12t12 -35q0 -60 -36.5 -101zM602 153q68 72 68 197
q0 126 -69.5 197.5t-189.5 71.5q-76 0 -132 -33t-86 -94t-30 -142q0 -83 31 -143.5t88 -93t135 -32.5q117 0 185 72zM390.5 792q-5.5 9 -5.5 19q0 8 3 15l59 145q15 36 44 36q14 0 28 -7q32 -17 32 -41q0 -11 -8 -25l-80 -139q-6 -10 -16.5 -16t-21.5 -6q-9 0 -19 5
t-15.5 14z" />
    <glyph glyph-name="uni1EE2" unicode="&#x1ee2;" horiz-adv-x="833" 
d="M818.5 620q-36.5 -41 -97.5 -51q64 -92 64 -219q0 -106 -45 -188t-128.5 -127t-194.5 -45t-194.5 45t-128.5 127t-45 188t45 188t128.5 127t194.5 45q143 0 238 -73h1l44 5q65 10 65 79q0 47 43 47q23 0 35 -12t12 -35q0 -60 -36.5 -101zM602 153q68 72 68 197
q0 126 -69.5 197.5t-189.5 71.5q-76 0 -132 -33t-86 -94t-30 -142q0 -83 31 -143.5t88 -93t135 -32.5q117 0 185 72zM364.5 -182.5q-19.5 18.5 -19.5 47.5q0 31 19.5 49t52.5 18q32 0 51.5 -18t19.5 -49q0 -29 -19.5 -47.5t-51.5 -18.5q-33 0 -52.5 18.5z" />
    <glyph glyph-name="uni1EDC" unicode="&#x1edc;" horiz-adv-x="833" 
d="M818.5 620q-36.5 -41 -97.5 -51q64 -92 64 -219q0 -106 -45 -188t-128.5 -127t-194.5 -45t-194.5 45t-128.5 127t-45 188t45 188t128.5 127t194.5 45q143 0 238 -73h1l44 5q65 10 65 79q0 47 43 47q23 0 35 -12t12 -35q0 -60 -36.5 -101zM602 153q68 72 68 197
q0 126 -69.5 197.5t-189.5 71.5q-76 0 -132 -33t-86 -94t-30 -142q0 -83 31 -143.5t88 -93t135 -32.5q117 0 185 72zM394.5 779q-10.5 6 -16.5 16l-80 139q-8 13 -8 25q0 24 32 41q14 7 28 7q30 0 45 -36l58 -145q3 -7 3 -15q0 -15 -10.5 -26.5t-29.5 -11.5q-11 0 -21.5 6z
" />
    <glyph glyph-name="uni1EDE" unicode="&#x1ede;" horiz-adv-x="833" 
d="M818.5 620q-36.5 -41 -97.5 -51q64 -92 64 -219q0 -106 -45 -188t-128.5 -127t-194.5 -45t-194.5 45t-128.5 127t-45 188t45 188t128.5 127t194.5 45q143 0 238 -73h1l44 5q65 10 65 79q0 47 43 47q23 0 35 -12t12 -35q0 -60 -36.5 -101zM602 153q68 72 68 197
q0 126 -69.5 197.5t-189.5 71.5q-76 0 -132 -33t-86 -94t-30 -142q0 -83 31 -143.5t88 -93t135 -32.5q117 0 185 72zM381 763q-13 9 -13 25v6q0 17 10.5 30.5t29.5 28.5q15 13 21.5 20.5t6.5 16.5q0 12 -7.5 18.5t-21.5 6.5q-27 0 -47 -25q-11 -12 -26 -12q-13 0 -24 8
q-16 10 -16 25q0 9 7 19q17 24 49 39.5t74 15.5q56 0 85 -23t29 -60q0 -21 -11.5 -36t-32.5 -32q-15 -13 -22 -21.5t-7 -17.5v-7q0 -16 -13 -25t-36 -9q-22 0 -35 9z" />
    <glyph glyph-name="uni1EE0" unicode="&#x1ee0;" horiz-adv-x="833" 
d="M818.5 620q-36.5 -41 -97.5 -51q64 -92 64 -219q0 -106 -45 -188t-128.5 -127t-194.5 -45t-194.5 45t-128.5 127t-45 188t45 188t128.5 127t194.5 45q143 0 238 -73h1l44 5q65 10 65 79q0 47 43 47q23 0 35 -12t12 -35q0 -60 -36.5 -101zM602 153q68 72 68 197
q0 126 -69.5 197.5t-189.5 71.5q-76 0 -132 -33t-86 -94t-30 -142q0 -83 31 -143.5t88 -93t135 -32.5q117 0 185 72zM242 807.5q-11 9.5 -11 24.5q0 10 4 19q32 82 108 82q26 0 47 -9t47 -26q17 -11 28 -16.5t22 -5.5q15 0 24 8.5t17 27.5q13 28 37 28q17 0 28 -9.5
t11 -24.5q0 -10 -4 -19q-32 -82 -108 -82q-25 0 -43.5 8t-42.5 24q-18 13 -31 19t-27 6q-15 0 -24 -8t-17 -27q-13 -29 -36 -29q-18 0 -29 9.5z" />
    <glyph glyph-name="Ohungarumlaut" unicode="&#x150;" horiz-adv-x="833" 
d="M222.5 35q-83.5 45 -128.5 127t-45 188t45 188t128.5 127t194.5 45t194.5 -45t128.5 -127t45 -188t-45 -188t-128.5 -127t-194.5 -45t-194.5 45zM602 153q68 72 68 197q0 126 -69.5 197.5t-189.5 71.5q-76 0 -132 -33t-86 -94t-30 -142q0 -83 31 -143.5t88 -93t135 -32.5
q117 0 185 72zM476 809q0 15 8 30l77 136q16 31 46 31q13 0 29 -8q15 -7 22.5 -17.5t7.5 -22.5q0 -15 -10 -28l-98 -134q-16 -24 -41 -24q-11 0 -21 6q-20 10 -20 31zM306 809q0 12 8 30l66 137q14 30 46 30q16 0 30 -7q28 -13 28 -39q0 -15 -9 -29l-87 -135
q-15 -24 -40 -24q-12 0 -22 6q-20 10 -20 31z" />
    <glyph glyph-name="Omacron" unicode="&#x14c;" horiz-adv-x="833" 
d="M222.5 35q-83.5 45 -128.5 127t-45 188t45 188t128.5 127t194.5 45t194.5 -45t128.5 -127t45 -188t-45 -188t-128.5 -127t-194.5 -45t-194.5 45zM602 153q68 72 68 197q0 126 -69.5 197.5t-189.5 71.5q-76 0 -132 -33t-86 -94t-30 -142q0 -83 31 -143.5t88 -93t135 -32.5
q117 0 185 72zM242 814q0 20 11.5 28t35.5 8h252q24 0 35.5 -8t11.5 -28q0 -35 -47 -35h-252q-47 0 -47 35z" />
    <glyph glyph-name="Oslash" unicode="&#xd8;" horiz-adv-x="821" 
d="M735 538q45 -81 45 -188q0 -108 -45.5 -189.5t-129.5 -126t-194 -44.5q-56 0 -106 12l-20 -43q-6 -13 -19 -20.5t-28 -7.5t-25 5q-29 14 -29 44q0 10 5 22l17 38q-78 46 -121 125.5t-43 184.5q0 108 45.5 189.5t129 126t194.5 44.5q54 0 98 -10l20 44q6 13 18.5 21
t27.5 8q13 0 25 -6q15 -7 23.5 -18.5t8.5 -24.5q0 -8 -3 -16l-20 -44q81 -45 126 -126zM178.5 221q23.5 -56 68.5 -91l223 485q-44 6 -68 6q-75 0 -131 -33t-86 -94t-30 -144q0 -73 23.5 -129zM598.5 151.5q68.5 72.5 68.5 198.5q0 75 -26 132t-74 92l-224 -488q29 -7 68 -7
q119 0 187.5 72.5z" />
    <glyph glyph-name="Oslashacute" unicode="&#x1fe;" horiz-adv-x="821" 
d="M735 538q45 -81 45 -188q0 -108 -45.5 -189.5t-129.5 -126t-194 -44.5q-56 0 -106 12l-20 -43q-6 -13 -19 -20.5t-28 -7.5t-25 5q-29 14 -29 44q0 10 5 22l17 38q-78 46 -121 125.5t-43 184.5q0 108 45.5 189.5t129 126t194.5 44.5q54 0 98 -10l20 44q6 13 18.5 21
t27.5 8q13 0 25 -6q15 -7 23.5 -18.5t8.5 -24.5q0 -8 -3 -16l-20 -44q81 -45 126 -126zM178.5 221q23.5 -56 68.5 -91l223 485q-44 6 -68 6q-75 0 -131 -33t-86 -94t-30 -144q0 -73 23.5 -129zM598.5 151.5q68.5 72.5 68.5 198.5q0 75 -26 132t-74 92l-224 -488q29 -7 68 -7
q119 0 187.5 72.5zM383.5 792q-5.5 9 -5.5 19q0 8 3 15l59 145q15 36 44 36q14 0 28 -7q32 -17 32 -41q0 -11 -8 -25l-80 -139q-6 -10 -16.5 -16t-21.5 -6q-9 0 -19 5t-15.5 14z" />
    <glyph glyph-name="Otilde" unicode="&#xd5;" horiz-adv-x="833" 
d="M222.5 35q-83.5 45 -128.5 127t-45 188t45 188t128.5 127t194.5 45t194.5 -45t128.5 -127t45 -188t-45 -188t-128.5 -127t-194.5 -45t-194.5 45zM602 153q68 72 68 197q0 126 -69.5 197.5t-189.5 71.5q-76 0 -132 -33t-86 -94t-30 -142q0 -83 31 -143.5t88 -93t135 -32.5
q117 0 185 72zM241 806.5q-11 9.5 -11 24.5q0 10 4 19q32 82 108 82q26 0 47 -9t47 -26q17 -11 28 -16.5t22 -5.5q15 0 24 8.5t17 27.5q13 28 37 28q17 0 28 -9.5t11 -24.5q0 -10 -4 -19q-32 -82 -108 -82q-25 0 -43.5 8t-42.5 24q-18 13 -31 19t-27 6q-15 0 -24 -8t-17 -27
q-13 -29 -36 -29q-18 0 -29 9.5z" />
    <glyph glyph-name="OE" unicode="&#x152;" horiz-adv-x="1243" 
d="M223.5 34.5q-83.5 44.5 -129 126t-45.5 189.5t45.5 189.5t129 126t194.5 44.5q159 0 262 -129v15q0 47 34 75.5t89 28.5h313q27 0 41.5 -12t14.5 -34t-15 -34t-41 -12h-286q-21 0 -33 -13.5t-12 -37.5v-154h255q27 0 41.5 -12t14.5 -34t-15 -33.5t-41 -11.5h-255v-169
q0 -24 12 -37.5t33 -13.5h308q27 0 41.5 -12t14.5 -35q0 -21 -15 -33t-41 -12h-330q-54 0 -90 29.5t-36 74.5v14q-54 -67 -117 -97.5t-147 -30.5q-111 0 -194.5 44.5zM600.5 155q66.5 71 66.5 195q0 125 -68.5 195.5t-189.5 70.5q-74 0 -129 -32.5t-84.5 -92.5t-29.5 -141
q0 -124 67.5 -195t184.5 -71q116 0 182.5 71z" />
    <glyph glyph-name="P" unicode="P" horiz-adv-x="728" 
d="M79 4q-15 14 -15 39v518q0 65 38 102t106 37h170q148 0 224.5 -62t76.5 -183q0 -119 -75.5 -180.5t-220.5 -61.5h-205v-170q0 -24 -16 -38.5t-42 -14.5t-41 14zM564 455q0 80 -45.5 118t-135.5 38h-159q-22 0 -34 -14t-12 -38v-256h204q182 0 182 152z" />
    <glyph glyph-name="Thorn" unicode="&#xde;" horiz-adv-x="636" 
d="M72.5 4.5q-15.5 14.5 -15.5 39.5v613q0 25 15.5 39.5t42.5 14.5t43 -14.5t16 -39.5v-71h174q113 0 180 -59t67 -159t-67 -159t-180 -59h-174v-106q0 -25 -16 -39.5t-43 -14.5t-42.5 14.5zM348 242q59 0 94 34t35 92t-35 92t-94 34h-174v-252h174z" />
    <glyph glyph-name="Q" unicode="Q" horiz-adv-x="833" 
d="M668 -41q-12 0 -23 6t-17 17q-6 14 -27 50q-84 -42 -189 -42q-110 0 -192 45.5t-126.5 127t-44.5 187.5t45 188t128.5 127t194.5 45t194.5 -45t128.5 -127t45 -188q0 -81 -27.5 -149t-77.5 -115l14 -24q10 -16 15 -27q9 -16 9 -31q0 -23 -25 -38q-14 -7 -25 -7z
M306.5 244.5q52.5 24.5 109.5 24.5q60 0 113 -25t90 -69q51 72 51 175q0 126 -69.5 197.5t-189.5 71.5q-76 0 -132 -33t-86 -94t-30 -142q0 -104 51 -174q40 44 92.5 68.5zM548 113q-23 32 -56.5 49.5t-73.5 17.5q-42 0 -77 -17.5t-58 -48.5q58 -33 134 -33q73 0 131 32z
" />
    <glyph glyph-name="R" unicode="R" horiz-adv-x="728" 
d="M63 560q0 65 38 102.5t107 37.5h181q145 0 218.5 -58t73.5 -171q0 -107 -65 -166t-180 -59l166 -168q16 -16 16 -35q0 -21 -20 -38q-19 -14 -37 -14q-25 0 -48 24l-220 228h-113v-199q0 -25 -16.5 -39.5t-42.5 -14.5q-27 0 -42.5 14.5t-15.5 39.5v516zM388 335
q96 0 135.5 30.5t39.5 105.5q0 73 -43 105t-132 32h-163q-21 0 -33 -13.5t-12 -37.5v-222h208z" />
    <glyph glyph-name="Racute" unicode="&#x154;" horiz-adv-x="728" 
d="M63 560q0 65 38 102.5t107 37.5h181q145 0 218.5 -58t73.5 -171q0 -107 -65 -166t-180 -59l166 -168q16 -16 16 -35q0 -21 -20 -38q-19 -14 -37 -14q-25 0 -48 24l-220 228h-113v-199q0 -25 -16.5 -39.5t-42.5 -14.5q-27 0 -42.5 14.5t-15.5 39.5v516zM388 335
q96 0 135.5 30.5t39.5 105.5q0 73 -43 105t-132 32h-163q-21 0 -33 -13.5t-12 -37.5v-222h208zM319.5 792q-5.5 9 -5.5 19q0 8 3 15l59 145q15 36 44 36q14 0 28 -7q32 -17 32 -41q0 -11 -8 -25l-80 -139q-6 -10 -16.5 -16t-21.5 -6q-9 0 -19 5t-15.5 14z" />
    <glyph glyph-name="Rcaron" unicode="&#x158;" horiz-adv-x="728" 
d="M63 560q0 65 38 102.5t107 37.5h181q145 0 218.5 -58t73.5 -171q0 -107 -65 -166t-180 -59l166 -168q16 -16 16 -35q0 -21 -20 -38q-19 -14 -37 -14q-25 0 -48 24l-220 228h-113v-199q0 -25 -16.5 -39.5t-42.5 -14.5q-27 0 -42.5 14.5t-15.5 39.5v516zM388 335
q96 0 135.5 30.5t39.5 105.5q0 73 -43 105t-132 32h-163q-21 0 -33 -13.5t-12 -37.5v-222h208zM301 791l-105 127q-13 16 -13 32q0 19 19 34q14 11 28 11q21 0 40 -25l76 -104l76 104q19 25 41 25q14 0 27 -10q20 -15 20 -35q0 -16 -14 -33l-105 -126q-19 -21 -45 -21
t-45 21z" />
    <glyph glyph-name="uni0156" unicode="&#x156;" horiz-adv-x="728" 
d="M63 560q0 65 38 102.5t107 37.5h181q145 0 218.5 -58t73.5 -171q0 -107 -65 -166t-180 -59l166 -168q16 -16 16 -35q0 -21 -20 -38q-19 -14 -37 -14q-25 0 -48 24l-220 228h-113v-199q0 -25 -16.5 -39.5t-42.5 -14.5q-27 0 -42.5 14.5t-15.5 39.5v516zM388 335
q96 0 135.5 30.5t39.5 105.5q0 73 -43 105t-132 32h-163q-21 0 -33 -13.5t-12 -37.5v-222h208zM264 -293q0 15 19 32q35 34 43 67q-27 -2 -45.5 14.5t-18.5 43.5q0 32 21.5 50t55.5 18q37 0 58 -22.5t21 -62.5q0 -35 -23.5 -75t-61.5 -70q-23 -19 -41 -19q-11 0 -21 9
q-7 7 -7 15z" />
    <glyph glyph-name="uni1E5A" unicode="&#x1e5a;" horiz-adv-x="728" 
d="M63 560q0 65 38 102.5t107 37.5h181q145 0 218.5 -58t73.5 -171q0 -107 -65 -166t-180 -59l166 -168q16 -16 16 -35q0 -21 -20 -38q-19 -14 -37 -14q-25 0 -48 24l-220 228h-113v-199q0 -25 -16.5 -39.5t-42.5 -14.5q-27 0 -42.5 14.5t-15.5 39.5v516zM388 335
q96 0 135.5 30.5t39.5 105.5q0 73 -43 105t-132 32h-163q-21 0 -33 -13.5t-12 -37.5v-222h208zM288.5 -182.5q-19.5 18.5 -19.5 47.5q0 31 19.5 49t52.5 18q32 0 51.5 -18t19.5 -49q0 -29 -19.5 -47.5t-51.5 -18.5q-33 0 -52.5 18.5z" />
    <glyph glyph-name="uni1E5C" unicode="&#x1e5c;" horiz-adv-x="728" 
d="M63 560q0 65 38 102.5t107 37.5h181q145 0 218.5 -58t73.5 -171q0 -107 -65 -166t-180 -59l166 -168q16 -16 16 -35q0 -21 -20 -38q-19 -14 -37 -14q-25 0 -48 24l-220 228h-113v-199q0 -25 -16.5 -39.5t-42.5 -14.5q-27 0 -42.5 14.5t-15.5 39.5v516zM388 335
q96 0 135.5 30.5t39.5 105.5q0 73 -43 105t-132 32h-163q-21 0 -33 -13.5t-12 -37.5v-222h208zM288.5 -182.5q-19.5 18.5 -19.5 47.5q0 31 19.5 49t52.5 18q32 0 51.5 -18t19.5 -49q0 -29 -19.5 -47.5t-51.5 -18.5q-33 0 -52.5 18.5zM171 814q0 20 11.5 28t35.5 8h252
q24 0 35.5 -8t11.5 -28q0 -35 -47 -35h-252q-47 0 -47 35z" />
    <glyph glyph-name="uni1E5E" unicode="&#x1e5e;" horiz-adv-x="728" 
d="M63 560q0 65 38 102.5t107 37.5h181q145 0 218.5 -58t73.5 -171q0 -107 -65 -166t-180 -59l166 -168q16 -16 16 -35q0 -21 -20 -38q-19 -14 -37 -14q-25 0 -48 24l-220 228h-113v-199q0 -25 -16.5 -39.5t-42.5 -14.5q-27 0 -42.5 14.5t-15.5 39.5v516zM388 335
q96 0 135.5 30.5t39.5 105.5q0 73 -43 105t-132 32h-163q-21 0 -33 -13.5t-12 -37.5v-222h208zM168 -121q0 20 11.5 28.5t35.5 8.5h252q24 0 35.5 -8.5t11.5 -28.5q0 -35 -47 -35h-252q-47 0 -47 35z" />
    <glyph glyph-name="S" unicode="S" horiz-adv-x="703" 
d="M203.5 23q-84.5 33 -141.5 92q-13 12 -13 29q0 21 18 37q13 13 29 13q21 0 43 -21q45 -44 108.5 -67.5t136.5 -23.5q74 0 114.5 26t40.5 73q0 46 -42 74.5t-143 50.5q-149 32 -216 84.5t-67 135.5q0 54 34.5 96t97 65t144.5 23q92 0 165.5 -31t108.5 -86q10 -16 10 -31
q0 -22 -22 -37q-13 -8 -26 -8q-12 0 -24 6t-20 16q-29 38 -79.5 58.5t-112.5 20.5q-78 0 -119.5 -23.5t-41.5 -68.5q0 -42 40 -68.5t141 -49.5q153 -36 220 -89t67 -138q0 -57 -33.5 -100.5t-94.5 -67t-142 -23.5q-96 0 -180.5 33z" />
    <glyph glyph-name="Sacute" unicode="&#x15a;" horiz-adv-x="703" 
d="M203.5 23q-84.5 33 -141.5 92q-13 12 -13 29q0 21 18 37q13 13 29 13q21 0 43 -21q45 -44 108.5 -67.5t136.5 -23.5q74 0 114.5 26t40.5 73q0 46 -42 74.5t-143 50.5q-149 32 -216 84.5t-67 135.5q0 54 34.5 96t97 65t144.5 23q92 0 165.5 -31t108.5 -86q10 -16 10 -31
q0 -22 -22 -37q-13 -8 -26 -8q-12 0 -24 6t-20 16q-29 38 -79.5 58.5t-112.5 20.5q-78 0 -119.5 -23.5t-41.5 -68.5q0 -42 40 -68.5t141 -49.5q153 -36 220 -89t67 -138q0 -57 -33.5 -100.5t-94.5 -67t-142 -23.5q-96 0 -180.5 33zM325.5 792q-5.5 9 -5.5 19q0 8 3 15
l59 145q15 36 44 36q14 0 28 -7q32 -17 32 -41q0 -11 -8 -25l-80 -139q-6 -10 -16.5 -16t-21.5 -6q-9 0 -19 5t-15.5 14z" />
    <glyph glyph-name="Scaron" unicode="&#x160;" horiz-adv-x="703" 
d="M203.5 23q-84.5 33 -141.5 92q-13 12 -13 29q0 21 18 37q13 13 29 13q21 0 43 -21q45 -44 108.5 -67.5t136.5 -23.5q74 0 114.5 26t40.5 73q0 46 -42 74.5t-143 50.5q-149 32 -216 84.5t-67 135.5q0 54 34.5 96t97 65t144.5 23q92 0 165.5 -31t108.5 -86q10 -16 10 -31
q0 -22 -22 -37q-13 -8 -26 -8q-12 0 -24 6t-20 16q-29 38 -79.5 58.5t-112.5 20.5q-78 0 -119.5 -23.5t-41.5 -68.5q0 -42 40 -68.5t141 -49.5q153 -36 220 -89t67 -138q0 -57 -33.5 -100.5t-94.5 -67t-142 -23.5q-96 0 -180.5 33zM307 791l-105 127q-13 16 -13 32
q0 19 19 34q14 11 28 11q21 0 40 -25l76 -104l76 104q19 25 41 25q14 0 27 -10q20 -15 20 -35q0 -16 -14 -33l-105 -126q-19 -21 -45 -21t-45 21z" />
    <glyph glyph-name="Scedilla" unicode="&#x15e;" horiz-adv-x="703" 
d="M411 -13l-20 -37q42 -2 65 -23t23 -53q0 -38 -28 -64t-81 -26q-41 0 -72 15t-49 39q-7 10 -7 19q0 12 15 26q12 10 21 10q14 0 24 -15q11 -14 27 -21.5t33 -7.5q19 0 29.5 7.5t10.5 21.5q0 15 -9 23.5t-26 8.5l-11 -1q-19 -2 -32.5 7.5t-13.5 25.5q0 7 3 15l17 36
q-81 8 -150 39.5t-118 82.5q-13 12 -13 29q0 21 18 37q13 13 29 13q21 0 43 -21q45 -44 108.5 -67.5t136.5 -23.5q74 0 114.5 26t40.5 73q0 46 -42 74.5t-143 50.5q-149 32 -216 84.5t-67 135.5q0 54 34.5 96t97 65t144.5 23q92 0 165.5 -31t108.5 -86q10 -16 10 -31
q0 -22 -22 -37q-13 -8 -26 -8q-12 0 -24 6t-20 16q-29 38 -79.5 58.5t-112.5 20.5q-78 0 -119.5 -23.5t-41.5 -68.5q0 -42 40 -68.5t141 -49.5q153 -36 220 -89t67 -138q0 -82 -65 -133t-176 -57z" />
    <glyph glyph-name="Scircumflex" unicode="&#x15c;" horiz-adv-x="703" 
d="M203.5 23q-84.5 33 -141.5 92q-13 12 -13 29q0 21 18 37q13 13 29 13q21 0 43 -21q45 -44 108.5 -67.5t136.5 -23.5q74 0 114.5 26t40.5 73q0 46 -42 74.5t-143 50.5q-149 32 -216 84.5t-67 135.5q0 54 34.5 96t97 65t144.5 23q92 0 165.5 -31t108.5 -86q10 -16 10 -31
q0 -22 -22 -37q-13 -8 -26 -8q-12 0 -24 6t-20 16q-29 38 -79.5 58.5t-112.5 20.5q-78 0 -119.5 -23.5t-41.5 -68.5q0 -42 40 -68.5t141 -49.5q153 -36 220 -89t67 -138q0 -57 -33.5 -100.5t-94.5 -67t-142 -23.5q-96 0 -180.5 33zM189 814q0 17 13 33l105 126q19 22 45 22
t45 -22l105 -126q13 -16 13 -33q0 -19 -18 -34q-14 -10 -28 -10q-22 0 -41 24l-76 104l-76 -104q-18 -24 -41 -24q-14 0 -27 10q-19 15 -19 34z" />
    <glyph glyph-name="uni0218" unicode="&#x218;" horiz-adv-x="703" 
d="M203.5 23q-84.5 33 -141.5 92q-13 12 -13 29q0 21 18 37q13 13 29 13q21 0 43 -21q45 -44 108.5 -67.5t136.5 -23.5q74 0 114.5 26t40.5 73q0 46 -42 74.5t-143 50.5q-149 32 -216 84.5t-67 135.5q0 54 34.5 96t97 65t144.5 23q92 0 165.5 -31t108.5 -86q10 -16 10 -31
q0 -22 -22 -37q-13 -8 -26 -8q-12 0 -24 6t-20 16q-29 38 -79.5 58.5t-112.5 20.5q-78 0 -119.5 -23.5t-41.5 -68.5q0 -42 40 -68.5t141 -49.5q153 -36 220 -89t67 -138q0 -57 -33.5 -100.5t-94.5 -67t-142 -23.5q-96 0 -180.5 33zM301 -293q0 15 19 32q35 34 43 67
q-27 -2 -45.5 14.5t-18.5 43.5q0 32 21.5 50t55.5 18q37 0 58 -22.5t21 -62.5q0 -35 -23.5 -75t-61.5 -70q-23 -19 -41 -19q-11 0 -21 9q-7 7 -7 15z" />
    <glyph glyph-name="uni1E60" unicode="&#x1e60;" horiz-adv-x="703" 
d="M203.5 23q-84.5 33 -141.5 92q-13 12 -13 29q0 21 18 37q13 13 29 13q21 0 43 -21q45 -44 108.5 -67.5t136.5 -23.5q74 0 114.5 26t40.5 73q0 46 -42 74.5t-143 50.5q-149 32 -216 84.5t-67 135.5q0 54 34.5 96t97 65t144.5 23q92 0 165.5 -31t108.5 -86q10 -16 10 -31
q0 -22 -22 -37q-13 -8 -26 -8q-12 0 -24 6t-20 16q-29 38 -79.5 58.5t-112.5 20.5q-78 0 -119.5 -23.5t-41.5 -68.5q0 -42 40 -68.5t141 -49.5q153 -36 220 -89t67 -138q0 -57 -33.5 -100.5t-94.5 -67t-142 -23.5q-96 0 -180.5 33zM300.5 804.5q-20.5 19.5 -20.5 47.5
t20.5 47.5t51.5 19.5q30 0 50.5 -19.5t20.5 -47.5t-20.5 -47.5t-50.5 -19.5q-31 0 -51.5 19.5z" />
    <glyph glyph-name="uni1E62" unicode="&#x1e62;" horiz-adv-x="703" 
d="M203.5 23q-84.5 33 -141.5 92q-13 12 -13 29q0 21 18 37q13 13 29 13q21 0 43 -21q45 -44 108.5 -67.5t136.5 -23.5q74 0 114.5 26t40.5 73q0 46 -42 74.5t-143 50.5q-149 32 -216 84.5t-67 135.5q0 54 34.5 96t97 65t144.5 23q92 0 165.5 -31t108.5 -86q10 -16 10 -31
q0 -22 -22 -37q-13 -8 -26 -8q-12 0 -24 6t-20 16q-29 38 -79.5 58.5t-112.5 20.5q-78 0 -119.5 -23.5t-41.5 -68.5q0 -42 40 -68.5t141 -49.5q153 -36 220 -89t67 -138q0 -57 -33.5 -100.5t-94.5 -67t-142 -23.5q-96 0 -180.5 33zM325.5 -182.5q-19.5 18.5 -19.5 47.5
q0 31 19.5 49t52.5 18q32 0 51.5 -18t19.5 -49q0 -29 -19.5 -47.5t-51.5 -18.5q-33 0 -52.5 18.5z" />
    <glyph glyph-name="uni1E9E" unicode="&#x1e9e;" horiz-adv-x="654" 
d="M294 7.5q-47 18.5 -71 48.5q-12 15 -12 30q0 21 18 34q14 12 30 12q21 0 38 -16q43 -37 95 -37q107 0 107 108q0 62 -32.5 90t-98.5 28h-54q-30 0 -44 10.5t-14 32.5q0 20 16.5 31t46.5 11l113 125q-2 44 -35.5 69.5t-89.5 25.5q-70 0 -106 -37.5t-36 -110.5v-421
q0 -17 -16 -29.5t-39 -12.5q-22 0 -39 12.5t-17 29.5v422q0 70 31.5 124t89 83.5t132.5 29.5q69 0 122.5 -25t83.5 -69.5t30 -101.5l-116 -122q90 -14 137 -63.5t47 -131.5q0 -59 -27 -104t-77 -69.5t-115 -24.5q-51 0 -98 18.5z" />
    <glyph glyph-name="uni018F" unicode="&#x18f;" horiz-adv-x="821" 
d="M218 27q-84 36 -129.5 102.5t-45.5 154.5q0 52 31 82.5t84 30.5h506q0 104 -67 163t-186 59q-159 0 -239 -76q-25 -23 -50 -23q-18 0 -33 12q-19 17 -19 32t19 36q47 51 133.5 80.5t188.5 29.5q115 0 197.5 -43.5t126 -125.5t43.5 -196q0 -109 -44 -189t-126 -122.5
t-194 -42.5t-196 36zM598.5 141.5q65.5 59.5 65.5 166.5h-484q-11 0 -17.5 -7t-6.5 -18q0 -95 68 -148t190 -53q119 0 184.5 59.5z" />
    <glyph glyph-name="T" unicode="T" horiz-adv-x="696" 
d="M306.5 4q-15.5 14 -15.5 39v568h-205q-26 0 -40 11.5t-14 32.5q0 22 14 33.5t40 11.5h524q26 0 40.5 -11.5t14.5 -33.5q0 -21 -14.5 -32.5t-40.5 -11.5h-205v-568q0 -24 -15.5 -38.5t-41.5 -14.5t-41.5 14z" />
    <glyph glyph-name="Tbar" unicode="&#x166;" horiz-adv-x="696" 
d="M650.5 688.5q14.5 -11.5 14.5 -33.5q0 -21 -14.5 -32.5t-40.5 -11.5h-205v-218h95q53 0 53 -44q0 -21 -13.5 -32t-39.5 -11h-95v-263q0 -24 -15.5 -38.5t-41.5 -14.5t-41.5 14t-15.5 39v263h-87q-26 0 -39.5 11t-13.5 32q0 44 53 44h87v218h-205q-26 0 -40 11.5t-14 32.5
q0 22 14 33.5t40 11.5h524q26 0 40.5 -11.5z" />
    <glyph glyph-name="Tcaron" unicode="&#x164;" horiz-adv-x="696" 
d="M306.5 4q-15.5 14 -15.5 39v568h-205q-26 0 -40 11.5t-14 32.5q0 22 14 33.5t40 11.5h524q26 0 40.5 -11.5t14.5 -33.5q0 -21 -14.5 -32.5t-40.5 -11.5h-205v-568q0 -24 -15.5 -38.5t-41.5 -14.5t-41.5 14zM304 791l-105 127q-13 16 -13 32q0 19 19 34q14 11 28 11
q21 0 40 -25l76 -104l76 104q19 25 41 25q14 0 27 -10q20 -15 20 -35q0 -16 -14 -33l-105 -126q-19 -21 -45 -21t-45 21z" />
    <glyph glyph-name="uni0162" unicode="&#x162;" horiz-adv-x="696" 
d="M650.5 688.5q14.5 -11.5 14.5 -33.5q0 -21 -14.5 -32.5t-40.5 -11.5h-205v-568q0 -25 -17 -39v-4q0 -7 -3 -13l-20 -37q42 -2 65 -23t23 -53q0 -38 -28 -64t-81 -26q-41 0 -72 15t-49 39q-7 10 -7 19q0 13 15 26q11 9 21 9q13 0 24 -14t27 -21.5t33 -7.5q19 0 29 7.5
t10 21.5q0 35 -44 31q-19 -2 -33 7.5t-14 25.5q0 7 3 15l22 45q-18 14 -18 41v568h-205q-26 0 -40 11.5t-14 32.5q0 22 14 33.5t40 11.5h524q26 0 40.5 -11.5z" />
    <glyph glyph-name="uni021A" unicode="&#x21a;" horiz-adv-x="696" 
d="M306.5 4q-15.5 14 -15.5 39v568h-205q-26 0 -40 11.5t-14 32.5q0 22 14 33.5t40 11.5h524q26 0 40.5 -11.5t14.5 -33.5q0 -21 -14.5 -32.5t-40.5 -11.5h-205v-568q0 -24 -15.5 -38.5t-41.5 -14.5t-41.5 14zM272 -293q0 15 19 32q35 34 43 67q-27 -2 -45.5 14.5
t-18.5 43.5q0 32 21.5 50t55.5 18q37 0 58 -22.5t21 -62.5q0 -35 -23.5 -75t-61.5 -70q-23 -19 -41 -19q-11 0 -21 9q-7 7 -7 15z" />
    <glyph glyph-name="uni1E6C" unicode="&#x1e6c;" horiz-adv-x="696" 
d="M306.5 4q-15.5 14 -15.5 39v568h-205q-26 0 -40 11.5t-14 32.5q0 22 14 33.5t40 11.5h524q26 0 40.5 -11.5t14.5 -33.5q0 -21 -14.5 -32.5t-40.5 -11.5h-205v-568q0 -24 -15.5 -38.5t-41.5 -14.5t-41.5 14zM296.5 -182.5q-19.5 18.5 -19.5 47.5q0 31 19.5 49t52.5 18
q32 0 51.5 -18t19.5 -49q0 -29 -19.5 -47.5t-51.5 -18.5q-33 0 -52.5 18.5z" />
    <glyph glyph-name="uni1E6E" unicode="&#x1e6e;" horiz-adv-x="696" 
d="M306.5 4q-15.5 14 -15.5 39v568h-205q-26 0 -40 11.5t-14 32.5q0 22 14 33.5t40 11.5h524q26 0 40.5 -11.5t14.5 -33.5q0 -21 -14.5 -32.5t-40.5 -11.5h-205v-568q0 -24 -15.5 -38.5t-41.5 -14.5t-41.5 14zM176 -121q0 20 11.5 28.5t35.5 8.5h252q24 0 35.5 -8.5
t11.5 -28.5q0 -35 -47 -35h-252q-47 0 -47 35z" />
    <glyph glyph-name="U" unicode="U" horiz-adv-x="734" 
d="M202 27q-69 37 -106 106t-37 163v361q0 25 15 39t41 14t41.5 -14.5t15.5 -38.5v-364q0 -102 50.5 -157t143.5 -55t144 55.5t51 156.5v364q0 24 15.5 38.5t41.5 14.5t41.5 -14t15.5 -39v-361q0 -91 -38.5 -160.5t-109 -107.5t-164.5 -38q-92 0 -161 37z" />
    <glyph glyph-name="Uacute" unicode="&#xda;" horiz-adv-x="734" 
d="M202 27q-69 37 -106 106t-37 163v361q0 25 15 39t41 14t41.5 -14.5t15.5 -38.5v-364q0 -102 50.5 -157t143.5 -55t144 55.5t51 156.5v364q0 24 15.5 38.5t41.5 14.5t41.5 -14t15.5 -39v-361q0 -91 -38.5 -160.5t-109 -107.5t-164.5 -38q-92 0 -161 37zM339.5 792
q-5.5 9 -5.5 19q0 8 3 15l59 145q15 36 44 36q14 0 28 -7q32 -17 32 -41q0 -11 -8 -25l-80 -139q-6 -10 -16.5 -16t-21.5 -6q-9 0 -19 5t-15.5 14z" />
    <glyph glyph-name="Ubreve" unicode="&#x16c;" horiz-adv-x="734" 
d="M202 27q-69 37 -106 106t-37 163v361q0 25 15 39t41 14t41.5 -14.5t15.5 -38.5v-364q0 -102 50.5 -157t143.5 -55t144 55.5t51 156.5v364q0 24 15.5 38.5t41.5 14.5t41.5 -14t15.5 -39v-361q0 -91 -38.5 -160.5t-109 -107.5t-164.5 -38q-92 0 -161 37zM234.5 817
q-48.5 45 -48.5 118q0 25 13.5 38t38.5 13t38.5 -13t13.5 -38q0 -39 19.5 -60.5t56.5 -21.5t56.5 21.5t19.5 60.5q0 24 13.5 37.5t38.5 13.5t38.5 -13t13.5 -38q0 -73 -48.5 -118t-131.5 -45t-131.5 45z" />
    <glyph glyph-name="uni01D3" unicode="&#x1d3;" horiz-adv-x="734" 
d="M202 27q-69 37 -106 106t-37 163v361q0 25 15 39t41 14t41.5 -14.5t15.5 -38.5v-364q0 -102 50.5 -157t143.5 -55t144 55.5t51 156.5v364q0 24 15.5 38.5t41.5 14.5t41.5 -14t15.5 -39v-361q0 -91 -38.5 -160.5t-109 -107.5t-164.5 -38q-92 0 -161 37zM322 791l-105 127
q-13 16 -13 32q0 19 19 34q14 11 28 11q21 0 40 -25l76 -104l76 104q19 25 41 25q14 0 27 -10q20 -15 20 -35q0 -16 -14 -33l-105 -126q-19 -21 -45 -21t-45 21z" />
    <glyph glyph-name="Ucircumflex" unicode="&#xdb;" horiz-adv-x="734" 
d="M202 27q-69 37 -106 106t-37 163v361q0 25 15 39t41 14t41.5 -14.5t15.5 -38.5v-364q0 -102 50.5 -157t143.5 -55t144 55.5t51 156.5v364q0 24 15.5 38.5t41.5 14.5t41.5 -14t15.5 -39v-361q0 -91 -38.5 -160.5t-109 -107.5t-164.5 -38q-92 0 -161 37zM204 814
q0 17 13 33l105 126q19 22 45 22t45 -22l105 -126q13 -16 13 -33q0 -19 -18 -34q-14 -10 -28 -10q-22 0 -41 24l-76 104l-76 -104q-18 -24 -41 -24q-14 0 -27 10q-19 15 -19 34z" />
    <glyph glyph-name="Udieresis" unicode="&#xdc;" horiz-adv-x="734" 
d="M202 27q-69 37 -106 106t-37 163v361q0 25 15 39t41 14t41.5 -14.5t15.5 -38.5v-364q0 -102 50.5 -157t143.5 -55t144 55.5t51 156.5v364q0 24 15.5 38.5t41.5 14.5t41.5 -14t15.5 -39v-361q0 -91 -38.5 -160.5t-109 -107.5t-164.5 -38q-92 0 -161 37zM208.5 810
q-18.5 18 -18.5 44t18 44.5t46 18.5q27 0 45 -18t18 -45q0 -25 -18 -43.5t-45 -18.5t-45.5 18zM434.5 810q-18.5 18 -18.5 44t18 44.5t46 18.5t46 -18t18 -45q0 -25 -18.5 -43.5t-45.5 -18.5t-45.5 18z" />
    <glyph glyph-name="uni01D7" unicode="&#x1d7;" horiz-adv-x="734" 
d="M202 27q-69 37 -106 106t-37 163v361q0 25 15 39t41 14t41.5 -14.5t15.5 -38.5v-364q0 -102 50.5 -157t143.5 -55t144 55.5t51 156.5v364q0 24 15.5 38.5t41.5 14.5t41.5 -14t15.5 -39v-361q0 -91 -38.5 -160.5t-109 -107.5t-164.5 -38q-92 0 -161 37zM332 942q0 8 3 17
l47 122q7 17 19 26.5t27 9.5q12 0 24 -6q13 -7 21 -18t8 -24q0 -12 -7 -23l-68 -117q-6 -10 -16 -16t-21 -6t-19 4q-18 8 -18 31zM206.5 810q-18.5 18 -18.5 44t18 44.5t46 18.5q27 0 45 -18t18 -45q0 -25 -18 -43.5t-45 -18.5t-45.5 18zM432.5 810q-18.5 18 -18.5 44
t18 44.5t46 18.5t46 -18t18 -45q0 -25 -18.5 -43.5t-45.5 -18.5t-45.5 18z" />
    <glyph glyph-name="uni01D9" unicode="&#x1d9;" horiz-adv-x="734" 
d="M202 27q-69 37 -106 106t-37 163v361q0 25 15 39t41 14t41.5 -14.5t15.5 -38.5v-364q0 -102 50.5 -157t143.5 -55t144 55.5t51 156.5v364q0 24 15.5 38.5t41.5 14.5t41.5 -14t15.5 -39v-361q0 -91 -38.5 -160.5t-109 -107.5t-164.5 -38q-92 0 -161 37zM329 936l-96 110
q-12 14 -12 28q0 17 17 31q12 9 24 9q19 0 37 -22l69 -90l69 90q17 23 36 23q12 0 25 -10q17 -14 17 -31q0 -14 -12 -28l-96 -110q-16 -20 -39 -20q-24 0 -39 20zM210 810.5q-18 18.5 -18 43.5q0 27 18 45t45 18q28 0 46 -18.5t18 -44.5t-18.5 -44t-45.5 -18t-45 18.5z
M436 810.5q-18 18.5 -18 43.5q0 27 18 45t45 18q28 0 46.5 -18.5t18.5 -44.5t-18.5 -44t-46.5 -18q-27 0 -45 18.5z" />
    <glyph glyph-name="uni01DB" unicode="&#x1db;" horiz-adv-x="734" 
d="M202 27q-69 37 -106 106t-37 163v361q0 25 15 39t41 14t41.5 -14.5t15.5 -38.5v-364q0 -102 50.5 -157t143.5 -55t144 55.5t51 156.5v364q0 24 15.5 38.5t41.5 14.5t41.5 -14t15.5 -39v-361q0 -91 -38.5 -160.5t-109 -107.5t-164.5 -38q-92 0 -161 37zM363 907
q-11 0 -20.5 6t-15.5 16l-69 117q-7 11 -7 23q0 13 8 24t21 18q12 6 24 6q15 0 27 -9t19 -27l47 -122q4 -12 4 -18q0 -20 -19 -30q-8 -4 -19 -4zM209 810.5q-18 18.5 -18 43.5q0 27 18 45t45 18q28 0 46 -18.5t18 -44.5t-18.5 -44t-45.5 -18t-45 18.5zM435 810.5
q-18 18.5 -18 43.5q0 27 18 45t45 18q28 0 46.5 -18.5t18.5 -44.5t-18.5 -44t-46.5 -18q-27 0 -45 18.5z" />
    <glyph glyph-name="uni01D5" unicode="&#x1d5;" horiz-adv-x="734" 
d="M202 27q-69 37 -106 106t-37 163v361q0 25 15 39t41 14t41.5 -14.5t15.5 -38.5v-364q0 -102 50.5 -157t143.5 -55t144 55.5t51 156.5v364q0 24 15.5 38.5t41.5 14.5t41.5 -14t15.5 -39v-361q0 -91 -38.5 -160.5t-109 -107.5t-164.5 -38q-92 0 -161 37zM208.5 810
q-18.5 18 -18.5 44t18 44.5t46 18.5q27 0 45 -18t18 -45q0 -25 -18 -43.5t-45 -18.5t-45.5 18zM434.5 810q-18.5 18 -18.5 44t18 44.5t46 18.5t46 -18t18 -45q0 -25 -18.5 -43.5t-45.5 -18.5t-45.5 18zM190 1011q0 20 11.5 28t35.5 8h252q24 0 35.5 -8t11.5 -28
q0 -35 -47 -35h-252q-47 0 -47 35z" />
    <glyph glyph-name="uni1EE4" unicode="&#x1ee4;" horiz-adv-x="734" 
d="M202 27q-69 37 -106 106t-37 163v361q0 25 15 39t41 14t41.5 -14.5t15.5 -38.5v-364q0 -102 50.5 -157t143.5 -55t144 55.5t51 156.5v364q0 24 15.5 38.5t41.5 14.5t41.5 -14t15.5 -39v-361q0 -91 -38.5 -160.5t-109 -107.5t-164.5 -38q-92 0 -161 37zM314.5 -182.5
q-19.5 18.5 -19.5 47.5q0 31 19.5 49t52.5 18q32 0 51.5 -18t19.5 -49q0 -29 -19.5 -47.5t-51.5 -18.5q-33 0 -52.5 18.5z" />
    <glyph glyph-name="Ugrave" unicode="&#xd9;" horiz-adv-x="734" 
d="M202 27q-69 37 -106 106t-37 163v361q0 25 15 39t41 14t41.5 -14.5t15.5 -38.5v-364q0 -102 50.5 -157t143.5 -55t144 55.5t51 156.5v364q0 24 15.5 38.5t41.5 14.5t41.5 -14t15.5 -39v-361q0 -91 -38.5 -160.5t-109 -107.5t-164.5 -38q-92 0 -161 37zM356.5 779
q-10.5 6 -16.5 16l-80 139q-8 13 -8 25q0 24 32 41q14 7 28 7q30 0 45 -36l58 -145q3 -7 3 -15q0 -15 -10.5 -26.5t-29.5 -11.5q-11 0 -21.5 6z" />
    <glyph glyph-name="uni1EE6" unicode="&#x1ee6;" horiz-adv-x="734" 
d="M202 27q-69 37 -106 106t-37 163v361q0 25 15 39t41 14t41.5 -14.5t15.5 -38.5v-364q0 -102 50.5 -157t143.5 -55t144 55.5t51 156.5v364q0 24 15.5 38.5t41.5 14.5t41.5 -14t15.5 -39v-361q0 -91 -38.5 -160.5t-109 -107.5t-164.5 -38q-92 0 -161 37zM331 763
q-13 9 -13 25v6q0 17 10.5 30.5t29.5 28.5q15 13 21.5 20.5t6.5 16.5q0 12 -7.5 18.5t-21.5 6.5q-27 0 -47 -25q-11 -12 -26 -12q-13 0 -24 8q-16 10 -16 25q0 9 7 19q17 24 49 39.5t74 15.5q56 0 85 -23t29 -60q0 -21 -11.5 -36t-32.5 -32q-15 -13 -22 -21.5t-7 -17.5v-7
q0 -16 -13 -25t-36 -9q-22 0 -35 9z" />
    <glyph glyph-name="Uhorn" unicode="&#x1af;" horiz-adv-x="794" 
d="M821.5 763.5q12.5 -12.5 12.5 -35.5q0 -65 -42 -107t-111 -47h-6v-278q0 -91 -38.5 -160.5t-109 -107.5t-164.5 -38q-92 0 -161 37t-106 106t-37 163v361q0 25 15 39t41 14t41.5 -14.5t15.5 -38.5v-364q0 -102 50.5 -157t143.5 -55t144 55.5t51 156.5v364q0 24 15.5 38.5
t41.5 14.5t41.5 -14t15.5 -39v-7h3q65 8 65 78q0 48 43 48q23 0 35.5 -12.5z" />
    <glyph glyph-name="uni1EE8" unicode="&#x1ee8;" horiz-adv-x="794" 
d="M821.5 763.5q12.5 -12.5 12.5 -35.5q0 -65 -42 -107t-111 -47h-6v-278q0 -91 -38.5 -160.5t-109 -107.5t-164.5 -38q-92 0 -161 37t-106 106t-37 163v361q0 25 15 39t41 14t41.5 -14.5t15.5 -38.5v-364q0 -102 50.5 -157t143.5 -55t144 55.5t51 156.5v364q0 24 15.5 38.5
t41.5 14.5t41.5 -14t15.5 -39v-7h3q65 8 65 78q0 48 43 48q23 0 35.5 -12.5zM339.5 792q-5.5 9 -5.5 19q0 8 3 15l59 145q15 36 44 36q14 0 28 -7q32 -17 32 -41q0 -11 -8 -25l-80 -139q-6 -10 -16.5 -16t-21.5 -6q-9 0 -19 5t-15.5 14z" />
    <glyph glyph-name="uni1EF0" unicode="&#x1ef0;" horiz-adv-x="794" 
d="M821.5 763.5q12.5 -12.5 12.5 -35.5q0 -65 -42 -107t-111 -47h-6v-278q0 -91 -38.5 -160.5t-109 -107.5t-164.5 -38q-92 0 -161 37t-106 106t-37 163v361q0 25 15 39t41 14t41.5 -14.5t15.5 -38.5v-364q0 -102 50.5 -157t143.5 -55t144 55.5t51 156.5v364q0 24 15.5 38.5
t41.5 14.5t41.5 -14t15.5 -39v-7h3q65 8 65 78q0 48 43 48q23 0 35.5 -12.5zM314.5 -182.5q-19.5 18.5 -19.5 47.5q0 31 19.5 49t52.5 18q32 0 51.5 -18t19.5 -49q0 -29 -19.5 -47.5t-51.5 -18.5q-33 0 -52.5 18.5z" />
    <glyph glyph-name="uni1EEA" unicode="&#x1eea;" horiz-adv-x="794" 
d="M821.5 763.5q12.5 -12.5 12.5 -35.5q0 -65 -42 -107t-111 -47h-6v-278q0 -91 -38.5 -160.5t-109 -107.5t-164.5 -38q-92 0 -161 37t-106 106t-37 163v361q0 25 15 39t41 14t41.5 -14.5t15.5 -38.5v-364q0 -102 50.5 -157t143.5 -55t144 55.5t51 156.5v364q0 24 15.5 38.5
t41.5 14.5t41.5 -14t15.5 -39v-7h3q65 8 65 78q0 48 43 48q23 0 35.5 -12.5zM344.5 779q-10.5 6 -16.5 16l-80 139q-8 13 -8 25q0 24 32 41q14 7 28 7q30 0 45 -36l58 -145q3 -7 3 -15q0 -15 -10.5 -26.5t-29.5 -11.5q-11 0 -21.5 6z" />
    <glyph glyph-name="uni1EEC" unicode="&#x1eec;" horiz-adv-x="794" 
d="M821.5 763.5q12.5 -12.5 12.5 -35.5q0 -65 -42 -107t-111 -47h-6v-278q0 -91 -38.5 -160.5t-109 -107.5t-164.5 -38q-92 0 -161 37t-106 106t-37 163v361q0 25 15 39t41 14t41.5 -14.5t15.5 -38.5v-364q0 -102 50.5 -157t143.5 -55t144 55.5t51 156.5v364q0 24 15.5 38.5
t41.5 14.5t41.5 -14t15.5 -39v-7h3q65 8 65 78q0 48 43 48q23 0 35.5 -12.5zM331 763q-13 9 -13 25v6q0 17 10.5 30.5t29.5 28.5q15 13 21.5 20.5t6.5 16.5q0 12 -7.5 18.5t-21.5 6.5q-27 0 -47 -25q-11 -12 -26 -12q-13 0 -24 8q-16 10 -16 25q0 9 7 19q17 24 49 39.5
t74 15.5q56 0 85 -23t29 -60q0 -21 -11.5 -36t-32.5 -32q-15 -13 -22 -21.5t-7 -17.5v-7q0 -16 -13 -25t-36 -9q-22 0 -35 9z" />
    <glyph glyph-name="uni1EEE" unicode="&#x1eee;" horiz-adv-x="794" 
d="M821.5 763.5q12.5 -12.5 12.5 -35.5q0 -65 -42 -107t-111 -47h-6v-278q0 -91 -38.5 -160.5t-109 -107.5t-164.5 -38q-92 0 -161 37t-106 106t-37 163v361q0 25 15 39t41 14t41.5 -14.5t15.5 -38.5v-364q0 -102 50.5 -157t143.5 -55t144 55.5t51 156.5v364q0 24 15.5 38.5
t41.5 14.5t41.5 -14t15.5 -39v-7h3q65 8 65 78q0 48 43 48q23 0 35.5 -12.5zM192 807.5q-11 9.5 -11 24.5q0 10 4 19q32 82 108 82q26 0 47 -9t47 -26q17 -11 28 -16.5t22 -5.5q15 0 24 8.5t17 27.5q13 28 37 28q17 0 28 -9.5t11 -24.5q0 -10 -4 -19q-32 -82 -108 -82
q-25 0 -43.5 8t-42.5 24q-18 13 -31 19t-27 6q-15 0 -24 -8t-17 -27q-13 -29 -36 -29q-18 0 -29 9.5z" />
    <glyph glyph-name="Uhungarumlaut" unicode="&#x170;" horiz-adv-x="734" 
d="M202 27q-69 37 -106 106t-37 163v361q0 25 15 39t41 14t41.5 -14.5t15.5 -38.5v-364q0 -102 50.5 -157t143.5 -55t144 55.5t51 156.5v364q0 24 15.5 38.5t41.5 14.5t41.5 -14t15.5 -39v-361q0 -91 -38.5 -160.5t-109 -107.5t-164.5 -38q-92 0 -161 37zM426 809q0 15 8 30
l77 136q16 31 46 31q13 0 29 -8q15 -7 22.5 -17.5t7.5 -22.5q0 -15 -10 -28l-98 -134q-16 -24 -41 -24q-11 0 -21 6q-20 10 -20 31zM256 809q0 12 8 30l66 137q14 30 46 30q16 0 30 -7q28 -13 28 -39q0 -15 -9 -29l-87 -135q-15 -24 -40 -24q-12 0 -22 6q-20 10 -20 31z" />
    <glyph glyph-name="Umacron" unicode="&#x16a;" horiz-adv-x="734" 
d="M202 27q-69 37 -106 106t-37 163v361q0 25 15 39t41 14t41.5 -14.5t15.5 -38.5v-364q0 -102 50.5 -157t143.5 -55t144 55.5t51 156.5v364q0 24 15.5 38.5t41.5 14.5t41.5 -14t15.5 -39v-361q0 -91 -38.5 -160.5t-109 -107.5t-164.5 -38q-92 0 -161 37zM192 814
q0 20 11.5 28t35.5 8h252q24 0 35.5 -8t11.5 -28q0 -35 -47 -35h-252q-47 0 -47 35z" />
    <glyph glyph-name="Uogonek" unicode="&#x172;" horiz-adv-x="734" 
d="M659.5 696q15.5 -14 15.5 -39v-361q0 -122 -67.5 -203t-183.5 -98l-30 -25t-33 -36.5t-9 -35.5q0 -17 12 -26t29 -9q28 0 46 16q13 11 24 11t21 -10q12 -12 12 -24t-13 -25q-39 -39 -99 -39q-54 0 -88.5 24t-34.5 71q0 55 48 106q-116 16 -183 96t-67 207v361q0 25 15 39
t41 14t41.5 -14.5t15.5 -38.5v-364q0 -102 50.5 -157t143.5 -55t144 55.5t51 156.5v364q0 24 15.5 38.5t41.5 14.5t41.5 -14z" />
    <glyph glyph-name="Uring" unicode="&#x16e;" horiz-adv-x="734" 
d="M202 27q-69 37 -106 106t-37 163v361q0 25 15 39t41 14t41.5 -14.5t15.5 -38.5v-364q0 -102 50.5 -157t143.5 -55t144 55.5t51 156.5v364q0 24 15.5 38.5t41.5 14.5t41.5 -14t15.5 -39v-361q0 -91 -38.5 -160.5t-109 -107.5t-164.5 -38q-92 0 -161 37zM278.5 784
q-33.5 30 -33.5 78q0 47 33.5 77t88.5 30t88 -30t33 -77q0 -48 -33 -78t-88 -30t-88.5 30zM403.5 827q13.5 13 13.5 35q0 23 -13.5 36t-36.5 13t-36.5 -13t-13.5 -36q0 -22 13.5 -35t36.5 -13t36.5 13z" />
    <glyph glyph-name="Utilde" unicode="&#x168;" horiz-adv-x="734" 
d="M202 27q-69 37 -106 106t-37 163v361q0 25 15 39t41 14t41.5 -14.5t15.5 -38.5v-364q0 -102 50.5 -157t143.5 -55t144 55.5t51 156.5v364q0 24 15.5 38.5t41.5 14.5t41.5 -14t15.5 -39v-361q0 -91 -38.5 -160.5t-109 -107.5t-164.5 -38q-92 0 -161 37zM191 806.5
q-11 9.5 -11 24.5q0 10 4 19q32 82 108 82q26 0 47 -9t47 -26q17 -11 28 -16.5t22 -5.5q15 0 24 8.5t17 27.5q13 28 37 28q17 0 28 -9.5t11 -24.5q0 -10 -4 -19q-32 -82 -108 -82q-25 0 -43.5 8t-42.5 24q-18 13 -31 19t-27 6q-15 0 -24 -8t-17 -27q-13 -29 -36 -29
q-18 0 -29 9.5z" />
    <glyph glyph-name="V" unicode="V" horiz-adv-x="759" 
d="M270 38.5q-43 48.5 -77 157.5l-140 453q-4 16 -4 22q0 39 53 39q27 0 40.5 -10.5t21.5 -35.5l140 -459q20 -68 37.5 -96.5t38.5 -28.5q20 0 37.5 28.5t38.5 96.5l139 459q8 25 21.5 35.5t40.5 10.5q53 0 53 -38q0 -11 -4 -23l-140 -453q-35 -111 -77.5 -158.5
t-108.5 -47.5q-67 0 -110 48.5z" />
    <glyph glyph-name="W" unicode="W" horiz-adv-x="962" 
d="M197 22.5q-31 32.5 -44 101.5l-102 526q-2 12 -2 16q0 21 13.5 32.5t38.5 11.5q27 0 41.5 -11.5t19.5 -35.5l99 -547q4 -20 8.5 -27.5t13.5 -7.5q18 0 22 34l68 491q7 49 35.5 76.5t72.5 27.5q45 0 73 -27.5t35 -76.5l69 -491q2 -18 7 -26t15 -8q8 0 12.5 7.5t9.5 27.5
l98 547q5 24 19.5 35.5t41.5 11.5q25 0 39 -11.5t14 -32.5q0 -4 -2 -16l-103 -526q-13 -68 -43.5 -101t-82.5 -33t-81 32t-38 99l-66 467q-2 17 -6 24t-11 7t-11 -7t-6 -24l-65 -467q-10 -67 -38.5 -99t-80.5 -32t-83 32.5z" />
    <glyph glyph-name="Wacute" unicode="&#x1e82;" horiz-adv-x="962" 
d="M197 22.5q-31 32.5 -44 101.5l-102 526q-2 12 -2 16q0 21 13.5 32.5t38.5 11.5q27 0 41.5 -11.5t19.5 -35.5l99 -547q4 -20 8.5 -27.5t13.5 -7.5q18 0 22 34l68 491q7 49 35.5 76.5t72.5 27.5q45 0 73 -27.5t35 -76.5l69 -491q2 -18 7 -26t15 -8q8 0 12.5 7.5t9.5 27.5
l98 547q5 24 19.5 35.5t41.5 11.5q25 0 39 -11.5t14 -32.5q0 -4 -2 -16l-103 -526q-13 -68 -43.5 -101t-82.5 -33t-81 32t-38 99l-66 467q-2 17 -6 24t-11 7t-11 -7t-6 -24l-65 -467q-10 -67 -38.5 -99t-80.5 -32t-83 32.5zM454.5 792q-5.5 9 -5.5 19q0 8 3 15l59 145
q15 36 44 36q14 0 28 -7q32 -17 32 -41q0 -11 -8 -25l-80 -139q-6 -10 -16.5 -16t-21.5 -6q-9 0 -19 5t-15.5 14z" />
    <glyph glyph-name="Wcircumflex" unicode="&#x174;" horiz-adv-x="962" 
d="M197 22.5q-31 32.5 -44 101.5l-102 526q-2 12 -2 16q0 21 13.5 32.5t38.5 11.5q27 0 41.5 -11.5t19.5 -35.5l99 -547q4 -20 8.5 -27.5t13.5 -7.5q18 0 22 34l68 491q7 49 35.5 76.5t72.5 27.5q45 0 73 -27.5t35 -76.5l69 -491q2 -18 7 -26t15 -8q8 0 12.5 7.5t9.5 27.5
l98 547q5 24 19.5 35.5t41.5 11.5q25 0 39 -11.5t14 -32.5q0 -4 -2 -16l-103 -526q-13 -68 -43.5 -101t-82.5 -33t-81 32t-38 99l-66 467q-2 17 -6 24t-11 7t-11 -7t-6 -24l-65 -467q-10 -67 -38.5 -99t-80.5 -32t-83 32.5zM318 814q0 17 13 33l105 126q19 22 45 22t45 -22
l105 -126q13 -16 13 -33q0 -19 -18 -34q-14 -10 -28 -10q-22 0 -41 24l-76 104l-76 -104q-18 -24 -41 -24q-14 0 -27 10q-19 15 -19 34z" />
    <glyph glyph-name="Wdieresis" unicode="&#x1e84;" horiz-adv-x="962" 
d="M197 22.5q-31 32.5 -44 101.5l-102 526q-2 12 -2 16q0 21 13.5 32.5t38.5 11.5q27 0 41.5 -11.5t19.5 -35.5l99 -547q4 -20 8.5 -27.5t13.5 -7.5q18 0 22 34l68 491q7 49 35.5 76.5t72.5 27.5q45 0 73 -27.5t35 -76.5l69 -491q2 -18 7 -26t15 -8q8 0 12.5 7.5t9.5 27.5
l98 547q5 24 19.5 35.5t41.5 11.5q25 0 39 -11.5t14 -32.5q0 -4 -2 -16l-103 -526q-13 -68 -43.5 -101t-82.5 -33t-81 32t-38 99l-66 467q-2 17 -6 24t-11 7t-11 -7t-6 -24l-65 -467q-10 -67 -38.5 -99t-80.5 -32t-83 32.5zM323.5 810q-18.5 18 -18.5 44t18 44.5t46 18.5
q27 0 45 -18t18 -45q0 -25 -18 -43.5t-45 -18.5t-45.5 18zM549.5 810q-18.5 18 -18.5 44t18 44.5t46 18.5t46 -18t18 -45q0 -25 -18.5 -43.5t-45.5 -18.5t-45.5 18z" />
    <glyph glyph-name="Wgrave" unicode="&#x1e80;" horiz-adv-x="962" 
d="M197 22.5q-31 32.5 -44 101.5l-102 526q-2 12 -2 16q0 21 13.5 32.5t38.5 11.5q27 0 41.5 -11.5t19.5 -35.5l99 -547q4 -20 8.5 -27.5t13.5 -7.5q18 0 22 34l68 491q7 49 35.5 76.5t72.5 27.5q45 0 73 -27.5t35 -76.5l69 -491q2 -18 7 -26t15 -8q8 0 12.5 7.5t9.5 27.5
l98 547q5 24 19.5 35.5t41.5 11.5q25 0 39 -11.5t14 -32.5q0 -4 -2 -16l-103 -526q-13 -68 -43.5 -101t-82.5 -33t-81 32t-38 99l-66 467q-2 17 -6 24t-11 7t-11 -7t-6 -24l-65 -467q-10 -67 -38.5 -99t-80.5 -32t-83 32.5zM471.5 779q-10.5 6 -16.5 16l-80 139q-8 13 -8 25
q0 24 32 41q14 7 28 7q30 0 45 -36l58 -145q3 -7 3 -15q0 -15 -10.5 -26.5t-29.5 -11.5q-11 0 -21.5 6z" />
    <glyph glyph-name="X" unicode="X" horiz-adv-x="713" 
d="M664 42q0 -13 -6.5 -24.5t-17.5 -18.5q-14 -8 -27 -8q-23 0 -44 26l-212 258l-213 -258q-21 -26 -44 -26q-13 0 -27 8q-11 7 -17.5 18.5t-6.5 24.5q0 19 10 30l232 283l-219 267q-14 17 -14 37q0 13 6 24t16 17q15 9 29 9q25 0 45 -26l203 -247l202 247q20 26 45 26
q14 0 29 -9q10 -7 16 -18t6 -23q0 -21 -13 -37l-220 -267l232 -283q10 -11 10 -30z" />
    <glyph glyph-name="Y" unicode="Y" horiz-adv-x="721" 
d="M657 696q15 -14 15 -39v-112q0 -132 -67.5 -216t-186.5 -101v-185q0 -24 -15.5 -38.5t-41.5 -14.5t-41.5 14t-15.5 39v185q-120 17 -187.5 100t-67.5 217v112q0 25 15.5 39t41.5 14t41.5 -14.5t15.5 -38.5v-115q0 -109 51.5 -168t146.5 -59q94 0 145.5 59.5t51.5 167.5
v115q0 24 16 38.5t42 14.5t41 -14z" />
    <glyph glyph-name="Yacute" unicode="&#xdd;" horiz-adv-x="721" 
d="M657 696q15 -14 15 -39v-112q0 -132 -67.5 -216t-186.5 -101v-185q0 -24 -15.5 -38.5t-41.5 -14.5t-41.5 14t-15.5 39v185q-120 17 -187.5 100t-67.5 217v112q0 25 15.5 39t41.5 14t41.5 -14.5t15.5 -38.5v-115q0 -109 51.5 -168t146.5 -59q94 0 145.5 59.5t51.5 167.5
v115q0 24 16 38.5t42 14.5t41 -14zM333.5 792q-5.5 9 -5.5 19q0 8 3 15l59 145q15 36 44 36q14 0 28 -7q32 -17 32 -41q0 -11 -8 -25l-80 -139q-6 -10 -16.5 -16t-21.5 -6q-9 0 -19 5t-15.5 14z" />
    <glyph glyph-name="Ycircumflex" unicode="&#x176;" horiz-adv-x="721" 
d="M657 696q15 -14 15 -39v-112q0 -132 -67.5 -216t-186.5 -101v-185q0 -24 -15.5 -38.5t-41.5 -14.5t-41.5 14t-15.5 39v185q-120 17 -187.5 100t-67.5 217v112q0 25 15.5 39t41.5 14t41.5 -14.5t15.5 -38.5v-115q0 -109 51.5 -168t146.5 -59q94 0 145.5 59.5t51.5 167.5
v115q0 24 16 38.5t42 14.5t41 -14zM198 814q0 17 13 33l105 126q19 22 45 22t45 -22l105 -126q13 -16 13 -33q0 -19 -18 -34q-14 -10 -28 -10q-22 0 -41 24l-76 104l-76 -104q-18 -24 -41 -24q-14 0 -27 10q-19 15 -19 34z" />
    <glyph glyph-name="Ydieresis" unicode="&#x178;" horiz-adv-x="721" 
d="M657 696q15 -14 15 -39v-112q0 -132 -67.5 -216t-186.5 -101v-185q0 -24 -15.5 -38.5t-41.5 -14.5t-41.5 14t-15.5 39v185q-120 17 -187.5 100t-67.5 217v112q0 25 15.5 39t41.5 14t41.5 -14.5t15.5 -38.5v-115q0 -109 51.5 -168t146.5 -59q94 0 145.5 59.5t51.5 167.5
v115q0 24 16 38.5t42 14.5t41 -14zM202.5 810q-18.5 18 -18.5 44t18 44.5t46 18.5q27 0 45 -18t18 -45q0 -25 -18 -43.5t-45 -18.5t-45.5 18zM428.5 810q-18.5 18 -18.5 44t18 44.5t46 18.5t46 -18t18 -45q0 -25 -18.5 -43.5t-45.5 -18.5t-45.5 18z" />
    <glyph glyph-name="uni1E8E" unicode="&#x1e8e;" horiz-adv-x="721" 
d="M657 696q15 -14 15 -39v-112q0 -132 -67.5 -216t-186.5 -101v-185q0 -24 -15.5 -38.5t-41.5 -14.5t-41.5 14t-15.5 39v185q-120 17 -187.5 100t-67.5 217v112q0 25 15.5 39t41.5 14t41.5 -14.5t15.5 -38.5v-115q0 -109 51.5 -168t146.5 -59q94 0 145.5 59.5t51.5 167.5
v115q0 24 16 38.5t42 14.5t41 -14zM309.5 804.5q-20.5 19.5 -20.5 47.5t20.5 47.5t51.5 19.5q30 0 50.5 -19.5t20.5 -47.5t-20.5 -47.5t-50.5 -19.5q-31 0 -51.5 19.5z" />
    <glyph glyph-name="uni1EF4" unicode="&#x1ef4;" horiz-adv-x="721" 
d="M657 696q15 -14 15 -39v-112q0 -132 -67.5 -216t-186.5 -101v-185q0 -24 -15.5 -38.5t-41.5 -14.5t-41.5 14t-15.5 39v185q-120 17 -187.5 100t-67.5 217v112q0 25 15.5 39t41.5 14t41.5 -14.5t15.5 -38.5v-115q0 -109 51.5 -168t146.5 -59q94 0 145.5 59.5t51.5 167.5
v115q0 24 16 38.5t42 14.5t41 -14zM308.5 -182.5q-19.5 18.5 -19.5 47.5q0 31 19.5 49t52.5 18q32 0 51.5 -18t19.5 -49q0 -29 -19.5 -47.5t-51.5 -18.5q-33 0 -52.5 18.5z" />
    <glyph glyph-name="Ygrave" unicode="&#x1ef2;" horiz-adv-x="721" 
d="M657 696q15 -14 15 -39v-112q0 -132 -67.5 -216t-186.5 -101v-185q0 -24 -15.5 -38.5t-41.5 -14.5t-41.5 14t-15.5 39v185q-120 17 -187.5 100t-67.5 217v112q0 25 15.5 39t41.5 14t41.5 -14.5t15.5 -38.5v-115q0 -109 51.5 -168t146.5 -59q94 0 145.5 59.5t51.5 167.5
v115q0 24 16 38.5t42 14.5t41 -14zM350.5 779q-10.5 6 -16.5 16l-80 139q-8 13 -8 25q0 24 32 41q14 7 28 7q30 0 45 -36l58 -145q3 -7 3 -15q0 -15 -10.5 -26.5t-29.5 -11.5q-11 0 -21.5 6z" />
    <glyph glyph-name="uni1EF6" unicode="&#x1ef6;" horiz-adv-x="721" 
d="M657 696q15 -14 15 -39v-112q0 -132 -67.5 -216t-186.5 -101v-185q0 -24 -15.5 -38.5t-41.5 -14.5t-41.5 14t-15.5 39v185q-120 17 -187.5 100t-67.5 217v112q0 25 15.5 39t41.5 14t41.5 -14.5t15.5 -38.5v-115q0 -109 51.5 -168t146.5 -59q94 0 145.5 59.5t51.5 167.5
v115q0 24 16 38.5t42 14.5t41 -14zM325 763q-13 9 -13 25v6q0 17 10.5 30.5t29.5 28.5q15 13 21.5 20.5t6.5 16.5q0 12 -7.5 18.5t-21.5 6.5q-27 0 -47 -25q-11 -12 -26 -12q-13 0 -24 8q-16 10 -16 25q0 9 7 19q17 24 49 39.5t74 15.5q56 0 85 -23t29 -60q0 -21 -11.5 -36
t-32.5 -32q-15 -13 -22 -21.5t-7 -17.5v-7q0 -16 -13 -25t-36 -9q-22 0 -35 9z" />
    <glyph glyph-name="uni1EF8" unicode="&#x1ef8;" horiz-adv-x="721" 
d="M657 696q15 -14 15 -39v-112q0 -132 -67.5 -216t-186.5 -101v-185q0 -24 -15.5 -38.5t-41.5 -14.5t-41.5 14t-15.5 39v185q-120 17 -187.5 100t-67.5 217v112q0 25 15.5 39t41.5 14t41.5 -14.5t15.5 -38.5v-115q0 -109 51.5 -168t146.5 -59q94 0 145.5 59.5t51.5 167.5
v115q0 24 16 38.5t42 14.5t41 -14zM185 806.5q-11 9.5 -11 24.5q0 10 4 19q32 82 108 82q26 0 47 -9t47 -26q17 -11 28 -16.5t22 -5.5q15 0 24 8.5t17 27.5q13 28 37 28q17 0 28 -9.5t11 -24.5q0 -10 -4 -19q-32 -82 -108 -82q-25 0 -43.5 8t-42.5 24q-18 13 -31 19t-27 6
q-15 0 -24 -8t-17 -27q-13 -29 -36 -29q-18 0 -29 9.5z" />
    <glyph glyph-name="Z" unicode="Z" horiz-adv-x="717" 
d="M83.5 28.5q-34.5 28.5 -34.5 77.5q0 37 14.5 64.5t54.5 58.5l400 310q15 12 21.5 21.5t6.5 23.5q0 27 -38 27h-380q-26 0 -43 11.5t-17 32.5q0 22 17 33.5t43 11.5h404q60 0 94 -27.5t34 -78.5q0 -40 -14 -65.5t-55 -56.5l-400 -311q-15 -11 -21.5 -21.5t-6.5 -24.5
q0 -26 47 -26h398q26 0 43 -11.5t17 -32.5q0 -22 -17 -33.5t-43 -11.5h-431q-59 0 -93.5 28.5z" />
    <glyph glyph-name="Zacute" unicode="&#x179;" horiz-adv-x="717" 
d="M83.5 28.5q-34.5 28.5 -34.5 77.5q0 37 14.5 64.5t54.5 58.5l400 310q15 12 21.5 21.5t6.5 23.5q0 27 -38 27h-380q-26 0 -43 11.5t-17 32.5q0 22 17 33.5t43 11.5h404q60 0 94 -27.5t34 -78.5q0 -40 -14 -65.5t-55 -56.5l-400 -311q-15 -11 -21.5 -21.5t-6.5 -24.5
q0 -26 47 -26h398q26 0 43 -11.5t17 -32.5q0 -22 -17 -33.5t-43 -11.5h-431q-59 0 -93.5 28.5zM342.5 792q-5.5 9 -5.5 19q0 8 3 15l59 145q15 36 44 36q14 0 28 -7q32 -17 32 -41q0 -11 -8 -25l-80 -139q-6 -10 -16.5 -16t-21.5 -6q-9 0 -19 5t-15.5 14z" />
    <glyph glyph-name="Zcaron" unicode="&#x17d;" horiz-adv-x="717" 
d="M83.5 28.5q-34.5 28.5 -34.5 77.5q0 37 14.5 64.5t54.5 58.5l400 310q15 12 21.5 21.5t6.5 23.5q0 27 -38 27h-380q-26 0 -43 11.5t-17 32.5q0 22 17 33.5t43 11.5h404q60 0 94 -27.5t34 -78.5q0 -40 -14 -65.5t-55 -56.5l-400 -311q-15 -11 -21.5 -21.5t-6.5 -24.5
q0 -26 47 -26h398q26 0 43 -11.5t17 -32.5q0 -22 -17 -33.5t-43 -11.5h-431q-59 0 -93.5 28.5zM324 791l-105 127q-13 16 -13 32q0 19 19 34q14 11 28 11q21 0 40 -25l76 -104l76 104q19 25 41 25q14 0 27 -10q20 -15 20 -35q0 -16 -14 -33l-105 -126q-19 -21 -45 -21
t-45 21z" />
    <glyph glyph-name="Zdotaccent" unicode="&#x17b;" horiz-adv-x="717" 
d="M83.5 28.5q-34.5 28.5 -34.5 77.5q0 37 14.5 64.5t54.5 58.5l400 310q15 12 21.5 21.5t6.5 23.5q0 27 -38 27h-380q-26 0 -43 11.5t-17 32.5q0 22 17 33.5t43 11.5h404q60 0 94 -27.5t34 -78.5q0 -40 -14 -65.5t-55 -56.5l-400 -311q-15 -11 -21.5 -21.5t-6.5 -24.5
q0 -26 47 -26h398q26 0 43 -11.5t17 -32.5q0 -22 -17 -33.5t-43 -11.5h-431q-59 0 -93.5 28.5zM317.5 804.5q-20.5 19.5 -20.5 47.5t20.5 47.5t51.5 19.5q30 0 50.5 -19.5t20.5 -47.5t-20.5 -47.5t-50.5 -19.5q-31 0 -51.5 19.5z" />
    <glyph glyph-name="uni1E92" unicode="&#x1e92;" horiz-adv-x="717" 
d="M83.5 28.5q-34.5 28.5 -34.5 77.5q0 37 14.5 64.5t54.5 58.5l400 310q15 12 21.5 21.5t6.5 23.5q0 27 -38 27h-380q-26 0 -43 11.5t-17 32.5q0 22 17 33.5t43 11.5h404q60 0 94 -27.5t34 -78.5q0 -40 -14 -65.5t-55 -56.5l-400 -311q-15 -11 -21.5 -21.5t-6.5 -24.5
q0 -26 47 -26h398q26 0 43 -11.5t17 -32.5q0 -22 -17 -33.5t-43 -11.5h-431q-59 0 -93.5 28.5zM316.5 -182.5q-19.5 18.5 -19.5 47.5q0 31 19.5 49t52.5 18q32 0 51.5 -18t19.5 -49q0 -29 -19.5 -47.5t-51.5 -18.5q-33 0 -52.5 18.5z" />
    <glyph glyph-name="a" unicode="a" horiz-adv-x="583" 
d="M96 35q-57 45 -57 120q0 74 60.5 118t163.5 44q100 0 156 -46v38q0 50 -31.5 76.5t-92.5 26.5q-86 0 -148 -38q-21 -12 -38 -12q-18 0 -33 16q-10 11 -10 26q0 24 21 38q36 27 91 42.5t115 15.5q113 0 177 -51t64 -141v-268q0 -23 -15 -36.5t-41 -13.5t-40.5 13t-14.5 36
v19q-59 -68 -175 -68q-95 0 -152 45zM380 94.5q40 22.5 40 61.5q0 38 -39 60t-107 22q-59 0 -91.5 -22t-32.5 -61q0 -40 31.5 -61.5t90.5 -21.5q68 0 108 22.5z" />
    <glyph glyph-name="aacute" unicode="&#xe1;" horiz-adv-x="587" 
d="M96 35q-57 45 -57 120q0 74 60.5 118t163.5 44q100 0 156 -46v38q0 50 -31.5 76.5t-92.5 26.5q-86 0 -148 -38q-21 -12 -38 -12q-18 0 -33 16q-10 11 -10 26q0 24 21 38q36 27 91 42.5t115 15.5q113 0 177 -51t64 -141v-268q0 -23 -15 -36.5t-41 -13.5t-40.5 13t-14.5 36
v19q-59 -68 -175 -68q-95 0 -152 45zM380 94.5q40 22.5 40 61.5q0 38 -39 60t-107 22q-59 0 -91.5 -22t-32.5 -61q0 -40 31.5 -61.5t90.5 -21.5q68 0 108 22.5zM279.5 575q-5.5 9 -5.5 19q0 8 3 15l59 145q15 36 44 36q14 0 28 -7q32 -17 32 -41q0 -11 -8 -25l-80 -139
q-6 -10 -16.5 -16t-21.5 -6q-9 0 -19 5t-15.5 14z" />
    <glyph glyph-name="abreve" unicode="&#x103;" horiz-adv-x="587" 
d="M96 35q-57 45 -57 120q0 74 60.5 118t163.5 44q100 0 156 -46v38q0 50 -31.5 76.5t-92.5 26.5q-86 0 -148 -38q-21 -12 -38 -12q-18 0 -33 16q-10 11 -10 26q0 24 21 38q36 27 91 42.5t115 15.5q113 0 177 -51t64 -141v-268q0 -23 -15 -36.5t-41 -13.5t-40.5 13t-14.5 36
v19q-59 -68 -175 -68q-95 0 -152 45zM380 94.5q40 22.5 40 61.5q0 38 -39 60t-107 22q-59 0 -91.5 -22t-32.5 -61q0 -40 31.5 -61.5t90.5 -21.5q68 0 108 22.5zM173.5 600q-48.5 45 -48.5 118q0 25 13.5 38t38.5 13t38.5 -13t13.5 -38q0 -39 19.5 -60.5t56.5 -21.5
t56.5 21.5t19.5 60.5q0 24 13.5 37.5t38.5 13.5t38.5 -13t13.5 -38q0 -73 -48.5 -118t-131.5 -45t-131.5 45z" />
    <glyph glyph-name="uni1EAF" unicode="&#x1eaf;" horiz-adv-x="587" 
d="M96 35q-57 45 -57 120q0 74 60.5 118t163.5 44q100 0 156 -46v38q0 50 -31.5 76.5t-92.5 26.5q-86 0 -148 -38q-21 -12 -38 -12q-18 0 -33 16q-10 11 -10 26q0 24 21 38q36 27 91 42.5t115 15.5q113 0 177 -51t64 -141v-268q0 -23 -15 -36.5t-41 -13.5t-40.5 13t-14.5 36
v19q-59 -68 -175 -68q-95 0 -152 45zM380 94.5q40 22.5 40 61.5q0 38 -39 60t-107 22q-59 0 -91.5 -22t-32.5 -61q0 -40 31.5 -61.5t90.5 -21.5q68 0 108 22.5zM266 757q0 13 5 20l63 107q7 12 18 18.5t23 6.5q15 0 29 -9q21 -13 21 -37q0 -16 -10 -27l-82 -97
q-14 -16 -32 -16q-12 0 -22 7q-13 10 -13 27zM174.5 593q-50.5 41 -50.5 108q0 25 13.5 38t38.5 13q51 0 51 -51q0 -68 78 -68q77 0 77 68q0 25 13.5 38t38.5 13t38 -13t13 -38q0 -68 -50 -108.5t-130 -40.5t-130.5 41z" />
    <glyph glyph-name="uni1EB7" unicode="&#x1eb7;" horiz-adv-x="587" 
d="M96 35q-57 45 -57 120q0 74 60.5 118t163.5 44q100 0 156 -46v38q0 50 -31.5 76.5t-92.5 26.5q-86 0 -148 -38q-21 -12 -38 -12q-18 0 -33 16q-10 11 -10 26q0 24 21 38q36 27 91 42.5t115 15.5q113 0 177 -51t64 -141v-268q0 -23 -15 -36.5t-41 -13.5t-40.5 13t-14.5 36
v19q-59 -68 -175 -68q-95 0 -152 45zM380 94.5q40 22.5 40 61.5q0 38 -39 60t-107 22q-59 0 -91.5 -22t-32.5 -61q0 -40 31.5 -61.5t90.5 -21.5q68 0 108 22.5zM253.5 -182.5q-19.5 18.5 -19.5 47.5q0 31 19.5 49t52.5 18q32 0 51.5 -18t19.5 -49q0 -29 -19.5 -47.5
t-51.5 -18.5q-33 0 -52.5 18.5zM173.5 600q-48.5 45 -48.5 118q0 25 13.5 38t38.5 13t38.5 -13t13.5 -38q0 -39 19.5 -60.5t56.5 -21.5t56.5 21.5t19.5 60.5q0 24 13.5 37.5t38.5 13.5t38.5 -13t13.5 -38q0 -73 -48.5 -118t-131.5 -45t-131.5 45z" />
    <glyph glyph-name="uni1EB1" unicode="&#x1eb1;" horiz-adv-x="587" 
d="M96 35q-57 45 -57 120q0 74 60.5 118t163.5 44q100 0 156 -46v38q0 50 -31.5 76.5t-92.5 26.5q-86 0 -148 -38q-21 -12 -38 -12q-18 0 -33 16q-10 11 -10 26q0 24 21 38q36 27 91 42.5t115 15.5q113 0 177 -51t64 -141v-268q0 -23 -15 -36.5t-41 -13.5t-40.5 13t-14.5 36
v19q-59 -68 -175 -68q-95 0 -152 45zM380 94.5q40 22.5 40 61.5q0 38 -39 60t-107 22q-59 0 -91.5 -22t-32.5 -61q0 -40 31.5 -61.5t90.5 -21.5q68 0 108 22.5zM309 723q-18 0 -32 16l-81 97q-11 14 -11 28q0 22 20 36q13 9 29 9q27 0 42 -25l63 -107q6 -10 6 -21
q0 -15 -14 -26q-10 -7 -22 -7zM175.5 593q-50.5 41 -50.5 108q0 25 13.5 38t38.5 13q51 0 51 -51q0 -68 78 -68q77 0 77 68q0 25 13.5 38t38.5 13t38 -13t13 -38q0 -68 -50 -108.5t-130 -40.5t-130.5 41z" />
    <glyph glyph-name="uni1EB3" unicode="&#x1eb3;" horiz-adv-x="587" 
d="M96 35q-57 45 -57 120q0 74 60.5 118t163.5 44q100 0 156 -46v38q0 50 -31.5 76.5t-92.5 26.5q-86 0 -148 -38q-21 -12 -38 -12q-18 0 -33 16q-10 11 -10 26q0 24 21 38q36 27 91 42.5t115 15.5q113 0 177 -51t64 -141v-268q0 -23 -15 -36.5t-41 -13.5t-40.5 13t-14.5 36
v19q-59 -68 -175 -68q-95 0 -152 45zM380 94.5q40 22.5 40 61.5q0 38 -39 60t-107 22q-59 0 -91.5 -22t-32.5 -61q0 -40 31.5 -61.5t90.5 -21.5q68 0 108 22.5zM275 718q-11 8 -11 22v5q0 15 9 26.5t26 25.5q14 13 19.5 19.5t5.5 14.5q0 10 -7 16t-19 6q-20 0 -41 -21
q-11 -12 -25 -12q-10 0 -20 7q-13 9 -13 23q0 10 6 17q14 20 42.5 34t64.5 14q50 0 75 -20t25 -53q0 -19 -9.5 -31.5t-28.5 -29.5q-14 -12 -20 -19.5t-6 -16.5v-5q0 -14 -11 -22t-31 -8t-31 8zM175.5 593q-50.5 41 -50.5 108q0 25 13.5 38t38.5 13q51 0 51 -51q0 -68 78 -68
q77 0 77 68q0 25 13.5 38t38.5 13t38 -13t13 -38q0 -68 -50 -108.5t-130 -40.5t-130.5 41z" />
    <glyph glyph-name="uni1EB5" unicode="&#x1eb5;" horiz-adv-x="587" 
d="M96 35q-57 45 -57 120q0 74 60.5 118t163.5 44q100 0 156 -46v38q0 50 -31.5 76.5t-92.5 26.5q-86 0 -148 -38q-21 -12 -38 -12q-18 0 -33 16q-10 11 -10 26q0 24 21 38q36 27 91 42.5t115 15.5q113 0 177 -51t64 -141v-268q0 -23 -15 -36.5t-41 -13.5t-40.5 13t-14.5 36
v19q-59 -68 -175 -68q-95 0 -152 45zM380 94.5q40 22.5 40 61.5q0 38 -39 60t-107 22q-59 0 -91.5 -22t-32.5 -61q0 -40 31.5 -61.5t90.5 -21.5q68 0 108 22.5zM137 790.5q-10 8.5 -10 22.5q0 11 4 20q27 77 102 77q24 0 44.5 -8.5t45.5 -24.5q17 -11 27 -16t20 -5
q14 0 23 8t16 25q13 27 34 27q17 0 27 -9t10 -23q0 -9 -4 -18q-29 -78 -102 -78q-23 0 -41 8t-40 23q-17 12 -29.5 17.5t-25.5 5.5q-14 0 -23 -7.5t-17 -25.5q-11 -27 -34 -27q-17 0 -27 8.5zM175.5 593q-50.5 41 -50.5 108q0 25 13.5 38t38.5 13q51 0 51 -51q0 -68 78 -68
q77 0 77 68q0 25 13.5 38t38.5 13t38 -13t13 -38q0 -68 -50 -108.5t-130 -40.5t-130.5 41z" />
    <glyph glyph-name="uni01CE" unicode="&#x1ce;" horiz-adv-x="587" 
d="M96 35q-57 45 -57 120q0 74 60.5 118t163.5 44q100 0 156 -46v38q0 50 -31.5 76.5t-92.5 26.5q-86 0 -148 -38q-21 -12 -38 -12q-18 0 -33 16q-10 11 -10 26q0 24 21 38q36 27 91 42.5t115 15.5q113 0 177 -51t64 -141v-268q0 -23 -15 -36.5t-41 -13.5t-40.5 13t-14.5 36
v19q-59 -68 -175 -68q-95 0 -152 45zM380 94.5q40 22.5 40 61.5q0 38 -39 60t-107 22q-59 0 -91.5 -22t-32.5 -61q0 -40 31.5 -61.5t90.5 -21.5q68 0 108 22.5zM261 574l-105 127q-13 16 -13 32q0 19 19 34q14 11 28 11q21 0 40 -25l76 -104l76 104q19 25 41 25q14 0 27 -10
q20 -15 20 -35q0 -16 -14 -33l-105 -126q-19 -21 -45 -21t-45 21z" />
    <glyph glyph-name="acircumflex" unicode="&#xe2;" horiz-adv-x="587" 
d="M96 35q-57 45 -57 120q0 74 60.5 118t163.5 44q100 0 156 -46v38q0 50 -31.5 76.5t-92.5 26.5q-86 0 -148 -38q-21 -12 -38 -12q-18 0 -33 16q-10 11 -10 26q0 24 21 38q36 27 91 42.5t115 15.5q113 0 177 -51t64 -141v-268q0 -23 -15 -36.5t-41 -13.5t-40.5 13t-14.5 36
v19q-59 -68 -175 -68q-95 0 -152 45zM380 94.5q40 22.5 40 61.5q0 38 -39 60t-107 22q-59 0 -91.5 -22t-32.5 -61q0 -40 31.5 -61.5t90.5 -21.5q68 0 108 22.5zM143 597q0 17 13 33l105 126q19 22 45 22t45 -22l105 -126q13 -16 13 -33q0 -19 -18 -34q-14 -10 -28 -10
q-22 0 -41 24l-76 104l-76 -104q-18 -24 -41 -24q-14 0 -27 10q-19 15 -19 34z" />
    <glyph glyph-name="uni1EA5" unicode="&#x1ea5;" horiz-adv-x="587" 
d="M96 35q-57 45 -57 120q0 74 60.5 118t163.5 44q100 0 156 -46v38q0 50 -31.5 76.5t-92.5 26.5q-86 0 -148 -38q-21 -12 -38 -12q-18 0 -33 16q-10 11 -10 26q0 24 21 38q36 27 91 42.5t115 15.5q113 0 177 -51t64 -141v-268q0 -23 -15 -36.5t-41 -13.5t-40.5 13t-14.5 36
v19q-59 -68 -175 -68q-95 0 -152 45zM380 94.5q40 22.5 40 61.5q0 38 -39 60t-107 22q-59 0 -91.5 -22t-32.5 -61q0 -40 31.5 -61.5t90.5 -21.5q68 0 108 22.5zM394 752q0 11 6 21l63 106q14 26 41 26q14 0 29 -10q20 -13 20 -36q0 -15 -10 -28l-82 -97q-14 -16 -31 -16
q-12 0 -22 7q-14 11 -14 27zM142 597q0 16 14 32l105 115q19 21 45 21t45 -21l105 -115q14 -16 14 -32q0 -20 -20 -35q-11 -10 -26 -10q-21 0 -42 25l-76 92l-76 -93q-20 -24 -42 -24q-13 0 -26 10q-20 15 -20 35z" />
    <glyph glyph-name="uni1EAD" unicode="&#x1ead;" horiz-adv-x="587" 
d="M96 35q-57 45 -57 120q0 74 60.5 118t163.5 44q100 0 156 -46v38q0 50 -31.5 76.5t-92.5 26.5q-86 0 -148 -38q-21 -12 -38 -12q-18 0 -33 16q-10 11 -10 26q0 24 21 38q36 27 91 42.5t115 15.5q113 0 177 -51t64 -141v-268q0 -23 -15 -36.5t-41 -13.5t-40.5 13t-14.5 36
v19q-59 -68 -175 -68q-95 0 -152 45zM380 94.5q40 22.5 40 61.5q0 38 -39 60t-107 22q-59 0 -91.5 -22t-32.5 -61q0 -40 31.5 -61.5t90.5 -21.5q68 0 108 22.5zM253.5 -182.5q-19.5 18.5 -19.5 47.5q0 31 19.5 49t52.5 18q32 0 51.5 -18t19.5 -49q0 -29 -19.5 -47.5
t-51.5 -18.5q-33 0 -52.5 18.5zM143 597q0 17 13 33l105 126q19 22 45 22t45 -22l105 -126q13 -16 13 -33q0 -19 -18 -34q-14 -10 -28 -10q-22 0 -41 24l-76 104l-76 -104q-18 -24 -41 -24q-14 0 -27 10q-19 15 -19 34z" />
    <glyph glyph-name="uni1EA7" unicode="&#x1ea7;" horiz-adv-x="587" 
d="M96 35q-57 45 -57 120q0 74 60.5 118t163.5 44q100 0 156 -46v38q0 50 -31.5 76.5t-92.5 26.5q-86 0 -148 -38q-21 -12 -38 -12q-18 0 -33 16q-10 11 -10 26q0 24 21 38q36 27 91 42.5t115 15.5q113 0 177 -51t64 -141v-268q0 -23 -15 -36.5t-41 -13.5t-40.5 13t-14.5 36
v19q-59 -68 -175 -68q-95 0 -152 45zM380 94.5q40 22.5 40 61.5q0 38 -39 60t-107 22q-59 0 -91.5 -22t-32.5 -61q0 -40 31.5 -61.5t90.5 -21.5q68 0 108 22.5zM455 718q-17 0 -31 16l-82 97q-10 13 -10 28q0 24 20 37q13 9 28 9q28 0 42 -26l63 -106q6 -10 6 -22
q0 -16 -14 -26q-10 -7 -22 -7zM142 597q0 16 14 32l105 115q19 21 45 21t45 -21l105 -115q14 -16 14 -32q0 -20 -20 -35q-11 -10 -26 -10q-21 0 -42 25l-76 92l-76 -93q-20 -24 -42 -24q-13 0 -26 10q-20 15 -20 35z" />
    <glyph glyph-name="uni1EA9" unicode="&#x1ea9;" horiz-adv-x="587" 
d="M96 35q-57 45 -57 120q0 74 60.5 118t163.5 44q100 0 156 -46v38q0 50 -31.5 76.5t-92.5 26.5q-86 0 -148 -38q-21 -12 -38 -12q-18 0 -33 16q-10 11 -10 26q0 24 21 38q36 27 91 42.5t115 15.5q113 0 177 -51t64 -141v-268q0 -23 -15 -36.5t-41 -13.5t-40.5 13t-14.5 36
v19q-59 -68 -175 -68q-95 0 -152 45zM380 94.5q40 22.5 40 61.5q0 38 -39 60t-107 22q-59 0 -91.5 -22t-32.5 -61q0 -40 31.5 -61.5t90.5 -21.5q68 0 108 22.5zM404 715.5q-11 7.5 -11 22.5v5q0 15 9 26.5t26 25.5q14 13 19.5 19.5t5.5 14.5q0 10 -7 16t-19 6q-22 0 -41 -21
q-10 -12 -25 -12q-10 0 -20 7q-13 10 -13 23q0 10 6 17q15 21 42.5 34.5t64.5 13.5q50 0 75 -20t25 -53q0 -19 -10 -32.5t-28 -28.5q-13 -10 -19.5 -18t-6.5 -17v-6q0 -15 -11.5 -22.5t-30.5 -7.5q-20 0 -31 7.5zM142 597q0 16 14 32l105 115q19 21 45 21t45 -21l105 -115
q14 -16 14 -32q0 -20 -20 -35q-11 -10 -26 -10q-21 0 -42 25l-76 92l-76 -93q-20 -24 -42 -24q-13 0 -26 10q-20 15 -20 35z" />
    <glyph glyph-name="uni1EAB" unicode="&#x1eab;" horiz-adv-x="587" 
d="M96 35q-57 45 -57 120q0 74 60.5 118t163.5 44q100 0 156 -46v38q0 50 -31.5 76.5t-92.5 26.5q-86 0 -148 -38q-21 -12 -38 -12q-18 0 -33 16q-10 11 -10 26q0 24 21 38q36 27 91 42.5t115 15.5q113 0 177 -51t64 -141v-268q0 -23 -15 -36.5t-41 -13.5t-40.5 13t-14.5 36
v19q-59 -68 -175 -68q-95 0 -152 45zM380 94.5q40 22.5 40 61.5q0 38 -39 60t-107 22q-59 0 -91.5 -22t-32.5 -61q0 -40 31.5 -61.5t90.5 -21.5q68 0 108 22.5zM135 808q0 8 3 18q13 36 38.5 56.5t63.5 20.5q25 0 45.5 -8.5t45.5 -24.5q17 -11 27 -16t20 -5q14 0 23 8t16 25
q11 27 33 27q18 0 28 -8.5t10 -22.5q0 -10 -4 -19q-29 -78 -102 -78q-23 0 -41 8t-40 23q-19 12 -31 17.5t-25 5.5t-22 -7.5t-17 -24.5q-12 -28 -33 -28q-6 0 -15 3q-23 6 -23 30zM142 597q0 16 14 32l105 115q19 22 45 22q27 0 44 -22l106 -115q13 -14 13 -31
q0 -22 -19 -35q-14 -11 -27 -11q-21 0 -41 25l-76 92l-76 -92q-20 -25 -41 -25q-14 0 -28 11q-19 14 -19 34z" />
    <glyph glyph-name="adieresis" unicode="&#xe4;" horiz-adv-x="587" 
d="M96 35q-57 45 -57 120q0 74 60.5 118t163.5 44q100 0 156 -46v38q0 50 -31.5 76.5t-92.5 26.5q-86 0 -148 -38q-21 -12 -38 -12q-18 0 -33 16q-10 11 -10 26q0 24 21 38q36 27 91 42.5t115 15.5q113 0 177 -51t64 -141v-268q0 -23 -15 -36.5t-41 -13.5t-40.5 13t-14.5 36
v19q-59 -68 -175 -68q-95 0 -152 45zM380 94.5q40 22.5 40 61.5q0 38 -39 60t-107 22q-59 0 -91.5 -22t-32.5 -61q0 -40 31.5 -61.5t90.5 -21.5q68 0 108 22.5zM148.5 593q-18.5 18 -18.5 44t18 44.5t46 18.5q27 0 45 -18t18 -45q0 -25 -18 -43.5t-45 -18.5t-45.5 18z
M374.5 593q-18.5 18 -18.5 44t18 44.5t46 18.5t46 -18t18 -45q0 -25 -18.5 -43.5t-45.5 -18.5t-45.5 18z" />
    <glyph glyph-name="uni1EA1" unicode="&#x1ea1;" horiz-adv-x="587" 
d="M96 35q-57 45 -57 120q0 74 60.5 118t163.5 44q100 0 156 -46v38q0 50 -31.5 76.5t-92.5 26.5q-86 0 -148 -38q-21 -12 -38 -12q-18 0 -33 16q-10 11 -10 26q0 24 21 38q36 27 91 42.5t115 15.5q113 0 177 -51t64 -141v-268q0 -23 -15 -36.5t-41 -13.5t-40.5 13t-14.5 36
v19q-59 -68 -175 -68q-95 0 -152 45zM380 94.5q40 22.5 40 61.5q0 38 -39 60t-107 22q-59 0 -91.5 -22t-32.5 -61q0 -40 31.5 -61.5t90.5 -21.5q68 0 108 22.5zM253.5 -182.5q-19.5 18.5 -19.5 47.5q0 31 19.5 49t52.5 18q32 0 51.5 -18t19.5 -49q0 -29 -19.5 -47.5
t-51.5 -18.5q-33 0 -52.5 18.5z" />
    <glyph glyph-name="agrave" unicode="&#xe0;" horiz-adv-x="587" 
d="M96 35q-57 45 -57 120q0 74 60.5 118t163.5 44q100 0 156 -46v38q0 50 -31.5 76.5t-92.5 26.5q-86 0 -148 -38q-21 -12 -38 -12q-18 0 -33 16q-10 11 -10 26q0 24 21 38q36 27 91 42.5t115 15.5q113 0 177 -51t64 -141v-268q0 -23 -15 -36.5t-41 -13.5t-40.5 13t-14.5 36
v19q-59 -68 -175 -68q-95 0 -152 45zM380 94.5q40 22.5 40 61.5q0 38 -39 60t-107 22q-59 0 -91.5 -22t-32.5 -61q0 -40 31.5 -61.5t90.5 -21.5q68 0 108 22.5zM296.5 562q-10.5 6 -16.5 16l-80 139q-8 13 -8 25q0 24 32 41q14 7 28 7q30 0 45 -36l58 -145q3 -7 3 -15
q0 -15 -10.5 -26.5t-29.5 -11.5q-11 0 -21.5 6z" />
    <glyph glyph-name="uni1EA3" unicode="&#x1ea3;" horiz-adv-x="587" 
d="M96 35q-57 45 -57 120q0 74 60.5 118t163.5 44q100 0 156 -46v38q0 50 -31.5 76.5t-92.5 26.5q-86 0 -148 -38q-21 -12 -38 -12q-18 0 -33 16q-10 11 -10 26q0 24 21 38q36 27 91 42.5t115 15.5q113 0 177 -51t64 -141v-268q0 -23 -15 -36.5t-41 -13.5t-40.5 13t-14.5 36
v19q-59 -68 -175 -68q-95 0 -152 45zM380 94.5q40 22.5 40 61.5q0 38 -39 60t-107 22q-59 0 -91.5 -22t-32.5 -61q0 -40 31.5 -61.5t90.5 -21.5q68 0 108 22.5zM270 546q-13 9 -13 25v6q0 17 10.5 30.5t29.5 28.5q15 13 21.5 20.5t6.5 16.5q0 12 -7.5 18.5t-21.5 6.5
q-27 0 -47 -25q-11 -12 -26 -12q-13 0 -24 8q-16 10 -16 25q0 9 7 19q17 24 49 39.5t74 15.5q56 0 85 -23t29 -60q0 -21 -11.5 -36t-32.5 -32q-15 -13 -22 -21.5t-7 -17.5v-7q0 -16 -13 -25t-36 -9q-22 0 -35 9z" />
    <glyph glyph-name="uni0251" unicode="&#x251;" horiz-adv-x="705" 
d="M118 56.5q-76 66.5 -76 184.5q0 121 77 190t213 69q58 0 108 -20t98 -62q1 17 8 39q7 21 22 32.5t35 11.5q6 0 16 -2q45 -9 45 -44q0 -6 -4 -20q-17 -54 -17 -93v-203q0 -16 3.5 -34.5t13.5 -53.5q2 -5 2 -15q0 -20 -16.5 -33t-44.5 -13q-39 0 -54 41q-6 16 -8 40
q-42 -41 -93 -61t-116 -20q-136 0 -212 66.5zM480.5 123q46.5 40 46.5 122q0 75 -51 118.5t-137 43.5q-85 0 -133 -44t-48 -122q0 -75 47 -116.5t132 -41.5q97 0 143.5 40z" />
    <glyph glyph-name="amacron" unicode="&#x101;" horiz-adv-x="587" 
d="M96 35q-57 45 -57 120q0 74 60.5 118t163.5 44q100 0 156 -46v38q0 50 -31.5 76.5t-92.5 26.5q-86 0 -148 -38q-21 -12 -38 -12q-18 0 -33 16q-10 11 -10 26q0 24 21 38q36 27 91 42.5t115 15.5q113 0 177 -51t64 -141v-268q0 -23 -15 -36.5t-41 -13.5t-40.5 13t-14.5 36
v19q-59 -68 -175 -68q-95 0 -152 45zM380 94.5q40 22.5 40 61.5q0 38 -39 60t-107 22q-59 0 -91.5 -22t-32.5 -61q0 -40 31.5 -61.5t90.5 -21.5q68 0 108 22.5zM131 597q0 20 11.5 28t35.5 8h252q24 0 35.5 -8t11.5 -28q0 -35 -47 -35h-252q-47 0 -47 35z" />
    <glyph glyph-name="aogonek" unicode="&#x105;" horiz-adv-x="587" 
d="M580 -143q0 -13 -13 -26q-37 -39 -99 -39q-53 0 -87.5 24t-34.5 71q0 37 19 68.5t60 67.5q-2 10 -2 16v19q-59 -68 -175 -68q-95 0 -152 45t-57 120q0 74 60.5 118t163.5 44q100 0 156 -46v38q0 50 -31.5 76.5t-92.5 26.5q-86 0 -148 -38q-21 -12 -38 -12q-18 0 -33 16
q-10 11 -10 26q0 24 21 38q36 27 91 42.5t115 15.5q113 0 177 -51t64 -141v-268q0 -25 -18 -39l-5 -5q-7 -6 -31.5 -26t-34 -36.5t-9.5 -35.5q0 -17 12.5 -26t29.5 -9q27 0 46 16q13 11 24 11t21 -10q11 -11 11 -23zM380 94.5q40 22.5 40 61.5q0 38 -39 60t-107 22
q-59 0 -91.5 -22t-32.5 -61q0 -40 31.5 -61.5t90.5 -21.5q68 0 108 22.5z" />
    <glyph glyph-name="aring" unicode="&#xe5;" horiz-adv-x="587" 
d="M96 35q-57 45 -57 120q0 74 60.5 118t163.5 44q100 0 156 -46v38q0 50 -31.5 76.5t-92.5 26.5q-86 0 -148 -38q-21 -12 -38 -12q-18 0 -33 16q-10 11 -10 26q0 24 21 38q36 27 91 42.5t115 15.5q113 0 177 -51t64 -141v-268q0 -23 -15 -36.5t-41 -13.5t-40.5 13t-14.5 36
v19q-59 -68 -175 -68q-95 0 -152 45zM380 94.5q40 22.5 40 61.5q0 38 -39 60t-107 22q-59 0 -91.5 -22t-32.5 -61q0 -40 31.5 -61.5t90.5 -21.5q68 0 108 22.5zM217.5 567q-33.5 30 -33.5 78q0 47 33.5 77t88.5 30t88 -30t33 -77q0 -48 -33 -78t-88 -30t-88.5 30zM342.5 610
q13.5 13 13.5 35q0 23 -13.5 36t-36.5 13t-36.5 -13t-13.5 -36q0 -22 13.5 -35t36.5 -13t36.5 13z" />
    <glyph glyph-name="aringacute" unicode="&#x1fb;" horiz-adv-x="587" 
d="M268.5 795.5q-5.5 7.5 -5.5 15.5q0 5 3 11l59 116q15 29 44 29q14 0 29 -6q31 -12 31 -33q0 -9 -7 -19l-80 -111q-6 -8 -16.5 -13t-22.5 -5q-7 0 -19 4q-10 4 -15.5 11.5zM218.5 568q-33.5 30 -33.5 77q0 48 33 78t89 30q54 0 87 -30t33 -78q0 -47 -33 -77t-87 -30
q-55 0 -88.5 30zM342.5 610q13.5 13 13.5 35q0 23 -13.5 36t-36.5 13t-36.5 -13t-13.5 -36q0 -22 13.5 -35t36.5 -13t36.5 13zM96 35q-57 45 -57 120q0 74 60.5 118t163.5 44q100 0 156 -46v38q0 50 -31.5 76.5t-92.5 26.5q-86 0 -148 -38q-21 -12 -38 -12q-18 0 -33 16
q-10 11 -10 26q0 24 21 38q36 27 91 42.5t115 15.5q113 0 177 -51t64 -141v-268q0 -23 -15 -36.5t-41 -13.5t-40.5 13t-14.5 36v19q-59 -68 -175 -68q-95 0 -152 45zM380 94.5q40 22.5 40 61.5q0 38 -39 60t-107 22q-59 0 -91.5 -22t-32.5 -61q0 -40 31.5 -61.5t90.5 -21.5
q68 0 108 22.5z" />
    <glyph glyph-name="atilde" unicode="&#xe3;" horiz-adv-x="587" 
d="M96 35q-57 45 -57 120q0 74 60.5 118t163.5 44q100 0 156 -46v38q0 50 -31.5 76.5t-92.5 26.5q-86 0 -148 -38q-21 -12 -38 -12q-18 0 -33 16q-10 11 -10 26q0 24 21 38q36 27 91 42.5t115 15.5q113 0 177 -51t64 -141v-268q0 -23 -15 -36.5t-41 -13.5t-40.5 13t-14.5 36
v19q-59 -68 -175 -68q-95 0 -152 45zM380 94.5q40 22.5 40 61.5q0 38 -39 60t-107 22q-59 0 -91.5 -22t-32.5 -61q0 -40 31.5 -61.5t90.5 -21.5q68 0 108 22.5zM130 589.5q-11 9.5 -11 24.5q0 10 4 19q32 82 108 82q26 0 47 -9t47 -26q17 -11 28 -16.5t22 -5.5q15 0 24 8.5
t17 27.5q13 28 37 28q17 0 28 -9.5t11 -24.5q0 -10 -4 -19q-32 -82 -108 -82q-25 0 -43.5 8t-42.5 24q-18 13 -31 19t-27 6q-15 0 -24 -8t-17 -27q-13 -29 -36 -29q-18 0 -29 9.5z" />
    <glyph glyph-name="ae" unicode="&#xe6;" horiz-adv-x="1006" 
d="M143.5 11q-49.5 21 -77 60t-27.5 89q0 49 28.5 87t80 59t118.5 21q51 0 93.5 -11.5t68.5 -33.5v23q0 48 -35.5 77t-94.5 29q-43 0 -79 -10t-70 -30q-20 -14 -40 -14q-19 0 -34 15q-11 11 -11 28q0 21 21 37q36 29 92.5 46t118.5 17t111 -23.5t81 -67.5q34 43 89 67
t119 24q80 0 142 -24.5t96 -69t34 -102.5q0 -46 -28 -71t-79 -25h-329q0 -59 46.5 -93.5t126.5 -34.5q88 0 153 46q27 19 43 19q14 0 30 -14q15 -15 15 -32q0 -19 -17 -34q-43 -36 -100 -55t-124 -19q-68 0 -125.5 23t-90.5 63q-79 -87 -231 -87q-65 0 -114.5 21zM825 289
q18 0 25.5 7t7.5 24q0 42 -43.5 66.5t-118.5 24.5q-74 0 -118 -33t-44 -89h291zM387.5 96q41.5 24 41.5 65q0 40 -40.5 63t-111.5 23q-58 0 -92.5 -23.5t-34.5 -63.5q0 -41 33 -64.5t92 -23.5q71 0 112.5 24z" />
    <glyph glyph-name="aeacute" unicode="&#x1fd;" horiz-adv-x="1006" 
d="M143.5 11q-49.5 21 -77 60t-27.5 89q0 49 28.5 87t80 59t118.5 21q51 0 93.5 -11.5t68.5 -33.5v23q0 48 -35.5 77t-94.5 29q-43 0 -79 -10t-70 -30q-20 -14 -40 -14q-19 0 -34 15q-11 11 -11 28q0 21 21 37q36 29 92.5 46t118.5 17t111 -23.5t81 -67.5q34 43 89 67
t119 24q80 0 142 -24.5t96 -69t34 -102.5q0 -46 -28 -71t-79 -25h-329q0 -59 46.5 -93.5t126.5 -34.5q88 0 153 46q27 19 43 19q14 0 30 -14q15 -15 15 -32q0 -19 -17 -34q-43 -36 -100 -55t-124 -19q-68 0 -125.5 23t-90.5 63q-79 -87 -231 -87q-65 0 -114.5 21zM825 289
q18 0 25.5 7t7.5 24q0 42 -43.5 66.5t-118.5 24.5q-74 0 -118 -33t-44 -89h291zM387.5 96q41.5 24 41.5 65q0 40 -40.5 63t-111.5 23q-58 0 -92.5 -23.5t-34.5 -63.5q0 -41 33 -64.5t92 -23.5q71 0 112.5 24zM461.5 582q-5.5 9 -5.5 19q0 8 3 15l59 145q15 36 44 36
q14 0 28 -7q32 -17 32 -41q0 -11 -8 -25l-80 -139q-6 -10 -16.5 -16t-21.5 -6q-9 0 -19 5t-15.5 14z" />
    <glyph glyph-name="b" unicode="b" horiz-adv-x="666" 
d="M68.5 4q-14.5 14 -14.5 39v663q0 25 14.5 39t40.5 14t41 -14t15 -39l1 -292q38 42 88 64t109 22q124 0 194.5 -68t70.5 -187q0 -121 -70 -188t-197 -67q-61 0 -108 21t-88 67v-35q0 -24 -15 -38.5t-41 -14.5t-40.5 14zM471 123q44 43 44 122q0 77 -45 121t-124 44
q-83 0 -132 -44.5t-49 -120.5q0 -77 48 -121t133 -44q81 0 125 43z" />
    <glyph glyph-name="c" unicode="c" horiz-adv-x="597" 
d="M113 58q-74 68 -74 188q0 118 74 186t203 68q72 0 129 -23t90 -65q11 -14 11 -28q0 -23 -24 -40q-11 -8 -25 -8q-28 0 -48 22q-23 25 -57 38.5t-76 13.5q-78 0 -121 -43t-43 -121q0 -79 43 -122.5t121 -43.5q87 0 145 56q24 24 47 24q17 0 29 -11q21 -16 21 -39
q0 -17 -13 -29q-47 -47 -102.5 -69t-126.5 -22q-129 0 -203 68z" />
    <glyph glyph-name="cacute" unicode="&#x107;" horiz-adv-x="600" 
d="M113 58q-74 68 -74 188q0 118 74 186t203 68q72 0 129 -23t90 -65q11 -14 11 -28q0 -23 -24 -40q-11 -8 -25 -8q-28 0 -48 22q-23 25 -57 38.5t-76 13.5q-78 0 -121 -43t-43 -121q0 -79 43 -122.5t121 -43.5q87 0 145 56q24 24 47 24q17 0 29 -11q21 -16 21 -39
q0 -17 -13 -29q-47 -47 -102.5 -69t-126.5 -22q-129 0 -203 68zM294.5 575q-5.5 9 -5.5 19q0 8 3 15l59 145q15 36 44 36q14 0 28 -7q32 -17 32 -41q0 -11 -8 -25l-80 -139q-6 -10 -16.5 -16t-21.5 -6q-9 0 -19 5t-15.5 14z" />
    <glyph glyph-name="ccaron" unicode="&#x10d;" horiz-adv-x="600" 
d="M113 58q-74 68 -74 188q0 118 74 186t203 68q72 0 129 -23t90 -65q11 -14 11 -28q0 -23 -24 -40q-11 -8 -25 -8q-28 0 -48 22q-23 25 -57 38.5t-76 13.5q-78 0 -121 -43t-43 -121q0 -79 43 -122.5t121 -43.5q87 0 145 56q24 24 47 24q17 0 29 -11q21 -16 21 -39
q0 -17 -13 -29q-47 -47 -102.5 -69t-126.5 -22q-129 0 -203 68zM276 574l-105 127q-13 16 -13 32q0 19 19 34q14 11 28 11q21 0 40 -25l76 -104l76 104q19 25 41 25q14 0 27 -10q20 -15 20 -35q0 -16 -14 -33l-105 -126q-19 -21 -45 -21t-45 21z" />
    <glyph glyph-name="ccedilla" unicode="&#xe7;" horiz-adv-x="600" 
d="M558 110q0 -17 -13 -29q-40 -40 -86.5 -62t-103.5 -27l-2 -5l-19 -37q42 -2 65 -23t23 -53q0 -38 -28 -64t-81 -26q-41 0 -72 15t-49 39q-8 11 -8 20q0 12 16 25q12 10 21 10q12 0 24 -15q11 -14 27 -21.5t33 -7.5q39 0 39 29q0 32 -34 32l-11 -1q-18 -2 -32.5 7.5
t-14.5 25.5q0 8 4 15l17 35q-110 11 -172 78t-62 176q0 118 74 186t203 68q72 0 129 -23t90 -65q11 -14 11 -28q0 -23 -24 -40q-11 -8 -25 -8q-28 0 -48 22q-23 25 -57 38.5t-76 13.5q-78 0 -121 -43t-43 -121q0 -79 43 -122.5t121 -43.5q87 0 145 56q24 24 47 24
q17 0 29 -11q21 -16 21 -39z" />
    <glyph glyph-name="ccircumflex" unicode="&#x109;" horiz-adv-x="600" 
d="M113 58q-74 68 -74 188q0 118 74 186t203 68q72 0 129 -23t90 -65q11 -14 11 -28q0 -23 -24 -40q-11 -8 -25 -8q-28 0 -48 22q-23 25 -57 38.5t-76 13.5q-78 0 -121 -43t-43 -121q0 -79 43 -122.5t121 -43.5q87 0 145 56q24 24 47 24q17 0 29 -11q21 -16 21 -39
q0 -17 -13 -29q-47 -47 -102.5 -69t-126.5 -22q-129 0 -203 68zM158 597q0 17 13 33l105 126q19 22 45 22t45 -22l105 -126q13 -16 13 -33q0 -19 -18 -34q-14 -10 -28 -10q-22 0 -41 24l-76 104l-76 -104q-18 -24 -41 -24q-14 0 -27 10q-19 15 -19 34z" />
    <glyph glyph-name="cdotaccent" unicode="&#x10b;" horiz-adv-x="600" 
d="M113 58q-74 68 -74 188q0 118 74 186t203 68q72 0 129 -23t90 -65q11 -14 11 -28q0 -23 -24 -40q-11 -8 -25 -8q-28 0 -48 22q-23 25 -57 38.5t-76 13.5q-78 0 -121 -43t-43 -121q0 -79 43 -122.5t121 -43.5q87 0 145 56q24 24 47 24q17 0 29 -11q21 -16 21 -39
q0 -17 -13 -29q-47 -47 -102.5 -69t-126.5 -22q-129 0 -203 68zM269.5 587.5q-20.5 19.5 -20.5 47.5t20.5 47.5t51.5 19.5q30 0 50.5 -19.5t20.5 -47.5t-20.5 -47.5t-50.5 -19.5q-31 0 -51.5 19.5z" />
    <glyph glyph-name="d" unicode="d" horiz-adv-x="666" 
d="M165.5 20.5q-60.5 30.5 -94 88t-33.5 135.5q0 77 32.5 135t93.5 89.5t144 31.5q65 0 110 -22t82 -64l1 292q0 25 15 39t41 14t41 -14t15 -39v-663q0 -25 -15 -39t-41 -14q-25 0 -40.5 14.5t-15.5 38.5v35q-69 -88 -196 -88q-79 0 -139.5 30.5zM453 124q48 44 48 121
t-49.5 121t-130.5 44q-80 0 -125 -44.5t-45 -121.5q0 -79 45 -121.5t125 -42.5q84 0 132 44z" />
    <glyph glyph-name="eth" unicode="&#xf0;" horiz-adv-x="666" 
d="M623 330q0 -103 -36.5 -179.5t-105.5 -118.5t-166 -42q-85 0 -146 30.5t-93.5 85.5t-32.5 127q0 71 32.5 125.5t93 84.5t141.5 30q72 0 126 -29t89 -79l2 1q-7 61 -27.5 106t-58.5 79l-34 -36q-20 -20 -41 -20q-14 0 -27 11q-14 13 -14 29q0 18 17 34l28 29
q-42 19 -81 31q-32 10 -32 36q0 13 7 27q11 23 42 23q17 0 34 -7q49 -17 95 -43l58 60q17 20 37 20q17 0 30 -12q14 -13 14 -29q0 -17 -16 -33l-54 -55q119 -106 119 -286zM442 122q47 41 47 110q0 68 -47 109t-127 41q-74 0 -116 -40t-42 -110t42 -110.5t116 -40.5
q80 0 127 41z" />
    <glyph glyph-name="dcaron" unicode="&#x10f;" horiz-adv-x="820" 
d="M168.5 20.5q-60.5 30.5 -94 88t-33.5 135.5q0 77 32.5 135t93.5 89.5t144 31.5q65 0 110 -22t82 -64l1 292q0 25 15 39t41 14t41 -14t15 -39v-663q0 -25 -15 -39t-41 -14q-25 0 -40.5 14.5t-15.5 38.5v35q-69 -88 -196 -88q-79 0 -139.5 30.5zM456 124q48 44 48 121
t-49.5 121t-130.5 44q-80 0 -125 -44.5t-45 -121.5q0 -79 45 -121.5t125 -42.5q84 0 132 44zM687 528q0 15 21 33q19 15 31 32t14 32q-25 -4 -43.5 13.5t-18.5 44.5q0 32 21 49.5t56 17.5t56 -23.5t21 -60.5q0 -36 -22 -72.5t-62 -69.5q-24 -21 -45 -21q-14 0 -23 11
q-6 8 -6 14z" />
    <glyph glyph-name="dcroat" unicode="&#x111;" horiz-adv-x="754" 
d="M728 599q0 -22 -13.5 -33t-38.5 -11h-63v-512q0 -25 -14.5 -39t-40.5 -14t-41 14t-15 39v35q-69 -88 -196 -88q-79 0 -139.5 30.5t-94 88t-33.5 135.5q0 77 32 135t93 89.5t145 31.5q64 0 109 -22t83 -64v141h-127q-25 0 -39 11t-14 33q0 44 53 44h128v63q0 25 15 39
t41 14t40.5 -14t14.5 -39v-63h63q52 0 52 -44zM454 124q48 44 48 121t-49.5 121t-130.5 44q-80 0 -125 -44.5t-45 -121.5q0 -79 44.5 -121.5t124.5 -42.5q85 0 133 44z" />
    <glyph glyph-name="uni1E0D" unicode="&#x1e0d;" horiz-adv-x="666" 
d="M165.5 20.5q-60.5 30.5 -94 88t-33.5 135.5q0 77 32.5 135t93.5 89.5t144 31.5q65 0 110 -22t82 -64l1 292q0 25 15 39t41 14t41 -14t15 -39v-663q0 -25 -15 -39t-41 -14q-25 0 -40.5 14.5t-15.5 38.5v35q-69 -88 -196 -88q-79 0 -139.5 30.5zM453 124q48 44 48 121
t-49.5 121t-130.5 44q-80 0 -125 -44.5t-45 -121.5q0 -79 45 -121.5t125 -42.5q84 0 132 44zM265.5 -182.5q-19.5 18.5 -19.5 47.5q0 31 19.5 49t52.5 18q32 0 51.5 -18t19.5 -49q0 -29 -19.5 -47.5t-51.5 -18.5q-33 0 -52.5 18.5z" />
    <glyph glyph-name="uni1E0F" unicode="&#x1e0f;" horiz-adv-x="666" 
d="M165.5 20.5q-60.5 30.5 -94 88t-33.5 135.5q0 77 32.5 135t93.5 89.5t144 31.5q65 0 110 -22t82 -64l1 292q0 25 15 39t41 14t41 -14t15 -39v-663q0 -25 -15 -39t-41 -14q-25 0 -40.5 14.5t-15.5 38.5v35q-69 -88 -196 -88q-79 0 -139.5 30.5zM453 124q48 44 48 121
t-49.5 121t-130.5 44q-80 0 -125 -44.5t-45 -121.5q0 -79 45 -121.5t125 -42.5q84 0 132 44zM145 -121q0 20 11.5 28.5t35.5 8.5h252q24 0 35.5 -8.5t11.5 -28.5q0 -35 -47 -35h-252q-47 0 -47 35z" />
    <glyph glyph-name="e" unicode="e" horiz-adv-x="618" 
d="M168.5 20.5q-63.5 30.5 -97 87.5t-33.5 135q0 121 72 189t200 68q79 0 140 -25t95 -69.5t34 -101.5q0 -46 -28 -71t-79 -25h-324q0 -62 44 -96t126 -34q47 0 83 10t67 32q29 19 44 19q13 0 27 -14q16 -15 16 -33q0 -19 -17 -32q-84 -70 -220 -70q-86 0 -149.5 30.5z
M438 289q17 0 25 7t8 24q0 41 -44 66.5t-117 25.5q-74 0 -117 -33.5t-43 -89.5h288z" />
    <glyph glyph-name="eacute" unicode="&#xe9;" horiz-adv-x="622" 
d="M168.5 20.5q-63.5 30.5 -97 87.5t-33.5 135q0 121 72 189t200 68q79 0 140 -25t95 -69.5t34 -101.5q0 -46 -28 -71t-79 -25h-324q0 -62 44 -96t126 -34q47 0 83 10t67 32q29 19 44 19q13 0 27 -14q16 -15 16 -33q0 -19 -17 -32q-84 -70 -220 -70q-86 0 -149.5 30.5z
M438 289q17 0 25 7t8 24q0 41 -44 66.5t-117 25.5q-74 0 -117 -33.5t-43 -89.5h288zM288.5 575q-5.5 9 -5.5 19q0 8 3 15l59 145q15 36 44 36q14 0 28 -7q32 -17 32 -41q0 -11 -8 -25l-80 -139q-6 -10 -16.5 -16t-21.5 -6q-9 0 -19 5t-15.5 14z" />
    <glyph glyph-name="ebreve" unicode="&#x115;" horiz-adv-x="622" 
d="M168.5 20.5q-63.5 30.5 -97 87.5t-33.5 135q0 121 72 189t200 68q79 0 140 -25t95 -69.5t34 -101.5q0 -46 -28 -71t-79 -25h-324q0 -62 44 -96t126 -34q47 0 83 10t67 32q29 19 44 19q13 0 27 -14q16 -15 16 -33q0 -19 -17 -32q-84 -70 -220 -70q-86 0 -149.5 30.5z
M438 289q17 0 25 7t8 24q0 41 -44 66.5t-117 25.5q-74 0 -117 -33.5t-43 -89.5h288zM181.5 600q-48.5 45 -48.5 118q0 25 13.5 38t38.5 13t38.5 -13t13.5 -38q0 -39 19.5 -60.5t56.5 -21.5t56.5 21.5t19.5 60.5q0 24 13.5 37.5t38.5 13.5t38.5 -13t13.5 -38
q0 -73 -48.5 -118t-131.5 -45t-131.5 45z" />
    <glyph glyph-name="ecaron" unicode="&#x11b;" horiz-adv-x="622" 
d="M168.5 20.5q-63.5 30.5 -97 87.5t-33.5 135q0 121 72 189t200 68q79 0 140 -25t95 -69.5t34 -101.5q0 -46 -28 -71t-79 -25h-324q0 -62 44 -96t126 -34q47 0 83 10t67 32q29 19 44 19q13 0 27 -14q16 -15 16 -33q0 -19 -17 -32q-84 -70 -220 -70q-86 0 -149.5 30.5z
M438 289q17 0 25 7t8 24q0 41 -44 66.5t-117 25.5q-74 0 -117 -33.5t-43 -89.5h288zM270 574l-105 127q-13 16 -13 32q0 19 19 34q14 11 28 11q21 0 40 -25l76 -104l76 104q19 25 41 25q14 0 27 -10q20 -15 20 -35q0 -16 -14 -33l-105 -126q-19 -21 -45 -21t-45 21z" />
    <glyph glyph-name="ecircumflex" unicode="&#xea;" horiz-adv-x="622" 
d="M168.5 20.5q-63.5 30.5 -97 87.5t-33.5 135q0 121 72 189t200 68q79 0 140 -25t95 -69.5t34 -101.5q0 -46 -28 -71t-79 -25h-324q0 -62 44 -96t126 -34q47 0 83 10t67 32q29 19 44 19q13 0 27 -14q16 -15 16 -33q0 -19 -17 -32q-84 -70 -220 -70q-86 0 -149.5 30.5z
M438 289q17 0 25 7t8 24q0 41 -44 66.5t-117 25.5q-74 0 -117 -33.5t-43 -89.5h288zM152 597q0 17 13 33l105 126q19 22 45 22t45 -22l105 -126q13 -16 13 -33q0 -19 -18 -34q-14 -10 -28 -10q-22 0 -41 24l-76 104l-76 -104q-18 -24 -41 -24q-14 0 -27 10q-19 15 -19 34z
" />
    <glyph glyph-name="uni1EBF" unicode="&#x1ebf;" horiz-adv-x="622" 
d="M168.5 20.5q-63.5 30.5 -97 87.5t-33.5 135q0 121 72 189t200 68q79 0 140 -25t95 -69.5t34 -101.5q0 -46 -28 -71t-79 -25h-324q0 -62 44 -96t126 -34q47 0 83 10t67 32q29 19 44 19q13 0 27 -14q16 -15 16 -33q0 -19 -17 -32q-84 -70 -220 -70q-86 0 -149.5 30.5z
M438 289q17 0 25 7t8 24q0 41 -44 66.5t-117 25.5q-74 0 -117 -33.5t-43 -89.5h288zM403 752q0 11 6 21l63 106q14 26 41 26q14 0 29 -10q20 -13 20 -36q0 -15 -10 -28l-82 -97q-14 -16 -31 -16q-12 0 -22 7q-14 11 -14 27zM151 597q0 16 14 32l105 115q19 21 45 21t45 -21
l105 -115q14 -16 14 -32q0 -20 -20 -35q-11 -10 -26 -10q-21 0 -42 25l-76 92l-76 -93q-20 -24 -42 -24q-13 0 -26 10q-20 15 -20 35z" />
    <glyph glyph-name="uni1EC7" unicode="&#x1ec7;" horiz-adv-x="622" 
d="M168.5 20.5q-63.5 30.5 -97 87.5t-33.5 135q0 121 72 189t200 68q79 0 140 -25t95 -69.5t34 -101.5q0 -46 -28 -71t-79 -25h-324q0 -62 44 -96t126 -34q47 0 83 10t67 32q29 19 44 19q13 0 27 -14q16 -15 16 -33q0 -19 -17 -32q-84 -70 -220 -70q-86 0 -149.5 30.5z
M438 289q17 0 25 7t8 24q0 41 -44 66.5t-117 25.5q-74 0 -117 -33.5t-43 -89.5h288zM262.5 -182.5q-19.5 18.5 -19.5 47.5q0 31 19.5 49t52.5 18q32 0 51.5 -18t19.5 -49q0 -29 -19.5 -47.5t-51.5 -18.5q-33 0 -52.5 18.5zM152 597q0 17 13 33l105 126q19 22 45 22t45 -22
l105 -126q13 -16 13 -33q0 -19 -18 -34q-14 -10 -28 -10q-22 0 -41 24l-76 104l-76 -104q-18 -24 -41 -24q-14 0 -27 10q-19 15 -19 34z" />
    <glyph glyph-name="uni1EC1" unicode="&#x1ec1;" horiz-adv-x="622" 
d="M168.5 20.5q-63.5 30.5 -97 87.5t-33.5 135q0 121 72 189t200 68q79 0 140 -25t95 -69.5t34 -101.5q0 -46 -28 -71t-79 -25h-324q0 -62 44 -96t126 -34q47 0 83 10t67 32q29 19 44 19q13 0 27 -14q16 -15 16 -33q0 -19 -17 -32q-84 -70 -220 -70q-86 0 -149.5 30.5z
M438 289q17 0 25 7t8 24q0 41 -44 66.5t-117 25.5q-74 0 -117 -33.5t-43 -89.5h288zM464 718q-17 0 -31 16l-82 97q-10 13 -10 28q0 24 20 37q13 9 28 9q28 0 42 -26l63 -106q6 -10 6 -22q0 -16 -14 -26q-10 -7 -22 -7zM151 597q0 16 14 32l105 115q19 21 45 21t45 -21
l105 -115q14 -16 14 -32q0 -20 -20 -35q-11 -10 -26 -10q-21 0 -42 25l-76 92l-76 -93q-20 -24 -42 -24q-13 0 -26 10q-20 15 -20 35z" />
    <glyph glyph-name="uni1EC3" unicode="&#x1ec3;" horiz-adv-x="622" 
d="M168.5 20.5q-63.5 30.5 -97 87.5t-33.5 135q0 121 72 189t200 68q79 0 140 -25t95 -69.5t34 -101.5q0 -46 -28 -71t-79 -25h-324q0 -62 44 -96t126 -34q47 0 83 10t67 32q29 19 44 19q13 0 27 -14q16 -15 16 -33q0 -19 -17 -32q-84 -70 -220 -70q-86 0 -149.5 30.5z
M438 289q17 0 25 7t8 24q0 41 -44 66.5t-117 25.5q-74 0 -117 -33.5t-43 -89.5h288zM413 715.5q-11 7.5 -11 22.5v5q0 15 9 26.5t26 25.5q14 13 19.5 19.5t5.5 14.5q0 10 -7 16t-19 6q-22 0 -41 -21q-10 -12 -25 -12q-10 0 -20 7q-13 10 -13 23q0 10 6 17q15 21 42.5 34.5
t64.5 13.5q50 0 75 -20t25 -53q0 -19 -10 -32.5t-28 -28.5q-13 -10 -19.5 -18t-6.5 -17v-6q0 -15 -11.5 -22.5t-30.5 -7.5q-20 0 -31 7.5zM151 597q0 16 14 32l105 115q19 21 45 21t45 -21l105 -115q14 -16 14 -32q0 -20 -20 -35q-11 -10 -26 -10q-21 0 -42 25l-76 92
l-76 -93q-20 -24 -42 -24q-13 0 -26 10q-20 15 -20 35z" />
    <glyph glyph-name="uni1EC5" unicode="&#x1ec5;" horiz-adv-x="622" 
d="M168.5 20.5q-63.5 30.5 -97 87.5t-33.5 135q0 121 72 189t200 68q79 0 140 -25t95 -69.5t34 -101.5q0 -46 -28 -71t-79 -25h-324q0 -62 44 -96t126 -34q47 0 83 10t67 32q29 19 44 19q13 0 27 -14q16 -15 16 -33q0 -19 -17 -32q-84 -70 -220 -70q-86 0 -149.5 30.5z
M438 289q17 0 25 7t8 24q0 41 -44 66.5t-117 25.5q-74 0 -117 -33.5t-43 -89.5h288zM144 808q0 8 3 18q13 36 38.5 56.5t63.5 20.5q25 0 45.5 -8.5t45.5 -24.5q17 -11 27 -16t20 -5q14 0 23 8t16 25q11 27 33 27q18 0 28 -8.5t10 -22.5q0 -10 -4 -19q-29 -78 -102 -78
q-23 0 -41 8t-40 23q-19 12 -31 17.5t-25 5.5t-22 -7.5t-17 -24.5q-12 -28 -33 -28q-6 0 -15 3q-23 6 -23 30zM151 597q0 16 14 32l105 115q19 22 45 22q27 0 44 -22l106 -115q13 -14 13 -31q0 -22 -19 -35q-14 -11 -27 -11q-21 0 -41 25l-76 92l-76 -92q-20 -25 -41 -25
q-14 0 -28 11q-19 14 -19 34z" />
    <glyph glyph-name="edieresis" unicode="&#xeb;" horiz-adv-x="622" 
d="M168.5 20.5q-63.5 30.5 -97 87.5t-33.5 135q0 121 72 189t200 68q79 0 140 -25t95 -69.5t34 -101.5q0 -46 -28 -71t-79 -25h-324q0 -62 44 -96t126 -34q47 0 83 10t67 32q29 19 44 19q13 0 27 -14q16 -15 16 -33q0 -19 -17 -32q-84 -70 -220 -70q-86 0 -149.5 30.5z
M438 289q17 0 25 7t8 24q0 41 -44 66.5t-117 25.5q-74 0 -117 -33.5t-43 -89.5h288zM156.5 593q-18.5 18 -18.5 44t18 44.5t46 18.5q27 0 45 -18t18 -45q0 -25 -18 -43.5t-45 -18.5t-45.5 18zM382.5 593q-18.5 18 -18.5 44t18 44.5t46 18.5t46 -18t18 -45q0 -25 -18.5 -43.5
t-45.5 -18.5t-45.5 18z" />
    <glyph glyph-name="edotaccent" unicode="&#x117;" horiz-adv-x="622" 
d="M168.5 20.5q-63.5 30.5 -97 87.5t-33.5 135q0 121 72 189t200 68q79 0 140 -25t95 -69.5t34 -101.5q0 -46 -28 -71t-79 -25h-324q0 -62 44 -96t126 -34q47 0 83 10t67 32q29 19 44 19q13 0 27 -14q16 -15 16 -33q0 -19 -17 -32q-84 -70 -220 -70q-86 0 -149.5 30.5z
M438 289q17 0 25 7t8 24q0 41 -44 66.5t-117 25.5q-74 0 -117 -33.5t-43 -89.5h288zM263.5 587.5q-20.5 19.5 -20.5 47.5t20.5 47.5t51.5 19.5q30 0 50.5 -19.5t20.5 -47.5t-20.5 -47.5t-50.5 -19.5q-31 0 -51.5 19.5z" />
    <glyph glyph-name="uni1EB9" unicode="&#x1eb9;" horiz-adv-x="622" 
d="M168.5 20.5q-63.5 30.5 -97 87.5t-33.5 135q0 121 72 189t200 68q79 0 140 -25t95 -69.5t34 -101.5q0 -46 -28 -71t-79 -25h-324q0 -62 44 -96t126 -34q47 0 83 10t67 32q29 19 44 19q13 0 27 -14q16 -15 16 -33q0 -19 -17 -32q-84 -70 -220 -70q-86 0 -149.5 30.5z
M438 289q17 0 25 7t8 24q0 41 -44 66.5t-117 25.5q-74 0 -117 -33.5t-43 -89.5h288zM262.5 -182.5q-19.5 18.5 -19.5 47.5q0 31 19.5 49t52.5 18q32 0 51.5 -18t19.5 -49q0 -29 -19.5 -47.5t-51.5 -18.5q-33 0 -52.5 18.5z" />
    <glyph glyph-name="egrave" unicode="&#xe8;" horiz-adv-x="622" 
d="M168.5 20.5q-63.5 30.5 -97 87.5t-33.5 135q0 121 72 189t200 68q79 0 140 -25t95 -69.5t34 -101.5q0 -46 -28 -71t-79 -25h-324q0 -62 44 -96t126 -34q47 0 83 10t67 32q29 19 44 19q13 0 27 -14q16 -15 16 -33q0 -19 -17 -32q-84 -70 -220 -70q-86 0 -149.5 30.5z
M438 289q17 0 25 7t8 24q0 41 -44 66.5t-117 25.5q-74 0 -117 -33.5t-43 -89.5h288zM305.5 562q-10.5 6 -16.5 16l-80 139q-8 13 -8 25q0 24 32 41q14 7 28 7q30 0 45 -36l58 -145q3 -7 3 -15q0 -15 -10.5 -26.5t-29.5 -11.5q-11 0 -21.5 6z" />
    <glyph glyph-name="uni1EBB" unicode="&#x1ebb;" horiz-adv-x="622" 
d="M168.5 20.5q-63.5 30.5 -97 87.5t-33.5 135q0 121 72 189t200 68q79 0 140 -25t95 -69.5t34 -101.5q0 -46 -28 -71t-79 -25h-324q0 -62 44 -96t126 -34q47 0 83 10t67 32q29 19 44 19q13 0 27 -14q16 -15 16 -33q0 -19 -17 -32q-84 -70 -220 -70q-86 0 -149.5 30.5z
M438 289q17 0 25 7t8 24q0 41 -44 66.5t-117 25.5q-74 0 -117 -33.5t-43 -89.5h288zM279 546q-13 9 -13 25v6q0 17 10.5 30.5t29.5 28.5q15 13 21.5 20.5t6.5 16.5q0 12 -7.5 18.5t-21.5 6.5q-27 0 -47 -25q-11 -12 -26 -12q-13 0 -24 8q-16 10 -16 25q0 9 7 19
q17 24 49 39.5t74 15.5q56 0 85 -23t29 -60q0 -21 -11.5 -36t-32.5 -32q-15 -13 -22 -21.5t-7 -17.5v-7q0 -16 -13 -25t-36 -9q-22 0 -35 9z" />
    <glyph glyph-name="emacron" unicode="&#x113;" horiz-adv-x="622" 
d="M168.5 20.5q-63.5 30.5 -97 87.5t-33.5 135q0 121 72 189t200 68q79 0 140 -25t95 -69.5t34 -101.5q0 -46 -28 -71t-79 -25h-324q0 -62 44 -96t126 -34q47 0 83 10t67 32q29 19 44 19q13 0 27 -14q16 -15 16 -33q0 -19 -17 -32q-84 -70 -220 -70q-86 0 -149.5 30.5z
M438 289q17 0 25 7t8 24q0 41 -44 66.5t-117 25.5q-74 0 -117 -33.5t-43 -89.5h288zM140 597q0 20 11.5 28t35.5 8h252q24 0 35.5 -8t11.5 -28q0 -35 -47 -35h-252q-47 0 -47 35z" />
    <glyph glyph-name="eogonek" unicode="&#x119;" horiz-adv-x="622" 
d="M555 92q0 -19 -17 -32q-61 -51 -149 -64q-5 -4 -29.5 -24.5t-33.5 -37.5t-9 -36q0 -17 12 -26t29 -9q28 0 47 17q11 10 23 10q11 0 21 -10q12 -12 12 -24t-13 -25q-40 -38 -99 -38q-54 0 -88.5 24t-34.5 71q0 29 11.5 54t35.5 50q-110 12 -172.5 78.5t-62.5 172.5
q0 121 72 189t200 68q79 0 140 -25t95 -69.5t34 -101.5q0 -46 -28 -71t-79 -25h-324q0 -62 44 -96t126 -34q47 0 83 10t67 32q29 19 44 19q13 0 27 -14q16 -15 16 -33zM193 378.5q-43 -33.5 -43 -89.5h288q17 0 25 7t8 24q0 41 -44 66.5t-117 25.5q-74 0 -117 -33.5z" />
    <glyph glyph-name="uni1EBD" unicode="&#x1ebd;" horiz-adv-x="622" 
d="M168.5 20.5q-63.5 30.5 -97 87.5t-33.5 135q0 121 72 189t200 68q79 0 140 -25t95 -69.5t34 -101.5q0 -46 -28 -71t-79 -25h-324q0 -62 44 -96t126 -34q47 0 83 10t67 32q29 19 44 19q13 0 27 -14q16 -15 16 -33q0 -19 -17 -32q-84 -70 -220 -70q-86 0 -149.5 30.5z
M438 289q17 0 25 7t8 24q0 41 -44 66.5t-117 25.5q-74 0 -117 -33.5t-43 -89.5h288zM139 589.5q-11 9.5 -11 24.5q0 10 4 19q32 82 108 82q26 0 47 -9t47 -26q17 -11 28 -16.5t22 -5.5q15 0 24 8.5t17 27.5q13 28 37 28q17 0 28 -9.5t11 -24.5q0 -10 -4 -19
q-32 -82 -108 -82q-25 0 -43.5 8t-42.5 24q-18 13 -31 19t-27 6q-15 0 -24 -8t-17 -27q-13 -29 -36 -29q-18 0 -29 9.5z" />
    <glyph glyph-name="uni0259" unicode="&#x259;" horiz-adv-x="636" 
d="M173.5 15.5q-62.5 24.5 -97 69t-34.5 102.5q0 46 28 71t80 25h333q0 59 -47 93.5t-127 34.5q-47 0 -83.5 -11t-70.5 -35q-26 -19 -43 -19q-15 0 -29 14q-16 15 -16 33q0 19 17 33q43 36 100.5 55t124.5 19q134 0 209.5 -67t75.5 -185q0 -120 -74 -188.5t-204 -68.5
q-80 0 -142.5 24.5zM436 113.5q45 33.5 45 88.5h-296q-17 0 -25 -7t-8 -24q0 -42 44 -66.5t120 -24.5q75 0 120 33.5z" />
    <glyph glyph-name="f" unicode="f" horiz-adv-x="474" 
d="M445 665q0 -14 -9 -26q-15 -21 -34 -21q-11 0 -30 8q-38 19 -77 19q-31 0 -48.5 -18.5t-17.5 -51.5v-85h124q26 0 41.5 -12t15.5 -33q0 -20 -15.5 -32t-41.5 -12h-124v-358q0 -25 -15 -39t-41 -14t-41 14t-15 39v358h-31q-26 0 -41.5 12t-15.5 32q0 21 15 33t42 12h31v81
q0 74 46 119t121 45q47 0 81 -8.5t60 -27.5q20 -14 20 -34z" />
    <glyph glyph-name="g" unicode="g" horiz-adv-x="665" 
d="M193 -228q-63 22 -99 62q-12 13 -12 30q0 23 21 38q13 10 28 10q23 0 48 -24q24 -24 62 -37.5t84 -13.5q85 0 131 47t45 132l-1 58q-71 -86 -200 -86q-124 0 -193 68t-69 186q0 119 70.5 188.5t198.5 69.5q56 0 106 -23t88 -65v35q0 24 15.5 38.5t40.5 14.5t40 -14
t15 -39v-431q0 -78 -34 -138.5t-97.5 -94t-148.5 -33.5q-76 0 -139 22zM450 122q50 43 50 122q0 76 -47 121t-131 45q-81 0 -126 -44t-45 -124q0 -77 44 -120t125 -43q80 0 130 43z" />
    <glyph glyph-name="gbreve" unicode="&#x11f;" horiz-adv-x="665" 
d="M193 -228q-63 22 -99 62q-12 13 -12 30q0 23 21 38q13 10 28 10q23 0 48 -24q24 -24 62 -37.5t84 -13.5q85 0 131 47t45 132l-1 58q-71 -86 -200 -86q-124 0 -193 68t-69 186q0 119 70.5 188.5t198.5 69.5q56 0 106 -23t88 -65v35q0 24 15.5 38.5t40.5 14.5t40 -14
t15 -39v-431q0 -78 -34 -138.5t-97.5 -94t-148.5 -33.5q-76 0 -139 22zM450 122q50 43 50 122q0 76 -47 121t-131 45q-81 0 -126 -44t-45 -124q0 -77 44 -120t125 -43q80 0 130 43zM176.5 607q-48.5 45 -48.5 118q0 25 13.5 38t38.5 13t38.5 -13t13.5 -38q0 -39 19.5 -60.5
t56.5 -21.5t56.5 21.5t19.5 60.5q0 24 13.5 37.5t38.5 13.5t38.5 -13t13.5 -38q0 -73 -48.5 -118t-131.5 -45t-131.5 45z" />
    <glyph glyph-name="gcaron" unicode="&#x1e7;" horiz-adv-x="665" 
d="M193 -228q-63 22 -99 62q-12 13 -12 30q0 23 21 38q13 10 28 10q23 0 48 -24q24 -24 62 -37.5t84 -13.5q85 0 131 47t45 132l-1 58q-71 -86 -200 -86q-124 0 -193 68t-69 186q0 119 70.5 188.5t198.5 69.5q56 0 106 -23t88 -65v35q0 24 15.5 38.5t40.5 14.5t40 -14
t15 -39v-431q0 -78 -34 -138.5t-97.5 -94t-148.5 -33.5q-76 0 -139 22zM450 122q50 43 50 122q0 76 -47 121t-131 45q-81 0 -126 -44t-45 -124q0 -77 44 -120t125 -43q80 0 130 43zM264 581l-105 127q-13 16 -13 32q0 19 19 34q14 11 28 11q21 0 40 -25l76 -104l76 104
q19 25 41 25q14 0 27 -10q20 -15 20 -35q0 -16 -14 -33l-105 -126q-19 -21 -45 -21t-45 21z" />
    <glyph glyph-name="gcircumflex" unicode="&#x11d;" horiz-adv-x="665" 
d="M193 -228q-63 22 -99 62q-12 13 -12 30q0 23 21 38q13 10 28 10q23 0 48 -24q24 -24 62 -37.5t84 -13.5q85 0 131 47t45 132l-1 58q-71 -86 -200 -86q-124 0 -193 68t-69 186q0 119 70.5 188.5t198.5 69.5q56 0 106 -23t88 -65v35q0 24 15.5 38.5t40.5 14.5t40 -14
t15 -39v-431q0 -78 -34 -138.5t-97.5 -94t-148.5 -33.5q-76 0 -139 22zM450 122q50 43 50 122q0 76 -47 121t-131 45q-81 0 -126 -44t-45 -124q0 -77 44 -120t125 -43q80 0 130 43zM146 604q0 17 13 33l105 126q19 22 45 22t45 -22l105 -126q13 -16 13 -33q0 -19 -18 -34
q-14 -10 -28 -10q-22 0 -41 24l-76 104l-76 -104q-18 -24 -41 -24q-14 0 -27 10q-19 15 -19 34z" />
    <glyph glyph-name="uni0123" unicode="&#x123;" horiz-adv-x="665" 
d="M193 -228q-63 22 -99 62q-12 13 -12 30q0 23 21 38q13 10 28 10q23 0 48 -24q24 -24 62 -37.5t84 -13.5q85 0 131 47t45 132l-1 58q-71 -86 -200 -86q-124 0 -193 68t-69 186q0 119 70.5 188.5t198.5 69.5q56 0 106 -23t88 -65v35q0 24 15.5 38.5t40.5 14.5t40 -14
t15 -39v-431q0 -78 -34 -138.5t-97.5 -94t-148.5 -33.5q-76 0 -139 22zM450 122q50 43 50 122q0 76 -47 121t-131 45q-81 0 -126 -44t-45 -124q0 -77 44 -120t125 -43q80 0 130 43zM250 588.5q-21 23.5 -21 60.5q0 36 22 73.5t61 68.5q26 20 46 20q15 0 23 -11q6 -6 6 -14
q0 -14 -21 -32q-41 -34 -45 -64q25 4 43.5 -13.5t18.5 -44.5q0 -33 -20.5 -50t-56.5 -17q-35 0 -56 23.5z" />
    <glyph glyph-name="gdotaccent" unicode="&#x121;" horiz-adv-x="665" 
d="M193 -228q-63 22 -99 62q-12 13 -12 30q0 23 21 38q13 10 28 10q23 0 48 -24q24 -24 62 -37.5t84 -13.5q85 0 131 47t45 132l-1 58q-71 -86 -200 -86q-124 0 -193 68t-69 186q0 119 70.5 188.5t198.5 69.5q56 0 106 -23t88 -65v35q0 24 15.5 38.5t40.5 14.5t40 -14
t15 -39v-431q0 -78 -34 -138.5t-97.5 -94t-148.5 -33.5q-76 0 -139 22zM450 122q50 43 50 122q0 76 -47 121t-131 45q-81 0 -126 -44t-45 -124q0 -77 44 -120t125 -43q80 0 130 43zM257.5 594.5q-20.5 19.5 -20.5 47.5t20.5 47.5t51.5 19.5q30 0 50.5 -19.5t20.5 -47.5
t-20.5 -47.5t-50.5 -19.5q-31 0 -51.5 19.5z" />
    <glyph glyph-name="uni1E21" unicode="&#x1e21;" horiz-adv-x="665" 
d="M193 -228q-63 22 -99 62q-12 13 -12 30q0 23 21 38q13 10 28 10q23 0 48 -24q24 -24 62 -37.5t84 -13.5q85 0 131 47t45 132l-1 58q-71 -86 -200 -86q-124 0 -193 68t-69 186q0 119 70.5 188.5t198.5 69.5q56 0 106 -23t88 -65v35q0 24 15.5 38.5t40.5 14.5t40 -14
t15 -39v-431q0 -78 -34 -138.5t-97.5 -94t-148.5 -33.5q-76 0 -139 22zM450 122q50 43 50 122q0 76 -47 121t-131 45q-81 0 -126 -44t-45 -124q0 -77 44 -120t125 -43q80 0 130 43zM134 604q0 20 11.5 28t35.5 8h252q24 0 35.5 -8t11.5 -28q0 -35 -47 -35h-252q-47 0 -47 35
z" />
    <glyph glyph-name="h" unicode="h" horiz-adv-x="614" 
d="M69 4q-15 14 -15 39v663q0 25 15 39t41 14t41 -14t15 -39v-298q73 92 195 92q95 0 149.5 -58t54.5 -160v-239q0 -25 -15.5 -39t-41.5 -14t-40.5 14t-14.5 39v239q0 62 -30 95t-85 33q-80 0 -126 -47.5t-46 -128.5v-191q0 -24 -15.5 -38.5t-40.5 -14.5q-26 0 -41 14z" />
    <glyph glyph-name="hbar" unicode="&#x127;" horiz-adv-x="676" 
d="M577.5 442q54.5 -58 54.5 -160v-239q0 -25 -15.5 -39t-41.5 -14t-40.5 14t-14.5 39v239q0 62 -30 95t-85 33q-80 0 -126 -47.5t-46 -128.5v-191q0 -24 -15.5 -38.5t-40.5 -14.5q-26 0 -41 14t-15 39v521h-43q-25 0 -38.5 11t-13.5 32q0 44 52 44h43v55q0 25 15 39t41 14
t41 -14t15 -39v-55h107q52 0 52 -44q0 -21 -13.5 -32t-38.5 -11h-107v-156q73 92 195 92q95 0 149.5 -58z" />
    <glyph glyph-name="uni1E2B" unicode="&#x1e2b;" horiz-adv-x="614" 
d="M69 4q-15 14 -15 39v663q0 25 15 39t41 14t41 -14t15 -39v-298q73 92 195 92q95 0 149.5 -58t54.5 -160v-239q0 -25 -15.5 -39t-41.5 -14t-40.5 14t-14.5 39v239q0 62 -30 95t-85 33q-80 0 -126 -47.5t-46 -128.5v-191q0 -24 -15.5 -38.5t-40.5 -14.5q-26 0 -41 14z
M189 -233.5q-46 40.5 -46 108.5q0 24 13 37.5t36 13.5q25 0 35.5 -12.5t10.5 -38.5q0 -33 21 -53t58 -20t57.5 19.5t20.5 53.5q0 26 11 38.5t36 12.5q23 0 35.5 -13.5t12.5 -37.5q0 -68 -45.5 -108.5t-127.5 -40.5t-128 40.5z" />
    <glyph glyph-name="hcircumflex" unicode="&#x125;" horiz-adv-x="614" 
d="M69 4q-15 14 -15 39v663q0 25 15 39t41 14t41 -14t15 -39v-298q73 92 195 92q95 0 149.5 -58t54.5 -160v-239q0 -25 -15.5 -39t-41.5 -14t-40.5 14t-14.5 39v239q0 62 -30 95t-85 33q-80 0 -126 -47.5t-46 -128.5v-191q0 -24 -15.5 -38.5t-40.5 -14.5q-26 0 -41 14z
M67 863q0 17 13 33l105 126q19 22 45 22t45 -22l105 -126q13 -16 13 -33q0 -19 -18 -34q-14 -10 -28 -10q-22 0 -41 24l-76 104l-76 -104q-18 -24 -41 -24q-14 0 -27 10q-19 15 -19 34z" />
    <glyph glyph-name="uni1E25" unicode="&#x1e25;" horiz-adv-x="614" 
d="M69 4q-15 14 -15 39v663q0 25 15 39t41 14t41 -14t15 -39v-298q73 92 195 92q95 0 149.5 -58t54.5 -160v-239q0 -25 -15.5 -39t-41.5 -14t-40.5 14t-14.5 39v239q0 62 -30 95t-85 33q-80 0 -126 -47.5t-46 -128.5v-191q0 -24 -15.5 -38.5t-40.5 -14.5q-26 0 -41 14z
M263.5 -182.5q-19.5 18.5 -19.5 47.5q0 31 19.5 49t52.5 18q32 0 51.5 -18t19.5 -49q0 -29 -19.5 -47.5t-51.5 -18.5q-33 0 -52.5 18.5z" />
    <glyph glyph-name="i" unicode="i" horiz-adv-x="255" 
d="M74.5 595.5q-20.5 18.5 -20.5 47.5t20.5 47.5t52.5 18.5t53 -18.5t21 -47.5t-21 -47.5t-53 -18.5t-52.5 18.5zM86.5 4q-14.5 14 -14.5 39v404q0 25 14.5 39t40.5 14t41.5 -14t15.5 -39v-404q0 -25 -15.5 -39t-41.5 -14t-40.5 14z" />
    <glyph glyph-name="dotlessi" unicode="&#x131;" horiz-adv-x="255" 
d="M87 4q-15 14 -15 39v404q0 25 15 39t41 14t41 -14t15 -39v-404q0 -25 -15 -39t-41 -14t-41 14z" />
    <glyph glyph-name="iacute" unicode="&#xed;" horiz-adv-x="255" 
d="M87 4q-15 14 -15 39v404q0 25 15 39t41 14t41 -14t15 -39v-404q0 -25 -15 -39t-41 -14t-41 14zM101.5 562q-5.5 9 -5.5 19q0 8 3 15l59 145q15 36 44 36q14 0 28 -7q32 -17 32 -41q0 -11 -8 -25l-80 -139q-6 -10 -16.5 -16t-21.5 -6q-9 0 -19 5t-15.5 14z" />
    <glyph glyph-name="ibreve" unicode="&#x12d;" horiz-adv-x="255" 
d="M87 4q-15 14 -15 39v404q0 25 15 39t41 14t41 -14t15 -39v-404q0 -25 -15 -39t-41 -14t-41 14zM-3.5 587q-48.5 45 -48.5 118q0 25 13.5 38t38.5 13t38.5 -13t13.5 -38q0 -39 19.5 -60.5t56.5 -21.5t56.5 21.5t19.5 60.5q0 24 13.5 37.5t38.5 13.5t38.5 -13t13.5 -38
q0 -73 -48.5 -118t-131.5 -45t-131.5 45z" />
    <glyph glyph-name="uni01D0" unicode="&#x1d0;" horiz-adv-x="255" 
d="M87 4q-15 14 -15 39v404q0 25 15 39t41 14t41 -14t15 -39v-404q0 -25 -15 -39t-41 -14t-41 14zM83 561l-105 127q-13 16 -13 32q0 19 19 34q14 11 28 11q21 0 40 -25l76 -104l76 104q19 25 41 25q14 0 27 -10q20 -15 20 -35q0 -16 -14 -33l-105 -126q-19 -21 -45 -21
t-45 21z" />
    <glyph glyph-name="icircumflex" unicode="&#xee;" horiz-adv-x="255" 
d="M87 4q-15 14 -15 39v404q0 25 15 39t41 14t41 -14t15 -39v-404q0 -25 -15 -39t-41 -14t-41 14zM-35 584q0 17 13 33l105 126q19 22 45 22t45 -22l105 -126q13 -16 13 -33q0 -19 -18 -34q-14 -10 -28 -10q-21 0 -41 24l-76 104l-76 -104q-20 -24 -41 -24q-14 0 -27 10
q-19 15 -19 34z" />
    <glyph glyph-name="idieresis" unicode="&#xef;" horiz-adv-x="255" 
d="M87 4q-15 14 -15 39v404q0 25 15 39t41 14t41 -14t15 -39v-404q0 -25 -15 -39t-41 -14t-41 14zM-30 580q-18 18 -18 44t18 44.5t46 18.5q27 0 45 -18t18 -45q0 -25 -18 -43.5t-45 -18.5q-28 0 -46 18zM196.5 580q-18.5 18 -18.5 44t18 44.5t46 18.5t46 -18t18 -45
q0 -25 -18.5 -43.5t-45.5 -18.5t-45.5 18z" />
    <glyph glyph-name="uni1ECB" unicode="&#x1ecb;" horiz-adv-x="255" 
d="M74.5 595.5q-20.5 18.5 -20.5 47.5t20.5 47.5t52.5 18.5t53 -18.5t21 -47.5t-21 -47.5t-53 -18.5t-52.5 18.5zM86.5 4q-14.5 14 -14.5 39v404q0 25 14.5 39t40.5 14t41.5 -14t15.5 -39v-404q0 -25 -15.5 -39t-41.5 -14t-40.5 14zM75.5 -182.5q-19.5 18.5 -19.5 47.5
q0 31 19.5 49t52.5 18q32 0 51.5 -18t19.5 -49q0 -29 -19.5 -47.5t-51.5 -18.5q-33 0 -52.5 18.5z" />
    <glyph glyph-name="igrave" unicode="&#xec;" horiz-adv-x="255" 
d="M87 4q-15 14 -15 39v404q0 25 15 39t41 14t41 -14t15 -39v-404q0 -25 -15 -39t-41 -14t-41 14zM105.5 549q-10.5 6 -16.5 16l-80 139q-8 13 -8 25q0 24 32 41q14 7 28 7q30 0 45 -36l58 -145q3 -7 3 -15q0 -15 -10.5 -26.5t-29.5 -11.5q-11 0 -21.5 6z" />
    <glyph glyph-name="uni1EC9" unicode="&#x1ec9;" horiz-adv-x="255" 
d="M87 4q-15 14 -15 39v404q0 25 15 39t41 14t41 -14t15 -39v-404q0 -25 -15 -39t-41 -14t-41 14zM92 533q-13 9 -13 25v6q0 17 10.5 30.5t29.5 28.5q15 13 21.5 20.5t6.5 16.5q0 12 -7.5 18.5t-21.5 6.5q-27 0 -47 -25q-11 -12 -26 -12q-13 0 -24 8q-16 10 -16 25q0 9 7 19
q17 24 49 39.5t74 15.5q56 0 85 -23t29 -60q0 -21 -11.5 -36t-32.5 -32q-15 -13 -22 -21.5t-7 -17.5v-7q0 -16 -13 -25t-36 -9q-22 0 -35 9z" />
    <glyph glyph-name="ij" unicode="&#x133;" horiz-adv-x="511" 
d="M74.5 577.5q-20.5 18.5 -20.5 47.5t20.5 47.5t52.5 18.5t53 -18.5t21 -47.5t-21 -47.5t-53 -18.5t-52.5 18.5zM330 577.5q-20 18.5 -20 47.5t20 47.5t52 18.5t53 -18.5t21 -47.5t-21 -47.5t-53 -18.5t-52 18.5zM86.5 4q-14.5 14 -14.5 39v404q0 25 14.5 39t40.5 14
t41.5 -14t15.5 -39v-404q0 -25 -15.5 -39t-41.5 -14t-40.5 14zM205.5 -279q-14.5 13 -14.5 33t14.5 32.5t37.5 12.5q36 0 54 8.5t24 28.5t6 61v550q0 25 14.5 39t41.5 14q26 0 41 -14t15 -39v-550q0 -96 -48 -142.5t-148 -46.5q-23 0 -37.5 13z" />
    <glyph glyph-name="imacron" unicode="&#x12b;" horiz-adv-x="255" 
d="M87 4q-15 14 -15 39v404q0 25 15 39t41 14t41 -14t15 -39v-404q0 -25 -15 -39t-41 -14t-41 14zM-45 579q0 20 11.5 28t35.5 8h252q24 0 35.5 -8t11.5 -28q0 -35 -47 -35h-252q-47 0 -47 35z" />
    <glyph glyph-name="iogonek" unicode="&#x12f;" horiz-adv-x="255" 
d="M74.5 595.5q-20.5 18.5 -20.5 47.5t20.5 47.5t52.5 18.5t53 -18.5t21 -47.5t-21 -47.5t-53 -18.5t-52.5 18.5zM229 -142q0 -12 -13 -25q-39 -39 -99 -39q-54 0 -88.5 24t-34.5 71q0 37 19.5 69t60.5 67q-2 12 -2 18v404q0 25 14.5 39t40.5 14t41.5 -14t15.5 -39v-404
q0 -16 -7 -28.5t-20 -18.5l-30 -25t-33 -36t-9 -35q0 -17 12 -26t29 -9q28 0 47 16q13 11 23 11q11 0 21 -10q12 -12 12 -24z" />
    <glyph glyph-name="itilde" unicode="&#x129;" horiz-adv-x="255" 
d="M87 4q-15 14 -15 39v404q0 25 15 39t41 14t41 -14t15 -39v-404q0 -25 -15 -39t-41 -14t-41 14zM-47 577.5q-11 9.5 -11 24.5q0 10 4 19q32 82 108 82q26 0 47 -9t47 -26q17 -11 28 -16.5t22 -5.5q15 0 24 8.5t17 27.5q13 28 37 28q17 0 28 -9.5t11 -24.5q0 -10 -4 -19
q-32 -82 -108 -82q-25 0 -43.5 8t-42.5 24q-18 13 -31 19t-27 6q-15 0 -24 -8t-17 -27q-13 -29 -36 -29q-18 0 -29 9.5z" />
    <glyph glyph-name="j" unicode="j" horiz-adv-x="342" 
d="M160.5 596.5q-20.5 18.5 -20.5 47.5t20.5 47.5t52.5 18.5t53 -18.5t21 -47.5t-21 -47.5t-53 -18.5t-52.5 18.5zM36.5 -279q-14.5 13 -14.5 33t14.5 32.5t37.5 12.5q36 0 53.5 8t24 28.5t6.5 61.5v550q0 25 14.5 39t40.5 14t41.5 -14t15.5 -39l-1 -550q0 -95 -47 -142
t-148 -47q-23 0 -37.5 13z" />
    <glyph glyph-name="uni0237" unicode="&#x237;" horiz-adv-x="333" 
d="M40.5 -279.5q-14.5 12.5 -14.5 33.5t14.5 33t37.5 12q35 0 52.5 7.5t24.5 28t7 62.5v550q0 25 15 39t41 14t41 -14t15 -39v-550q0 -94 -47.5 -141.5t-148.5 -47.5q-23 0 -37.5 12.5z" />
    <glyph glyph-name="jcircumflex" unicode="&#x135;" horiz-adv-x="333" 
d="M40.5 -279.5q-14.5 12.5 -14.5 33.5t14.5 33t37.5 12q35 0 52.5 7.5t24.5 28t7 62.5v550q0 25 15 39t41 14t41 -14t15 -39v-550q0 -94 -47.5 -141.5t-148.5 -47.5q-23 0 -37.5 12.5zM52 584q0 17 13 33l105 126q19 22 45 22t45 -22l105 -126q13 -16 13 -33q0 -19 -18 -34
q-14 -10 -28 -10q-21 0 -41 24l-76 104l-76 -104q-20 -24 -41 -24q-14 0 -27 10q-19 15 -19 34z" />
    <glyph glyph-name="k" unicode="k" horiz-adv-x="591" 
d="M69.5 4q-14.5 14 -14.5 39v663q0 25 14.5 39t40.5 14t41.5 -14t15.5 -39v-415l305 200q17 12 34 12q24 0 36 -23q7 -14 7 -27q0 -23 -26 -39l-163 -103q88 -55 132.5 -118t57.5 -147q1 -4 1 -11q0 -21 -12.5 -33t-34.5 -12q-49 0 -58 38q-15 60 -34.5 99t-51 69t-84.5 61
l-109 -74v-140q0 -24 -15.5 -38.5t-41.5 -14.5t-40.5 14z" />
    <glyph glyph-name="uni0137" unicode="&#x137;" horiz-adv-x="599" 
d="M69.5 4q-14.5 14 -14.5 39v663q0 25 14.5 39t40.5 14t41.5 -14t15.5 -39v-415l305 200q17 12 34 12q24 0 36 -23q7 -14 7 -27q0 -23 -26 -39l-163 -103q88 -55 132.5 -118t57.5 -147q1 -4 1 -11q0 -21 -12.5 -33t-34.5 -12q-49 0 -58 38q-15 60 -34.5 99t-51 69t-84.5 61
l-109 -74v-140q0 -24 -15.5 -38.5t-41.5 -14.5t-40.5 14zM233 -270q0 15 19 32q35 34 43 67q-27 -2 -45.5 14.5t-18.5 43.5q0 32 21.5 50t55.5 18q37 0 58 -22.5t21 -62.5q0 -35 -23.5 -75t-61.5 -70q-23 -19 -41 -19q-11 0 -21 9q-7 7 -7 15z" />
    <glyph glyph-name="kgreenlandic" unicode="&#x138;" horiz-adv-x="582" 
d="M69.5 4q-14.5 14 -14.5 39v404q0 25 14.5 39t40.5 14t41.5 -14.5t15.5 -38.5v-153l294 197q17 10 30 10q12 0 22.5 -6.5t16.5 -17.5q8 -16 8 -28q0 -23 -25 -39l-164 -109q82 -43 128 -103.5t64 -150.5q1 -5 1 -14q0 -20 -12 -31.5t-33 -11.5q-50 0 -57 38
q-17 82 -54.5 129t-121.5 93l-97 -65v-142q0 -24 -15.5 -38.5t-41.5 -14.5t-40.5 14z" />
    <glyph glyph-name="l" unicode="l" horiz-adv-x="260" 
d="M89 4q-15 14 -15 39v663q0 25 15 39t41 14t41 -14t15 -39v-663q0 -24 -15.5 -38.5t-40.5 -14.5q-26 0 -41 14z" />
    <glyph glyph-name="lacute" unicode="&#x13a;" horiz-adv-x="260" 
d="M89 4q-15 14 -15 39v663q0 25 15 39t41 14t41 -14t15 -39v-663q0 -24 -15.5 -38.5t-40.5 -14.5q-26 0 -41 14zM103.5 841q-5.5 9 -5.5 19q0 8 3 15l59 145q15 36 44 36q14 0 28 -7q32 -17 32 -41q0 -11 -8 -25l-80 -139q-6 -10 -16.5 -16t-21.5 -6q-9 0 -19 5t-15.5 14z
" />
    <glyph glyph-name="lcaron" unicode="&#x13e;" horiz-adv-x="383" 
d="M89 4q-15 14 -15 39v663q0 25 15 39t41 14t41 -14t15 -39v-663q0 -24 -15.5 -38.5t-40.5 -14.5q-26 0 -41 14zM250 529q0 15 21 33q19 15 31 32t14 32q-25 -4 -43.5 13.5t-18.5 44.5q0 32 21 49.5t56 17.5t56 -23.5t21 -60.5q0 -36 -22 -72.5t-62 -69.5q-24 -21 -45 -21
q-14 0 -23 11q-6 8 -6 14z" />
    <glyph glyph-name="uni013C" unicode="&#x13c;" horiz-adv-x="260" 
d="M89 4q-15 14 -15 39v663q0 25 15 39t41 14t41 -14t15 -39v-663q0 -24 -15.5 -38.5t-40.5 -14.5q-26 0 -41 14zM54 -293q0 15 19 32q35 34 43 67q-27 -2 -45.5 14.5t-18.5 43.5q0 32 21.5 50t55.5 18q37 0 58 -22.5t21 -62.5q0 -35 -23.5 -75t-61.5 -70q-23 -19 -41 -19
q-11 0 -21 9q-7 7 -7 15z" />
    <glyph glyph-name="ldot" unicode="&#x140;" horiz-adv-x="407" 
d="M89 4q-15 14 -15 39v663q0 25 15 39t41 14t41 -14t15 -39v-663q0 -24 -15.5 -38.5t-40.5 -14.5q-26 0 -41 14zM252.5 292.5q-21.5 20.5 -21.5 47.5q0 30 21 50.5t53 20.5q30 0 51 -21t21 -50q0 -27 -21 -47.5t-51 -20.5q-31 0 -52.5 20.5z" />
    <glyph glyph-name="uni1E37" unicode="&#x1e37;" horiz-adv-x="260" 
d="M89 4q-15 14 -15 39v663q0 25 15 39t41 14t41 -14t15 -39v-663q0 -24 -15.5 -38.5t-40.5 -14.5q-26 0 -41 14zM78.5 -182.5q-19.5 18.5 -19.5 47.5q0 31 19.5 49t52.5 18q32 0 51.5 -18t19.5 -49q0 -29 -19.5 -47.5t-51.5 -18.5q-33 0 -52.5 18.5z" />
    <glyph glyph-name="uni1E39" unicode="&#x1e39;" horiz-adv-x="260" 
d="M89 4q-15 14 -15 39v663q0 25 15 39t41 14t41 -14t15 -39v-663q0 -24 -15.5 -38.5t-40.5 -14.5q-26 0 -41 14zM78.5 -182.5q-19.5 18.5 -19.5 47.5q0 31 19.5 49t52.5 18q32 0 51.5 -18t19.5 -49q0 -29 -19.5 -47.5t-51.5 -18.5q-33 0 -52.5 18.5zM-44 863q0 20 11.5 28
t35.5 8h252q24 0 35.5 -8t11.5 -28q0 -35 -47 -35h-252q-47 0 -47 35z" />
    <glyph glyph-name="uni1E3B" unicode="&#x1e3b;" horiz-adv-x="260" 
d="M89 4q-15 14 -15 39v663q0 25 15 39t41 14t41 -14t15 -39v-663q0 -24 -15.5 -38.5t-40.5 -14.5q-26 0 -41 14zM-42 -121q0 20 11.5 28.5t35.5 8.5h252q24 0 35.5 -8.5t11.5 -28.5q0 -35 -47 -35h-252q-47 0 -47 35z" />
    <glyph glyph-name="lslash" unicode="&#x142;" horiz-adv-x="394" 
d="M369 508q0 -21 -20 -35l-77 -55v-375q0 -24 -15.5 -38.5t-41.5 -14.5t-40.5 14t-14.5 39v296l-58 -41q-14 -8 -29 -8q-23 0 -37 18q-11 16 -11 29q0 22 20 36l115 81v252q0 25 14.5 39t40.5 14t41.5 -14t15.5 -39v-173l20 14q13 9 30 9q21 0 36 -19q11 -14 11 -29z" />
    <glyph glyph-name="m" unicode="m" horiz-adv-x="815" 
d="M68.5 4q-14.5 14 -14.5 39v404q0 25 14.5 39t40.5 14t41 -14.5t15 -38.5v-35q25 42 62.5 65t80.5 23q44 0 78.5 -23.5t51.5 -64.5q70 88 162 88q80 0 123.5 -53.5t43.5 -151.5v-252q0 -25 -15.5 -39t-41.5 -14t-40.5 14t-14.5 39v258q0 109 -78 109q-67 0 -106 -79v-288
q0 -25 -15 -39t-41 -14t-41 14t-15 39v239q0 128 -77 128q-53 0 -85 -41.5t-32 -111.5v-214q0 -24 -15 -38.5t-41 -14.5t-40.5 14z" />
    <glyph glyph-name="uni1E43" unicode="&#x1e43;" horiz-adv-x="815" 
d="M68.5 4q-14.5 14 -14.5 39v404q0 25 14.5 39t40.5 14t41 -14.5t15 -38.5v-35q25 42 62.5 65t80.5 23q44 0 78.5 -23.5t51.5 -64.5q70 88 162 88q80 0 123.5 -53.5t43.5 -151.5v-252q0 -25 -15.5 -39t-41.5 -14t-40.5 14t-14.5 39v258q0 109 -78 109q-67 0 -106 -79v-288
q0 -25 -15 -39t-41 -14t-41 14t-15 39v239q0 128 -77 128q-53 0 -85 -41.5t-32 -111.5v-214q0 -24 -15 -38.5t-41 -14.5t-40.5 14zM369.5 -182.5q-19.5 18.5 -19.5 47.5q0 31 19.5 49t52.5 18q32 0 51.5 -18t19.5 -49q0 -29 -19.5 -47.5t-51.5 -18.5q-33 0 -52.5 18.5z" />
    <glyph glyph-name="n" unicode="n" horiz-adv-x="614" 
d="M69 4q-15 14 -15 39v404q0 25 14.5 39t39.5 14q26 0 40.5 -14t14.5 -39v-39q74 92 198 92q95 0 149.5 -58t54.5 -160v-239q0 -25 -15.5 -39t-41.5 -14t-40.5 14t-14.5 39v239q0 62 -30 95t-85 33q-80 0 -126 -47.5t-46 -128.5v-191q0 -24 -15.5 -38.5t-40.5 -14.5
q-26 0 -41 14z" />
    <glyph glyph-name="nacute" unicode="&#x144;" horiz-adv-x="614" 
d="M69 4q-15 14 -15 39v404q0 25 14.5 39t39.5 14q26 0 40.5 -14t14.5 -39v-39q74 92 198 92q95 0 149.5 -58t54.5 -160v-239q0 -25 -15.5 -39t-41.5 -14t-40.5 14t-14.5 39v239q0 62 -30 95t-85 33q-80 0 -126 -47.5t-46 -128.5v-191q0 -24 -15.5 -38.5t-40.5 -14.5
q-26 0 -41 14zM282.5 582q-5.5 9 -5.5 19q0 8 3 15l59 145q15 36 44 36q14 0 28 -7q32 -17 32 -41q0 -11 -8 -25l-80 -139q-6 -10 -16.5 -16t-21.5 -6q-9 0 -19 5t-15.5 14z" />
    <glyph glyph-name="napostrophe" unicode="&#x149;" horiz-adv-x="751" 
d="M206 4q-15 14 -15 39v404q0 25 14.5 39t39.5 14q26 0 40.5 -14t14.5 -39v-39q74 92 198 92q95 0 149.5 -58t54.5 -160v-239q0 -25 -15.5 -39t-41.5 -14t-40.5 14t-14.5 39v239q0 62 -30 95t-85 33q-80 0 -126 -47.5t-46 -128.5v-191q0 -24 -15.5 -38.5t-40.5 -14.5
q-26 0 -41 14zM37 428q0 15 21 33q19 15 31 32t14 32q-25 -4 -43.5 13.5t-18.5 44.5q0 32 21 49.5t56 17.5t56 -23.5t21 -60.5q0 -36 -22 -72.5t-62 -69.5q-24 -21 -45 -21q-14 0 -23 11q-6 8 -6 14z" />
    <glyph glyph-name="ncaron" unicode="&#x148;" horiz-adv-x="614" 
d="M69 4q-15 14 -15 39v404q0 25 14.5 39t39.5 14q26 0 40.5 -14t14.5 -39v-39q74 92 198 92q95 0 149.5 -58t54.5 -160v-239q0 -25 -15.5 -39t-41.5 -14t-40.5 14t-14.5 39v239q0 62 -30 95t-85 33q-80 0 -126 -47.5t-46 -128.5v-191q0 -24 -15.5 -38.5t-40.5 -14.5
q-26 0 -41 14zM265 581l-105 127q-13 16 -13 32q0 19 19 34q14 11 28 11q21 0 40 -25l76 -104l76 104q19 25 41 25q14 0 27 -10q20 -15 20 -35q0 -16 -14 -33l-105 -126q-19 -21 -45 -21t-45 21z" />
    <glyph glyph-name="uni0146" unicode="&#x146;" horiz-adv-x="614" 
d="M69 4q-15 14 -15 39v404q0 25 14.5 39t39.5 14q26 0 40.5 -14t14.5 -39v-39q74 92 198 92q95 0 149.5 -58t54.5 -160v-239q0 -25 -15.5 -39t-41.5 -14t-40.5 14t-14.5 39v239q0 62 -30 95t-85 33q-80 0 -126 -47.5t-46 -128.5v-191q0 -24 -15.5 -38.5t-40.5 -14.5
q-26 0 -41 14zM233 -293q0 15 19 32q35 34 43 67q-27 -2 -45.5 14.5t-18.5 43.5q0 32 21.5 50t55.5 18q37 0 58 -22.5t21 -62.5q0 -35 -23.5 -75t-61.5 -70q-23 -19 -41 -19q-11 0 -21 9q-7 7 -7 15z" />
    <glyph glyph-name="uni1E45" unicode="&#x1e45;" horiz-adv-x="614" 
d="M69 4q-15 14 -15 39v404q0 25 14.5 39t39.5 14q26 0 40.5 -14t14.5 -39v-39q74 92 198 92q95 0 149.5 -58t54.5 -160v-239q0 -25 -15.5 -39t-41.5 -14t-40.5 14t-14.5 39v239q0 62 -30 95t-85 33q-80 0 -126 -47.5t-46 -128.5v-191q0 -24 -15.5 -38.5t-40.5 -14.5
q-26 0 -41 14zM258.5 594.5q-20.5 19.5 -20.5 47.5t20.5 47.5t51.5 19.5q30 0 50.5 -19.5t20.5 -47.5t-20.5 -47.5t-50.5 -19.5q-31 0 -51.5 19.5z" />
    <glyph glyph-name="uni1E47" unicode="&#x1e47;" horiz-adv-x="614" 
d="M69 4q-15 14 -15 39v404q0 25 14.5 39t39.5 14q26 0 40.5 -14t14.5 -39v-39q74 92 198 92q95 0 149.5 -58t54.5 -160v-239q0 -25 -15.5 -39t-41.5 -14t-40.5 14t-14.5 39v239q0 62 -30 95t-85 33q-80 0 -126 -47.5t-46 -128.5v-191q0 -24 -15.5 -38.5t-40.5 -14.5
q-26 0 -41 14zM257.5 -182.5q-19.5 18.5 -19.5 47.5q0 31 19.5 49t52.5 18q32 0 51.5 -18t19.5 -49q0 -29 -19.5 -47.5t-51.5 -18.5q-33 0 -52.5 18.5z" />
    <glyph glyph-name="eng" unicode="&#x14b;" horiz-adv-x="614" 
d="M331.5 -279q-14.5 13 -14.5 33t14 32.5t37 12.5q37 0 54.5 8.5t24 28.5t6.5 61v385q0 62 -30 95t-85 33q-80 0 -126 -47.5t-46 -128.5v-191q0 -24 -15.5 -38.5t-40.5 -14.5q-26 0 -41 14t-15 39v404q0 25 14 39t40 14t40.5 -14t14.5 -39v-39q74 92 198 92q96 0 150 -58
t54 -160l-1 -385q0 -96 -48 -142.5t-148 -46.5q-22 0 -36.5 13z" />
    <glyph glyph-name="uni1E49" unicode="&#x1e49;" horiz-adv-x="614" 
d="M69 4q-15 14 -15 39v404q0 25 14.5 39t39.5 14q26 0 40.5 -14t14.5 -39v-39q74 92 198 92q95 0 149.5 -58t54.5 -160v-239q0 -25 -15.5 -39t-41.5 -14t-40.5 14t-14.5 39v239q0 62 -30 95t-85 33q-80 0 -126 -47.5t-46 -128.5v-191q0 -24 -15.5 -38.5t-40.5 -14.5
q-26 0 -41 14zM137 -121q0 20 11.5 28.5t35.5 8.5h252q24 0 35.5 -8.5t11.5 -28.5q0 -35 -47 -35h-252q-47 0 -47 35z" />
    <glyph glyph-name="ntilde" unicode="&#xf1;" horiz-adv-x="614" 
d="M69 4q-15 14 -15 39v404q0 25 14.5 39t39.5 14q26 0 40.5 -14t14.5 -39v-39q74 92 198 92q95 0 149.5 -58t54.5 -160v-239q0 -25 -15.5 -39t-41.5 -14t-40.5 14t-14.5 39v239q0 62 -30 95t-85 33q-80 0 -126 -47.5t-46 -128.5v-191q0 -24 -15.5 -38.5t-40.5 -14.5
q-26 0 -41 14zM134 596.5q-11 9.5 -11 24.5q0 10 4 19q32 82 108 82q26 0 47 -9t47 -26q17 -11 28 -16.5t22 -5.5q15 0 24 8.5t17 27.5q13 28 37 28q17 0 28 -9.5t11 -24.5q0 -10 -4 -19q-32 -82 -108 -82q-25 0 -43.5 8t-42.5 24q-18 13 -31 19t-27 6q-15 0 -24 -8t-17 -27
q-13 -29 -36 -29q-18 0 -29 9.5z" />
    <glyph glyph-name="o" unicode="o" horiz-adv-x="658" 
d="M176 22.5q-66 32.5 -101.5 90.5t-35.5 132t35.5 132t101.5 90.5t153 32.5t153 -32.5t101.5 -90.5t35.5 -132t-35.5 -132t-101.5 -90.5t-153 -32.5t-153 32.5zM458 124q48 44 48 121t-48 121t-129 44q-82 0 -129.5 -44t-47.5 -121t47.5 -121t129.5 -44q81 0 129 44z" />
    <glyph glyph-name="oacute" unicode="&#xf3;" horiz-adv-x="658" 
d="M176 22.5q-66 32.5 -101.5 90.5t-35.5 132t35.5 132t101.5 90.5t153 32.5t153 -32.5t101.5 -90.5t35.5 -132t-35.5 -132t-101.5 -90.5t-153 -32.5t-153 32.5zM458 124q48 44 48 121t-48 121t-129 44q-82 0 -129.5 -44t-47.5 -121t47.5 -121t129.5 -44q81 0 129 44z
M302.5 582q-5.5 9 -5.5 19q0 8 3 15l59 145q15 36 44 36q14 0 28 -7q32 -17 32 -41q0 -11 -8 -25l-80 -139q-6 -10 -16.5 -16t-21.5 -6q-9 0 -19 5t-15.5 14z" />
    <glyph glyph-name="obreve" unicode="&#x14f;" horiz-adv-x="658" 
d="M176 22.5q-66 32.5 -101.5 90.5t-35.5 132t35.5 132t101.5 90.5t153 32.5t153 -32.5t101.5 -90.5t35.5 -132t-35.5 -132t-101.5 -90.5t-153 -32.5t-153 32.5zM458 124q48 44 48 121t-48 121t-129 44q-82 0 -129.5 -44t-47.5 -121t47.5 -121t129.5 -44q81 0 129 44z
M196.5 607q-48.5 45 -48.5 118q0 25 13.5 38t38.5 13t38.5 -13t13.5 -38q0 -39 19.5 -60.5t56.5 -21.5t56.5 21.5t19.5 60.5q0 24 13.5 37.5t38.5 13.5t38.5 -13t13.5 -38q0 -73 -48.5 -118t-131.5 -45t-131.5 45z" />
    <glyph glyph-name="uni01D2" unicode="&#x1d2;" horiz-adv-x="658" 
d="M176 22.5q-66 32.5 -101.5 90.5t-35.5 132t35.5 132t101.5 90.5t153 32.5t153 -32.5t101.5 -90.5t35.5 -132t-35.5 -132t-101.5 -90.5t-153 -32.5t-153 32.5zM458 124q48 44 48 121t-48 121t-129 44q-82 0 -129.5 -44t-47.5 -121t47.5 -121t129.5 -44q81 0 129 44z
M284 581l-105 127q-13 16 -13 32q0 19 19 34q14 11 28 11q21 0 40 -25l76 -104l76 104q19 25 41 25q14 0 27 -10q20 -15 20 -35q0 -16 -14 -33l-105 -126q-19 -21 -45 -21t-45 21z" />
    <glyph glyph-name="ocircumflex" unicode="&#xf4;" horiz-adv-x="658" 
d="M176 22.5q-66 32.5 -101.5 90.5t-35.5 132t35.5 132t101.5 90.5t153 32.5t153 -32.5t101.5 -90.5t35.5 -132t-35.5 -132t-101.5 -90.5t-153 -32.5t-153 32.5zM458 124q48 44 48 121t-48 121t-129 44q-82 0 -129.5 -44t-47.5 -121t47.5 -121t129.5 -44q81 0 129 44z
M166 604q0 17 13 33l105 126q19 22 45 22t45 -22l105 -126q13 -16 13 -33q0 -19 -18 -34q-14 -10 -28 -10q-22 0 -41 24l-76 104l-76 -104q-18 -24 -41 -24q-14 0 -27 10q-19 15 -19 34z" />
    <glyph glyph-name="uni1ED1" unicode="&#x1ed1;" horiz-adv-x="658" 
d="M176 22.5q-66 32.5 -101.5 90.5t-35.5 132t35.5 132t101.5 90.5t153 32.5t153 -32.5t101.5 -90.5t35.5 -132t-35.5 -132t-101.5 -90.5t-153 -32.5t-153 32.5zM458 124q48 44 48 121t-48 121t-129 44q-82 0 -129.5 -44t-47.5 -121t47.5 -121t129.5 -44q81 0 129 44z
M417 759q0 11 6 21l63 106q14 26 41 26q14 0 29 -10q20 -13 20 -36q0 -15 -10 -28l-82 -97q-14 -16 -31 -16q-12 0 -22 7q-14 11 -14 27zM165 604q0 16 14 32l105 115q19 21 45 21t45 -21l105 -115q14 -16 14 -32q0 -20 -20 -35q-11 -10 -26 -10q-21 0 -42 25l-76 92
l-76 -93q-20 -24 -42 -24q-13 0 -26 10q-20 15 -20 35z" />
    <glyph glyph-name="uni1ED9" unicode="&#x1ed9;" horiz-adv-x="658" 
d="M176 22.5q-66 32.5 -101.5 90.5t-35.5 132t35.5 132t101.5 90.5t153 32.5t153 -32.5t101.5 -90.5t35.5 -132t-35.5 -132t-101.5 -90.5t-153 -32.5t-153 32.5zM458 124q48 44 48 121t-48 121t-129 44q-82 0 -129.5 -44t-47.5 -121t47.5 -121t129.5 -44q81 0 129 44z
M276.5 -182.5q-19.5 18.5 -19.5 47.5q0 31 19.5 49t52.5 18q32 0 51.5 -18t19.5 -49q0 -29 -19.5 -47.5t-51.5 -18.5q-33 0 -52.5 18.5zM166 604q0 17 13 33l105 126q19 22 45 22t45 -22l105 -126q13 -16 13 -33q0 -19 -18 -34q-14 -10 -28 -10q-22 0 -41 24l-76 104
l-76 -104q-18 -24 -41 -24q-14 0 -27 10q-19 15 -19 34z" />
    <glyph glyph-name="uni1ED3" unicode="&#x1ed3;" horiz-adv-x="658" 
d="M176 22.5q-66 32.5 -101.5 90.5t-35.5 132t35.5 132t101.5 90.5t153 32.5t153 -32.5t101.5 -90.5t35.5 -132t-35.5 -132t-101.5 -90.5t-153 -32.5t-153 32.5zM458 124q48 44 48 121t-48 121t-129 44q-82 0 -129.5 -44t-47.5 -121t47.5 -121t129.5 -44q81 0 129 44z
M478 725q-17 0 -31 16l-82 97q-10 13 -10 28q0 24 20 37q13 9 28 9q28 0 42 -26l63 -106q6 -10 6 -22q0 -16 -14 -26q-10 -7 -22 -7zM165 604q0 16 14 32l105 115q19 21 45 21t45 -21l105 -115q14 -16 14 -32q0 -20 -20 -35q-11 -10 -26 -10q-21 0 -42 25l-76 92l-76 -93
q-20 -24 -42 -24q-13 0 -26 10q-20 15 -20 35z" />
    <glyph glyph-name="uni1ED5" unicode="&#x1ed5;" horiz-adv-x="658" 
d="M176 22.5q-66 32.5 -101.5 90.5t-35.5 132t35.5 132t101.5 90.5t153 32.5t153 -32.5t101.5 -90.5t35.5 -132t-35.5 -132t-101.5 -90.5t-153 -32.5t-153 32.5zM458 124q48 44 48 121t-48 121t-129 44q-82 0 -129.5 -44t-47.5 -121t47.5 -121t129.5 -44q81 0 129 44z
M427 722.5q-11 7.5 -11 22.5v5q0 15 9 26.5t26 25.5q14 13 19.5 19.5t5.5 14.5q0 10 -7 16t-19 6q-22 0 -41 -21q-10 -12 -25 -12q-10 0 -20 7q-13 10 -13 23q0 10 6 17q15 21 42.5 34.5t64.5 13.5q50 0 75 -20t25 -53q0 -19 -10 -32.5t-28 -28.5q-13 -10 -19.5 -18
t-6.5 -17v-6q0 -15 -11.5 -22.5t-30.5 -7.5q-20 0 -31 7.5zM165 604q0 16 14 32l105 115q19 21 45 21t45 -21l105 -115q14 -16 14 -32q0 -20 -20 -35q-11 -10 -26 -10q-21 0 -42 25l-76 92l-76 -93q-20 -24 -42 -24q-13 0 -26 10q-20 15 -20 35z" />
    <glyph glyph-name="uni1ED7" unicode="&#x1ed7;" horiz-adv-x="658" 
d="M176 22.5q-66 32.5 -101.5 90.5t-35.5 132t35.5 132t101.5 90.5t153 32.5t153 -32.5t101.5 -90.5t35.5 -132t-35.5 -132t-101.5 -90.5t-153 -32.5t-153 32.5zM458 124q48 44 48 121t-48 121t-129 44q-82 0 -129.5 -44t-47.5 -121t47.5 -121t129.5 -44q81 0 129 44z
M158 815q0 8 3 18q13 36 38.5 56.5t63.5 20.5q25 0 45.5 -8.5t45.5 -24.5q17 -11 27 -16t20 -5q14 0 23 8t16 25q11 27 33 27q18 0 28 -8.5t10 -22.5q0 -10 -4 -19q-29 -78 -102 -78q-23 0 -41 8t-40 23q-19 12 -31 17.5t-25 5.5t-22 -7.5t-17 -24.5q-12 -28 -33 -28
q-6 0 -15 3q-23 6 -23 30zM165 604q0 16 14 32l105 115q19 22 45 22q27 0 44 -22l106 -115q13 -14 13 -31q0 -22 -19 -35q-14 -11 -27 -11q-21 0 -41 25l-76 92l-76 -92q-20 -25 -41 -25q-14 0 -28 11q-19 14 -19 34z" />
    <glyph glyph-name="odieresis" unicode="&#xf6;" horiz-adv-x="658" 
d="M176 22.5q-66 32.5 -101.5 90.5t-35.5 132t35.5 132t101.5 90.5t153 32.5t153 -32.5t101.5 -90.5t35.5 -132t-35.5 -132t-101.5 -90.5t-153 -32.5t-153 32.5zM458 124q48 44 48 121t-48 121t-129 44q-82 0 -129.5 -44t-47.5 -121t47.5 -121t129.5 -44q81 0 129 44z
M171.5 600q-18.5 18 -18.5 44t18 44.5t46 18.5q27 0 45 -18t18 -45q0 -25 -18 -43.5t-45 -18.5t-45.5 18zM397.5 600q-18.5 18 -18.5 44t18 44.5t46 18.5t46 -18t18 -45q0 -25 -18.5 -43.5t-45.5 -18.5t-45.5 18z" />
    <glyph glyph-name="uni1ECD" unicode="&#x1ecd;" horiz-adv-x="658" 
d="M176 22.5q-66 32.5 -101.5 90.5t-35.5 132t35.5 132t101.5 90.5t153 32.5t153 -32.5t101.5 -90.5t35.5 -132t-35.5 -132t-101.5 -90.5t-153 -32.5t-153 32.5zM458 124q48 44 48 121t-48 121t-129 44q-82 0 -129.5 -44t-47.5 -121t47.5 -121t129.5 -44q81 0 129 44z
M276.5 -182.5q-19.5 18.5 -19.5 47.5q0 31 19.5 49t52.5 18q32 0 51.5 -18t19.5 -49q0 -29 -19.5 -47.5t-51.5 -18.5q-33 0 -52.5 18.5z" />
    <glyph glyph-name="ograve" unicode="&#xf2;" horiz-adv-x="658" 
d="M176 22.5q-66 32.5 -101.5 90.5t-35.5 132t35.5 132t101.5 90.5t153 32.5t153 -32.5t101.5 -90.5t35.5 -132t-35.5 -132t-101.5 -90.5t-153 -32.5t-153 32.5zM458 124q48 44 48 121t-48 121t-129 44q-82 0 -129.5 -44t-47.5 -121t47.5 -121t129.5 -44q81 0 129 44z
M319.5 569q-10.5 6 -16.5 16l-80 139q-8 13 -8 25q0 24 32 41q14 7 28 7q30 0 45 -36l58 -145q3 -7 3 -15q0 -15 -10.5 -26.5t-29.5 -11.5q-11 0 -21.5 6z" />
    <glyph glyph-name="uni1ECF" unicode="&#x1ecf;" horiz-adv-x="658" 
d="M176 22.5q-66 32.5 -101.5 90.5t-35.5 132t35.5 132t101.5 90.5t153 32.5t153 -32.5t101.5 -90.5t35.5 -132t-35.5 -132t-101.5 -90.5t-153 -32.5t-153 32.5zM458 124q48 44 48 121t-48 121t-129 44q-82 0 -129.5 -44t-47.5 -121t47.5 -121t129.5 -44q81 0 129 44z
M293 553q-13 9 -13 25v6q0 17 10.5 30.5t29.5 28.5q15 13 21.5 20.5t6.5 16.5q0 12 -7.5 18.5t-21.5 6.5q-27 0 -47 -25q-11 -12 -26 -12q-13 0 -24 8q-16 10 -16 25q0 9 7 19q17 24 49 39.5t74 15.5q56 0 85 -23t29 -60q0 -21 -11.5 -36t-32.5 -32q-15 -13 -22 -21.5
t-7 -17.5v-7q0 -16 -13 -25t-36 -9q-22 0 -35 9z" />
    <glyph glyph-name="ohorn" unicode="&#x1a1;" horiz-adv-x="658" 
d="M692.5 388.5q-33.5 -40.5 -89.5 -52.5q16 -41 16 -91q0 -74 -35.5 -132t-101.5 -90.5t-153 -32.5t-153 32.5t-101.5 90.5t-35.5 132t35.5 132t101.5 90.5t153 32.5q75 0 134.5 -24.5t97.5 -68.5l10 1q65 8 65 78q0 48 43 48q23 0 35 -12.5t12 -35.5q0 -57 -33.5 -97.5z
M458 124q48 44 48 121t-48 121t-129 44q-82 0 -129.5 -44t-47.5 -121t47.5 -121t129.5 -44q81 0 129 44z" />
    <glyph glyph-name="uni1EDB" unicode="&#x1edb;" horiz-adv-x="658" 
d="M692.5 388.5q-33.5 -40.5 -89.5 -52.5q16 -41 16 -91q0 -74 -35.5 -132t-101.5 -90.5t-153 -32.5t-153 32.5t-101.5 90.5t-35.5 132t35.5 132t101.5 90.5t153 32.5q75 0 134.5 -24.5t97.5 -68.5l10 1q65 8 65 78q0 48 43 48q23 0 35 -12.5t12 -35.5q0 -57 -33.5 -97.5z
M458 124q48 44 48 121t-48 121t-129 44q-82 0 -129.5 -44t-47.5 -121t47.5 -121t129.5 -44q81 0 129 44zM302.5 582q-5.5 9 -5.5 19q0 8 3 15l59 145q15 36 44 36q14 0 28 -7q32 -17 32 -41q0 -11 -8 -25l-80 -139q-6 -10 -16.5 -16t-21.5 -6q-9 0 -19 5t-15.5 14z" />
    <glyph glyph-name="uni1EE3" unicode="&#x1ee3;" horiz-adv-x="658" 
d="M692.5 388.5q-33.5 -40.5 -89.5 -52.5q16 -41 16 -91q0 -74 -35.5 -132t-101.5 -90.5t-153 -32.5t-153 32.5t-101.5 90.5t-35.5 132t35.5 132t101.5 90.5t153 32.5q75 0 134.5 -24.5t97.5 -68.5l10 1q65 8 65 78q0 48 43 48q23 0 35 -12.5t12 -35.5q0 -57 -33.5 -97.5z
M458 124q48 44 48 121t-48 121t-129 44q-82 0 -129.5 -44t-47.5 -121t47.5 -121t129.5 -44q81 0 129 44zM276.5 -182.5q-19.5 18.5 -19.5 47.5q0 31 19.5 49t52.5 18q32 0 51.5 -18t19.5 -49q0 -29 -19.5 -47.5t-51.5 -18.5q-33 0 -52.5 18.5z" />
    <glyph glyph-name="uni1EDD" unicode="&#x1edd;" horiz-adv-x="658" 
d="M692.5 388.5q-33.5 -40.5 -89.5 -52.5q16 -41 16 -91q0 -74 -35.5 -132t-101.5 -90.5t-153 -32.5t-153 32.5t-101.5 90.5t-35.5 132t35.5 132t101.5 90.5t153 32.5q75 0 134.5 -24.5t97.5 -68.5l10 1q65 8 65 78q0 48 43 48q23 0 35 -12.5t12 -35.5q0 -57 -33.5 -97.5z
M458 124q48 44 48 121t-48 121t-129 44q-82 0 -129.5 -44t-47.5 -121t47.5 -121t129.5 -44q81 0 129 44zM306.5 569q-10.5 6 -16.5 16l-80 139q-8 13 -8 25q0 24 32 41q14 7 28 7q30 0 45 -36l58 -145q3 -7 3 -15q0 -15 -10.5 -26.5t-29.5 -11.5q-11 0 -21.5 6z" />
    <glyph glyph-name="uni1EDF" unicode="&#x1edf;" horiz-adv-x="658" 
d="M692.5 388.5q-33.5 -40.5 -89.5 -52.5q16 -41 16 -91q0 -74 -35.5 -132t-101.5 -90.5t-153 -32.5t-153 32.5t-101.5 90.5t-35.5 132t35.5 132t101.5 90.5t153 32.5q75 0 134.5 -24.5t97.5 -68.5l10 1q65 8 65 78q0 48 43 48q23 0 35 -12.5t12 -35.5q0 -57 -33.5 -97.5z
M458 124q48 44 48 121t-48 121t-129 44q-82 0 -129.5 -44t-47.5 -121t47.5 -121t129.5 -44q81 0 129 44zM293 553q-13 9 -13 25v6q0 17 10.5 30.5t29.5 28.5q15 13 21.5 20.5t6.5 16.5q0 12 -7.5 18.5t-21.5 6.5q-27 0 -47 -25q-11 -12 -26 -12q-13 0 -24 8q-16 10 -16 25
q0 9 7 19q17 24 49 39.5t74 15.5q56 0 85 -23t29 -60q0 -21 -11.5 -36t-32.5 -32q-15 -13 -22 -21.5t-7 -17.5v-7q0 -16 -13 -25t-36 -9q-22 0 -35 9z" />
    <glyph glyph-name="uni1EE1" unicode="&#x1ee1;" horiz-adv-x="658" 
d="M692.5 388.5q-33.5 -40.5 -89.5 -52.5q16 -41 16 -91q0 -74 -35.5 -132t-101.5 -90.5t-153 -32.5t-153 32.5t-101.5 90.5t-35.5 132t35.5 132t101.5 90.5t153 32.5q75 0 134.5 -24.5t97.5 -68.5l10 1q65 8 65 78q0 48 43 48q23 0 35 -12.5t12 -35.5q0 -57 -33.5 -97.5z
M458 124q48 44 48 121t-48 121t-129 44q-82 0 -129.5 -44t-47.5 -121t47.5 -121t129.5 -44q81 0 129 44zM154 597.5q-11 9.5 -11 24.5q0 10 4 19q32 82 108 82q26 0 47 -9t47 -26q17 -11 28 -16.5t22 -5.5q15 0 24 8.5t17 27.5q13 28 37 28q17 0 28 -9.5t11 -24.5
q0 -10 -4 -19q-32 -82 -108 -82q-25 0 -43.5 8t-42.5 24q-18 13 -31 19t-27 6q-15 0 -24 -8t-17 -27q-13 -29 -36 -29q-18 0 -29 9.5z" />
    <glyph glyph-name="ohungarumlaut" unicode="&#x151;" horiz-adv-x="658" 
d="M176 22.5q-66 32.5 -101.5 90.5t-35.5 132t35.5 132t101.5 90.5t153 32.5t153 -32.5t101.5 -90.5t35.5 -132t-35.5 -132t-101.5 -90.5t-153 -32.5t-153 32.5zM458 124q48 44 48 121t-48 121t-129 44q-82 0 -129.5 -44t-47.5 -121t47.5 -121t129.5 -44q81 0 129 44z
M388 599q0 15 8 30l77 136q16 31 46 31q13 0 29 -8q15 -7 22.5 -17.5t7.5 -22.5q0 -15 -10 -28l-98 -134q-16 -24 -41 -24q-11 0 -21 6q-20 10 -20 31zM218 599q0 12 8 30l66 137q14 30 46 30q16 0 30 -7q28 -13 28 -39q0 -15 -9 -29l-87 -135q-15 -24 -40 -24q-12 0 -22 6
q-20 10 -20 31z" />
    <glyph glyph-name="omacron" unicode="&#x14d;" horiz-adv-x="658" 
d="M176 22.5q-66 32.5 -101.5 90.5t-35.5 132t35.5 132t101.5 90.5t153 32.5t153 -32.5t101.5 -90.5t35.5 -132t-35.5 -132t-101.5 -90.5t-153 -32.5t-153 32.5zM458 124q48 44 48 121t-48 121t-129 44q-82 0 -129.5 -44t-47.5 -121t47.5 -121t129.5 -44q81 0 129 44z
M154 604q0 20 11.5 28t35.5 8h252q24 0 35.5 -8t11.5 -28q0 -35 -47 -35h-252q-47 0 -47 35z" />
    <glyph glyph-name="oslash" unicode="&#xf8;" horiz-adv-x="666" 
d="M587.5 376.5q35.5 -58.5 35.5 -131.5q0 -74 -35.5 -132t-101.5 -90.5t-153 -32.5q-29 0 -62 5l-16 -35q-14 -32 -44 -32q-14 0 -25 5q-30 12 -30 38q0 12 6 24l14 30q-63 32 -98 89.5t-35 130.5q0 74 35.5 132t101.5 90.5t153 32.5q34 0 59 -4l15 33q14 32 44 32
q14 0 25 -5q30 -12 30 -38q0 -10 -6 -24l-13 -27q65 -32 100.5 -90.5zM215 110l138 301q-7 1 -20 1q-84 0 -132.5 -44t-48.5 -123q0 -89 63 -135zM465.5 122q48.5 44 48.5 123q0 46 -17 81t-49 55l-138 -302q7 -1 23 -1q84 0 132.5 44z" />
    <glyph glyph-name="oslashacute" unicode="&#x1ff;" horiz-adv-x="666" 
d="M587.5 376.5q35.5 -58.5 35.5 -131.5q0 -74 -35.5 -132t-101.5 -90.5t-153 -32.5q-29 0 -62 5l-16 -35q-14 -32 -44 -32q-14 0 -25 5q-30 12 -30 38q0 12 6 24l14 30q-63 32 -98 89.5t-35 130.5q0 74 35.5 132t101.5 90.5t153 32.5q34 0 59 -4l15 33q14 32 44 32
q14 0 25 -5q30 -12 30 -38q0 -10 -6 -24l-13 -27q65 -32 100.5 -90.5zM215 110l138 301q-7 1 -20 1q-84 0 -132.5 -44t-48.5 -123q0 -89 63 -135zM465.5 122q48.5 44 48.5 123q0 46 -17 81t-49 55l-138 -302q7 -1 23 -1q84 0 132.5 44zM306.5 562q-5.5 9 -5.5 19q0 8 3 15
l59 145q15 36 44 36q14 0 28 -7q32 -17 32 -41q0 -11 -8 -25l-80 -139q-6 -10 -16.5 -16t-21.5 -6q-9 0 -19 5t-15.5 14z" />
    <glyph glyph-name="otilde" unicode="&#xf5;" horiz-adv-x="658" 
d="M176 22.5q-66 32.5 -101.5 90.5t-35.5 132t35.5 132t101.5 90.5t153 32.5t153 -32.5t101.5 -90.5t35.5 -132t-35.5 -132t-101.5 -90.5t-153 -32.5t-153 32.5zM458 124q48 44 48 121t-48 121t-129 44q-82 0 -129.5 -44t-47.5 -121t47.5 -121t129.5 -44q81 0 129 44z
M153 596.5q-11 9.5 -11 24.5q0 10 4 19q32 82 108 82q26 0 47 -9t47 -26q17 -11 28 -16.5t22 -5.5q15 0 24 8.5t17 27.5q13 28 37 28q17 0 28 -9.5t11 -24.5q0 -10 -4 -19q-32 -82 -108 -82q-25 0 -43.5 8t-42.5 24q-18 13 -31 19t-27 6q-15 0 -24 -8t-17 -27
q-13 -29 -36 -29q-18 0 -29 9.5z" />
    <glyph glyph-name="oe" unicode="&#x153;" horiz-adv-x="1095" 
d="M177.5 21q-65.5 31 -100.5 88.5t-35 135.5t35 135.5t100.5 88.5t154.5 31q69 0 128 -26t100 -75q34 48 92 74.5t127 26.5q81 0 143 -24.5t96.5 -69t34.5 -102.5q0 -46 -28 -71t-79 -25h-334q1 -59 48 -93.5t127 -34.5q46 0 83 11t70 35q26 19 44 19q14 0 28 -14
q16 -15 16 -33q0 -20 -17 -33q-43 -36 -100 -55t-124 -19q-72 0 -131.5 26.5t-94.5 73.5q-42 -49 -100.5 -75t-128.5 -26q-89 0 -154.5 31zM910 289q18 0 25.5 7t7.5 24q0 42 -44 66.5t-120 24.5q-75 0 -120 -33.5t-45 -88.5h296zM461.5 124.5q47.5 44.5 47.5 120.5
t-47.5 120.5t-129.5 44.5q-83 0 -130.5 -44.5t-47.5 -120.5t47.5 -120.5t130.5 -44.5q82 0 129.5 44.5z" />
    <glyph glyph-name="p" unicode="p" horiz-adv-x="666" 
d="M68.5 -285q-14.5 14 -14.5 39v693q0 25 14.5 39t40.5 14t41 -14.5t15 -38.5v-35q42 45 91 66.5t113 21.5q119 0 189 -68t70 -186q0 -78 -32 -136t-91 -89t-139 -31q-63 0 -111 20.5t-89 65.5v-322q0 -24 -15.5 -38.5t-41.5 -14.5t-40.5 14zM470.5 124q44.5 44 44.5 123
q0 78 -44 120.5t-125 42.5q-85 0 -133 -43.5t-48 -120.5q0 -76 49 -121t132 -45q80 0 124.5 44z" />
    <glyph glyph-name="thorn" unicode="&#xfe;" horiz-adv-x="674" 
d="M72.5 -285q-14.5 14 -14.5 39v982q0 25 14.5 39t40.5 14t41.5 -14.5t15.5 -38.5v-322q37 42 86.5 64t105.5 22q127 0 198.5 -67.5t71.5 -187.5q0 -119 -71.5 -187t-198.5 -68q-56 0 -105.5 22t-86.5 64v-322q0 -24 -15.5 -38.5t-41.5 -14.5t-40.5 14zM474 124
q45 44 45 121q0 79 -44 122t-125 43q-85 0 -133 -44t-48 -121q0 -76 49 -120.5t132 -44.5q79 0 124 44z" />
    <glyph glyph-name="q" unicode="q" horiz-adv-x="666" 
d="M516 -285q-15 14 -15 39l-1 322q-34 -42 -86 -64t-114 -22q-123 0 -192.5 67.5t-69.5 186.5q0 121 70.5 188.5t196.5 67.5q123 0 196 -88v35q0 25 15 39t41 14t41 -14t15 -39v-693q0 -25 -15 -39t-41 -14t-41 14zM451.5 125q49.5 45 49.5 120q0 77 -48 121t-132 44
q-82 0 -126 -43t-44 -123q0 -77 44.5 -120.5t123.5 -43.5q83 0 132.5 45z" />
    <glyph glyph-name="r" unicode="r" horiz-adv-x="437" 
d="M69 4q-15 14 -15 39v404q0 25 14.5 39t39.5 14q26 0 40.5 -14t14.5 -39v-42q65 85 171 85h23q27 0 42.5 -12t15.5 -33q0 -22 -15.5 -33.5t-42.5 -11.5h-32q-73 0 -116 -44.5t-43 -121.5v-191q0 -24 -15.5 -38.5t-40.5 -14.5q-26 0 -41 14z" />
    <glyph glyph-name="racute" unicode="&#x155;" horiz-adv-x="437" 
d="M69 4q-15 14 -15 39v404q0 25 14.5 39t39.5 14q26 0 40.5 -14t14.5 -39v-42q65 85 171 85h23q27 0 42.5 -12t15.5 -33q0 -22 -15.5 -33.5t-42.5 -11.5h-32q-73 0 -116 -44.5t-43 -121.5v-191q0 -24 -15.5 -38.5t-40.5 -14.5q-26 0 -41 14zM207.5 582q-5.5 9 -5.5 19
q0 8 3 15l59 145q15 36 44 36q14 0 28 -7q32 -17 32 -41q0 -11 -8 -25l-80 -139q-6 -10 -16.5 -16t-21.5 -6q-9 0 -19 5t-15.5 14z" />
    <glyph glyph-name="rcaron" unicode="&#x159;" horiz-adv-x="437" 
d="M69 4q-15 14 -15 39v404q0 25 14.5 39t39.5 14q26 0 40.5 -14t14.5 -39v-42q65 85 171 85h23q27 0 42.5 -12t15.5 -33q0 -22 -15.5 -33.5t-42.5 -11.5h-32q-73 0 -116 -44.5t-43 -121.5v-191q0 -24 -15.5 -38.5t-40.5 -14.5q-26 0 -41 14zM189 581l-105 127
q-13 16 -13 32q0 19 19 34q14 11 28 11q21 0 40 -25l76 -104l76 104q19 25 41 25q14 0 27 -10q20 -15 20 -35q0 -16 -14 -33l-105 -126q-19 -21 -45 -21t-45 21z" />
    <glyph glyph-name="uni0157" unicode="&#x157;" horiz-adv-x="440" 
d="M69 4q-15 14 -15 39v404q0 25 14.5 39t39.5 14q26 0 40.5 -14t14.5 -39v-42q65 85 171 85h23q27 0 42.5 -12t15.5 -33q0 -22 -15.5 -33.5t-42.5 -11.5h-32q-73 0 -116 -44.5t-43 -121.5v-191q0 -24 -15.5 -38.5t-40.5 -14.5q-26 0 -41 14zM34 -293q0 15 19 32
q35 34 43 67q-27 -2 -45.5 14.5t-18.5 43.5q0 32 21.5 50t55.5 18q37 0 58 -22.5t21 -62.5q0 -35 -23.5 -75t-61.5 -70q-23 -19 -41 -19q-11 0 -21 9q-7 7 -7 15z" />
    <glyph glyph-name="uni1E5B" unicode="&#x1e5b;" horiz-adv-x="440" 
d="M69 4q-15 14 -15 39v404q0 25 14.5 39t39.5 14q26 0 40.5 -14t14.5 -39v-42q65 85 171 85h23q27 0 42.5 -12t15.5 -33q0 -22 -15.5 -33.5t-42.5 -11.5h-32q-73 0 -116 -44.5t-43 -121.5v-191q0 -24 -15.5 -38.5t-40.5 -14.5q-26 0 -41 14zM57.5 -182.5
q-19.5 18.5 -19.5 47.5q0 31 19.5 49t52.5 18q32 0 51.5 -18t19.5 -49q0 -29 -19.5 -47.5t-51.5 -18.5q-33 0 -52.5 18.5z" />
    <glyph glyph-name="uni1E5D" unicode="&#x1e5d;" horiz-adv-x="440" 
d="M69 4q-15 14 -15 39v404q0 25 14.5 39t39.5 14q26 0 40.5 -14t14.5 -39v-42q65 85 171 85h23q27 0 42.5 -12t15.5 -33q0 -22 -15.5 -33.5t-42.5 -11.5h-32q-73 0 -116 -44.5t-43 -121.5v-191q0 -24 -15.5 -38.5t-40.5 -14.5q-26 0 -41 14zM57.5 -182.5
q-19.5 18.5 -19.5 47.5q0 31 19.5 49t52.5 18q32 0 51.5 -18t19.5 -49q0 -29 -19.5 -47.5t-51.5 -18.5q-33 0 -52.5 18.5zM59 604q0 20 11.5 28t35.5 8h252q24 0 35.5 -8t11.5 -28q0 -35 -47 -35h-252q-47 0 -47 35z" />
    <glyph glyph-name="uni1E5F" unicode="&#x1e5f;" horiz-adv-x="437" 
d="M69 4q-15 14 -15 39v404q0 25 14.5 39t39.5 14q26 0 40.5 -14t14.5 -39v-42q65 85 171 85h23q27 0 42.5 -12t15.5 -33q0 -22 -15.5 -33.5t-42.5 -11.5h-32q-73 0 -116 -44.5t-43 -121.5v-191q0 -24 -15.5 -38.5t-40.5 -14.5q-26 0 -41 14zM-63 -121q0 20 11.5 28.5
t35.5 8.5h252q24 0 35.5 -8.5t11.5 -28.5q0 -35 -47 -35h-252q-47 0 -47 35z" />
    <glyph glyph-name="s" unicode="s" horiz-adv-x="536" 
d="M146.5 15.5q-58.5 25.5 -94.5 69.5q-12 17 -12 32q0 24 23 38q14 8 26 8q19 0 38 -19q34 -34 69.5 -49.5t85.5 -15.5q46 0 75 13t29 35q0 17 -10.5 28.5t-36.5 22.5t-81 29q-106 34 -149.5 69.5t-43.5 90.5q0 62 53 97.5t144 35.5q69 0 126 -22t84 -58q11 -14 11 -30
q0 -20 -21 -34q-13 -9 -30 -9q-23 0 -46 21q-45 43 -125 43q-83 0 -83 -44q0 -17 11 -28t38.5 -21.5t89.5 -30.5q68 -21 107 -43t56 -49.5t17 -67.5q0 -62 -56 -99.5t-154 -37.5q-82 0 -140.5 25.5z" />
    <glyph glyph-name="sacute" unicode="&#x15b;" horiz-adv-x="536" 
d="M146.5 15.5q-58.5 25.5 -94.5 69.5q-12 17 -12 32q0 24 23 38q14 8 26 8q19 0 38 -19q34 -34 69.5 -49.5t85.5 -15.5q46 0 75 13t29 35q0 17 -10.5 28.5t-36.5 22.5t-81 29q-106 34 -149.5 69.5t-43.5 90.5q0 62 53 97.5t144 35.5q69 0 126 -22t84 -58q11 -14 11 -30
q0 -20 -21 -34q-13 -9 -30 -9q-23 0 -46 21q-45 43 -125 43q-83 0 -83 -44q0 -17 11 -28t38.5 -21.5t89.5 -30.5q68 -21 107 -43t56 -49.5t17 -67.5q0 -62 -56 -99.5t-154 -37.5q-82 0 -140.5 25.5zM244.5 582q-5.5 9 -5.5 19q0 8 3 15l59 145q15 36 44 36q14 0 28 -7
q32 -17 32 -41q0 -11 -8 -25l-80 -139q-6 -10 -16.5 -16t-21.5 -6q-9 0 -19 5t-15.5 14z" />
    <glyph glyph-name="scaron" unicode="&#x161;" horiz-adv-x="536" 
d="M146.5 15.5q-58.5 25.5 -94.5 69.5q-12 17 -12 32q0 24 23 38q14 8 26 8q19 0 38 -19q34 -34 69.5 -49.5t85.5 -15.5q46 0 75 13t29 35q0 17 -10.5 28.5t-36.5 22.5t-81 29q-106 34 -149.5 69.5t-43.5 90.5q0 62 53 97.5t144 35.5q69 0 126 -22t84 -58q11 -14 11 -30
q0 -20 -21 -34q-13 -9 -30 -9q-23 0 -46 21q-45 43 -125 43q-83 0 -83 -44q0 -17 11 -28t38.5 -21.5t89.5 -30.5q68 -21 107 -43t56 -49.5t17 -67.5q0 -62 -56 -99.5t-154 -37.5q-82 0 -140.5 25.5zM226 581l-105 127q-13 16 -13 32q0 19 19 34q14 11 28 11q21 0 40 -25
l76 -104l76 104q19 25 41 25q14 0 27 -10q20 -15 20 -35q0 -16 -14 -33l-105 -126q-19 -21 -45 -21t-45 21z" />
    <glyph glyph-name="scedilla" unicode="&#x15f;" horiz-adv-x="536" 
d="M323 -13l-20 -37q42 -2 65.5 -23t23.5 -53q0 -38 -28 -64t-82 -26q-41 0 -71.5 15t-48.5 39q-8 11 -8 20q0 11 15 25q12 10 22 10q12 0 24 -15q11 -14 27 -21.5t33 -7.5q18 0 28.5 7.5t10.5 21.5q0 32 -34 32l-11 -1q-19 -2 -33 7.5t-14 25.5q0 7 3 15l17 35
q-125 12 -190 93q-12 17 -12 32q0 24 23 38q14 8 26 8q19 0 38 -19q34 -34 69.5 -49.5t85.5 -15.5q46 0 75 13t29 35q0 17 -10.5 28.5t-36.5 22.5t-81 29q-106 34 -149.5 69.5t-43.5 90.5q0 62 53 97.5t144 35.5q69 0 126 -22t84 -58q11 -14 11 -30q0 -20 -21 -34
q-13 -9 -30 -9q-23 0 -46 21q-45 43 -125 43q-83 0 -83 -44q0 -17 11 -28t38.5 -21.5t89.5 -30.5q68 -21 107 -43t56 -49.5t17 -67.5q0 -55 -45.5 -91.5t-126.5 -43.5z" />
    <glyph glyph-name="scircumflex" unicode="&#x15d;" horiz-adv-x="536" 
d="M146.5 15.5q-58.5 25.5 -94.5 69.5q-12 17 -12 32q0 24 23 38q14 8 26 8q19 0 38 -19q34 -34 69.5 -49.5t85.5 -15.5q46 0 75 13t29 35q0 17 -10.5 28.5t-36.5 22.5t-81 29q-106 34 -149.5 69.5t-43.5 90.5q0 62 53 97.5t144 35.5q69 0 126 -22t84 -58q11 -14 11 -30
q0 -20 -21 -34q-13 -9 -30 -9q-23 0 -46 21q-45 43 -125 43q-83 0 -83 -44q0 -17 11 -28t38.5 -21.5t89.5 -30.5q68 -21 107 -43t56 -49.5t17 -67.5q0 -62 -56 -99.5t-154 -37.5q-82 0 -140.5 25.5zM108 604q0 17 13 33l105 126q19 22 45 22t45 -22l105 -126q13 -16 13 -33
q0 -19 -18 -34q-14 -10 -28 -10q-22 0 -41 24l-76 104l-76 -104q-18 -24 -41 -24q-14 0 -27 10q-19 15 -19 34z" />
    <glyph glyph-name="uni0219" unicode="&#x219;" horiz-adv-x="536" 
d="M146.5 15.5q-58.5 25.5 -94.5 69.5q-12 17 -12 32q0 24 23 38q14 8 26 8q19 0 38 -19q34 -34 69.5 -49.5t85.5 -15.5q46 0 75 13t29 35q0 17 -10.5 28.5t-36.5 22.5t-81 29q-106 34 -149.5 69.5t-43.5 90.5q0 62 53 97.5t144 35.5q69 0 126 -22t84 -58q11 -14 11 -30
q0 -20 -21 -34q-13 -9 -30 -9q-23 0 -46 21q-45 43 -125 43q-83 0 -83 -44q0 -17 11 -28t38.5 -21.5t89.5 -30.5q68 -21 107 -43t56 -49.5t17 -67.5q0 -62 -56 -99.5t-154 -37.5q-82 0 -140.5 25.5zM213 -293q0 15 19 32q35 34 43 67q-27 -2 -45.5 14.5t-18.5 43.5
q0 32 21.5 50t55.5 18q37 0 58 -22.5t21 -62.5q0 -35 -23.5 -75t-61.5 -70q-23 -19 -41 -19q-11 0 -21 9q-7 7 -7 15z" />
    <glyph glyph-name="uni1E61" unicode="&#x1e61;" horiz-adv-x="536" 
d="M146.5 15.5q-58.5 25.5 -94.5 69.5q-12 17 -12 32q0 24 23 38q14 8 26 8q19 0 38 -19q34 -34 69.5 -49.5t85.5 -15.5q46 0 75 13t29 35q0 17 -10.5 28.5t-36.5 22.5t-81 29q-106 34 -149.5 69.5t-43.5 90.5q0 62 53 97.5t144 35.5q69 0 126 -22t84 -58q11 -14 11 -30
q0 -20 -21 -34q-13 -9 -30 -9q-23 0 -46 21q-45 43 -125 43q-83 0 -83 -44q0 -17 11 -28t38.5 -21.5t89.5 -30.5q68 -21 107 -43t56 -49.5t17 -67.5q0 -62 -56 -99.5t-154 -37.5q-82 0 -140.5 25.5zM219.5 594.5q-20.5 19.5 -20.5 47.5t20.5 47.5t51.5 19.5q30 0 50.5 -19.5
t20.5 -47.5t-20.5 -47.5t-50.5 -19.5q-31 0 -51.5 19.5z" />
    <glyph glyph-name="uni1E63" unicode="&#x1e63;" horiz-adv-x="536" 
d="M146.5 15.5q-58.5 25.5 -94.5 69.5q-12 17 -12 32q0 24 23 38q14 8 26 8q19 0 38 -19q34 -34 69.5 -49.5t85.5 -15.5q46 0 75 13t29 35q0 17 -10.5 28.5t-36.5 22.5t-81 29q-106 34 -149.5 69.5t-43.5 90.5q0 62 53 97.5t144 35.5q69 0 126 -22t84 -58q11 -14 11 -30
q0 -20 -21 -34q-13 -9 -30 -9q-23 0 -46 21q-45 43 -125 43q-83 0 -83 -44q0 -17 11 -28t38.5 -21.5t89.5 -30.5q68 -21 107 -43t56 -49.5t17 -67.5q0 -62 -56 -99.5t-154 -37.5q-82 0 -140.5 25.5zM237.5 -182.5q-19.5 18.5 -19.5 47.5q0 31 19.5 49t52.5 18q32 0 51.5 -18
t19.5 -49q0 -29 -19.5 -47.5t-51.5 -18.5q-33 0 -52.5 18.5z" />
    <glyph glyph-name="germandbls" unicode="&#xdf;" horiz-adv-x="650" 
d="M286 6q-45 17 -67 43q-13 16 -13 30q0 18 19 35q16 13 35 13q22 0 42 -17q32 -28 78 -28q112 0 112 132q-1 70 -40.5 103t-123.5 33h-31q-27 0 -42.5 11.5t-15.5 32.5q0 22 15 33.5t43 11.5h44q47 0 72.5 28.5t25.5 80.5q0 46 -36.5 72t-100.5 26q-67 0 -101 -34
t-34 -100v-470q0 -17 -17 -30t-40 -13t-40.5 13t-17.5 30v472q0 66 31.5 117t88.5 79.5t130 28.5q74 0 131.5 -24t89.5 -67.5t32 -99.5q0 -54 -20.5 -88t-67.5 -59v-2q68 -19 104.5 -66.5t36.5 -117.5q0 -109 -59 -167.5t-169 -58.5q-49 0 -94 17z" />
    <glyph glyph-name="t" unicode="t" horiz-adv-x="481" 
d="M452 91q0 -17 -13 -34q-21 -31 -60 -49t-86 -18q-75 0 -118 42t-43 115v254h-45q-27 0 -42.5 12t-15.5 32q0 21 15.5 33t42.5 12h45v158q0 25 15 39t41 14t41 -14t15 -39v-158h109q26 0 41.5 -12t15.5 -33q0 -20 -15 -32t-42 -12h-109v-263q0 -27 15 -42.5t42 -15.5
q37 0 66 29q23 21 42 21q16 0 28 -11q15 -12 15 -28z" />
    <glyph glyph-name="tbar" unicode="&#x167;" horiz-adv-x="490" 
d="M463 91q0 -17 -13 -34q-22 -31 -60.5 -49t-85.5 -18q-76 0 -118.5 41.5t-42.5 115.5v68h-30q-25 0 -39.5 11.5t-14.5 33.5q0 45 54 45h30v96h-46q-26 0 -41.5 12t-15.5 32q0 21 15 33t42 12h46v158q0 25 15 39t41 14t40.5 -14t14.5 -39v-158h110q26 0 41.5 -12t15.5 -33
q0 -20 -15 -32t-42 -12h-110v-96h108q54 0 54 -45q0 -22 -14.5 -33.5t-39.5 -11.5h-108v-77q0 -27 15 -42.5t43 -15.5q19 0 34.5 7t31.5 22q23 21 41 21q15 0 29 -11q15 -12 15 -28z" />
    <glyph glyph-name="tcaron" unicode="&#x165;" horiz-adv-x="492" 
d="M452 91q0 -17 -13 -34q-21 -31 -60 -49t-86 -18q-75 0 -118 42t-43 115v254h-45q-27 0 -42.5 12t-15.5 32q0 21 15.5 33t42.5 12h45v158q0 25 15 39t41 14t41 -14t15 -39v-158h109q26 0 41.5 -12t15.5 -33q0 -20 -15 -32t-42 -12h-109v-263q0 -27 15 -42.5t42 -15.5
q37 0 66 29q23 21 42 21q16 0 28 -11q15 -12 15 -28zM342 565q0 15 21 33q19 15 31 32t14 32q-25 -4 -43.5 13.5t-18.5 44.5q0 32 21 49.5t56 17.5t56 -23.5t21 -60.5q0 -36 -22 -72.5t-62 -69.5q-24 -21 -45 -21q-14 0 -23 11q-6 8 -6 14z" />
    <glyph glyph-name="uni0163" unicode="&#x163;" horiz-adv-x="481" 
d="M452 91q0 -17 -13 -34q-17 -26 -47.5 -43t-67.5 -22q0 -1 -2 -5l-20 -37q42 -2 65.5 -23t23.5 -53q0 -38 -28 -64t-82 -26q-41 0 -71.5 15t-48.5 39q-8 11 -8 20q0 11 15 25q11 9 21 9q14 0 25 -14t27 -21.5t33 -7.5q19 0 29 7.5t10 21.5q0 35 -45 31q-18 -2 -32.5 7.5
t-14.5 25.5q0 8 4 15l18 38q-53 13 -82 52.5t-29 99.5v254h-45q-27 0 -42.5 12t-15.5 32q0 21 15.5 33t42.5 12h45v158q0 25 15 39t41 14t41 -14t15 -39v-158h109q26 0 41.5 -12t15.5 -33q0 -20 -15 -32t-42 -12h-109v-263q0 -27 15 -42.5t42 -15.5q37 0 66 29q23 21 42 21
q16 0 28 -11q15 -12 15 -28z" />
    <glyph glyph-name="uni021B" unicode="&#x21b;" horiz-adv-x="481" 
d="M452 91q0 -17 -13 -34q-21 -31 -60 -49t-86 -18q-75 0 -118 42t-43 115v254h-45q-27 0 -42.5 12t-15.5 32q0 21 15.5 33t42.5 12h45v158q0 25 15 39t41 14t41 -14t15 -39v-158h109q26 0 41.5 -12t15.5 -33q0 -20 -15 -32t-42 -12h-109v-263q0 -27 15 -42.5t42 -15.5
q37 0 66 29q23 21 42 21q16 0 28 -11q15 -12 15 -28zM209 -293q0 15 19 32q35 34 43 67q-27 -2 -45.5 14.5t-18.5 43.5q0 32 21.5 50t55.5 18q37 0 58 -22.5t21 -62.5q0 -35 -23.5 -75t-61.5 -70q-23 -19 -41 -19q-11 0 -21 9q-7 7 -7 15z" />
    </font>
</defs>
</svg>
